<svg xmlns="http://www.w3.org/2000/svg" xmlns:xlink="http://www.w3.org/1999/xlink" viewBox="0 0 500 500"><defs><clipPath id="freepik--clip-path--inject-2"><path d="M179.06,366.34c-10.27,6.72-21.85,24.65-27.64,31.93s-5.78,17.74-8.21,20.54-10.83-5.79-9-12.14,5-7.65,4.3-10.64-2.43-4.86-.56-8.78,7.28-.18,12.7-3.92,10.83-19.8,17.55-36.6,20.92-16.44,22.6-19.05,11.2-36.61,20.92-34.92S239,311.62,233.41,321s-12.14,9.16-20,14.57-6.91,6.54-12.14,12.14-9,6.54-11.77,7.28c0,0-3.92,4.3-6.35,7.47S179.06,366.34,179.06,366.34Z" style="fill:#fff;stroke:#263238;stroke-linecap:round;stroke-miterlimit:10"></path></clipPath><clipPath id="freepik--clip-path-2--inject-2"><path d="M177.64,367.34a20.09,20.09,0,0,1-6.61-1.56c-4.1-1.72-5.71-6.17-6.31-10.11-5.16,13.25-9.6,24.6-14,27.66-5.42,3.74-10.83,0-12.7,3.92s-.19,5.79.56,8.78-2.43,4.3-4.3,10.64,6.54,14.94,9,12.14,2.43-13.26,8.21-20.54C157,391.32,167.74,374.69,177.64,367.34Z" style="fill:#F59E0B;stroke:#263238;stroke-linecap:round;stroke-miterlimit:10"></path></clipPath><clipPath id="freepik--clip-path-3--inject-2"><path d="M134,266.42s9.15,12.32,18.86,12.18,15.37-8.74,20.36-8.15A50.43,50.43,0,0,1,184,273.33s34.68-46.47,42.66-54.34,12.59-16.88,1.63-19.66-33.85,2.15-45.33,12.24-47.86,50.24-47.86,50.24Z" style="fill:#F59E0B;stroke:#263238;stroke-linecap:round;stroke-miterlimit:10"></path></clipPath><clipPath id="freepik--clip-path-4--inject-2"><path d="M265,157.92s2.8-6.72,8.4-9.71a28.65,28.65,0,0,1,12-3l14.56-9s4.11-14.2,18.12-20,73.58-27.45,74.14-27.82,7.47-3.74,7.47-3.18a7,7,0,0,1-.56,2.8c-.56,1.5-14.38,10.46-14.38,10.46s6.72-4.11,6.91-2,0,2.61-2.43,4.11-6.91,4.29-7.84,4.85-4.48,3.92-7.29,4.3-9.89.93-10.45,1.49-18.87,18.3-24.84,23.35-15.69,9.71-15.69,9.71-13.07,14-23,21.29-16.62,9.15-16.62,9.15l-.75.74s.56,6.54.56,7.29,5.42,19.23,3,29.5-7.1,14.57-7.1,14.57-.74,12.14-3.73,16.62-11.21,9.9-17,14.2-6.53,13.82-6.91,14.94-5,20.17-7.47,24.83-10,7.29-11.25,7.66c-.68.2-7.64,10.76-14.34,10.24a18,18,0,0,1-16.69-16.74,29.57,29.57,0,0,1,.2-5.53c1.49-11.4,6-16.13,6-16.13s9.57-37.39,8.63-47.29-1.12-16.06,1.68-21.66,11.95-14.19,26.15-20.36,15.87-10.27,15.87-17.36A20.38,20.38,0,0,1,265,157.92Z" style="fill:#fff;stroke:#263238;stroke-linecap:round;stroke-miterlimit:10"></path></clipPath><clipPath id="freepik--clip-path-5--inject-2"><path d="M228.93,217.31s-11.39-1.68-20,5.6S201.29,238,201.29,238s-8.41,3.73-10.09,8a33.41,33.41,0,0,0-2,7.84s-4.48,4.3-8.22,8.59-6.91,5-7.66,10.65-.37,19.42,3.74,33.05,6.91,19.61,8,22,10.83,14.75,12.51,15.13,3.36.74,4.67,0,11-3,10.65-5.79a7.37,7.37,0,0,0-1.5-4.11l-.37-.56s1.68-3.18.56-4.67-2.06-1.68-4.11-3.55-3.17-2.43-5.6-2.43-5,.19-5,.19-3.74-1.5-3.74-12.33,3.36-20.17,5-25a29.08,29.08,0,0,0,1.68-8.59s1.31,1.87,10.46-2.43,11.21-16.43,11.21-16.43L208,259.7a88.85,88.85,0,0,0,19.42-3.92c10.46-3.36,14.94-3.92,19-19.8" style="fill:#fff;stroke:#263238;stroke-linecap:round;stroke-miterlimit:10"></path></clipPath><clipPath id="freepik--clip-path-6--inject-2"><path d="M252.64,210.21c5.42-1.68,6.73-8.4,9.9-15.5A143.43,143.43,0,0,1,271,179.4a46.61,46.61,0,0,1-16.06-2.62c-8.41-3-18.31-.93-20.17,1.12s-1.68-.56-1.31,5.79,2.8,15.5,5,18.68,3.55,5,3.55,5" style="fill:#fff;stroke:#263238;stroke-linecap:round;stroke-miterlimit:10"></path></clipPath><clipPath id="freepik--clip-path-7--inject-2"><path d="M256.33,143.34c.53-.69,7.44,6.49,7.71,7.3a27.25,27.25,0,0,1,.65,3,1.42,1.42,0,0,0,.6.94l4.83,3.31a1.45,1.45,0,0,1,.37,2l-1.68,2.42a1.41,1.41,0,0,0-.12,1.43c1.35,2.9,6.13,13.2,5.81,14a4.12,4.12,0,0,1-2.06,2.24c-.93.37-18.11,6.16-20.17,6.35-1.58.14-5.38-6.35-7.06-9.37a1.46,1.46,0,0,0-2-.51,5,5,0,0,1-4.76.13c-3.74-1.69-8-4.86-6.17-8.41s4.86-3.73,6.17-2.8c.87.62,2.41,1.92,3.34,2.7a1.43,1.43,0,0,0,1.65.16l.79-.46a1.43,1.43,0,0,0,.39-2.2l0,0a4.52,4.52,0,0,1-.7-1.26s5.41-4.67,3.55-7.28-6.91-6.54-6.35-8.59,8-4.67,11.2-4.67C253.51,143.73,255.94,143.86,256.33,143.34Z" style="fill:#fff;stroke:#263238;stroke-linecap:round;stroke-miterlimit:10"></path></clipPath><clipPath id="freepik--clip-path-8--inject-2"><path d="M258.25,340.38a84.93,84.93,0,0,0-18.49,8.21C231,354,216.41,362.6,209.88,363s-8.59-1.68-12.51-3.17-6,3.36-6,6.16,0,4.11-1.87,6.73S182.8,385,182.8,385s-2.62,10.46,0,10.83,4.29-3.17,9.71-7.65,14-14.2,21.66-14.94,41.84-4.3,56-11,13.26-4.86,17.37-8,2.61-9.15.56-13.26a17.23,17.23,0,0,0-4.67-6" style="fill:#fff;stroke:#263238;stroke-linecap:round;stroke-miterlimit:10"></path></clipPath><clipPath id="freepik--clip-path-9--inject-2"><path d="M288.91,343s-4.45-17.39-34.21-42.54c-20-16.92-28.95-20.54-40.34-10.46s-9.15,16.63-5,23,20.91,18.49,34.73,24.66,27.83,14.75,35.67,14" style="fill:#fff;stroke:#263238;stroke-linecap:round;stroke-miterlimit:10"></path></clipPath><clipPath id="freepik--clip-path-10--inject-2"><path d="M243.12,359.43c-1.89-4.17-1.43-8.86-.52-12.48-.95.52-1.9,1.06-2.84,1.64C231,354,216.41,362.6,209.88,363s-8.59-1.68-12.51-3.17-6,3.36-6,6.16,0,4.11-1.87,6.73S182.8,385,182.8,385s-2.62,10.46,0,10.83,4.29-3.17,9.71-7.65,14-14.2,21.66-14.94a376.89,376.89,0,0,0,38.18-5.61A16.2,16.2,0,0,1,243.12,359.43Z" style="fill:#F59E0B;stroke:#263238;stroke-linecap:round;stroke-linejoin:round"></path></clipPath><clipPath id="freepik--clip-path-11--inject-2"><path d="M211,332.91s1.68-3.18.56-4.67-2.06-1.68-4.11-3.55-3.17-2.43-5.6-2.43-5,.19-5,.19-3.74-1.5-3.74-12.33a67,67,0,0,1,3.26-19.68,25.34,25.34,0,0,1-10.73,3.44,13.52,13.52,0,0,1-12.06-5.05A96.84,96.84,0,0,0,177,306.2c4.11,13.63,6.91,19.61,8,22s10.83,14.75,12.51,15.13,3.36.74,4.67,0,11-3,10.65-5.79a7.37,7.37,0,0,0-1.5-4.11Z" style="fill:#F59E0B;stroke:#263238;stroke-linecap:round;stroke-linejoin:round"></path></clipPath></defs><g id="freepik--background-simple--inject-2"><path d="M428.47,203.33c-17.2-51.64-62.19-95.08-116.4-107.93-61.26-14.53-127.09,9.14-177.24,44-18.3,12.72-35.37,27.82-48.61,45.84C41,246.86,117,279.58,115.09,310.37s-51,37.52-13.48,79.86,155.88,32.71,248.25-16.36c30.5-16.2,59.78-38.73,74.38-70.92C439.11,270.12,439.07,235.17,428.47,203.33Z" style="fill:#F59E0B"></path><path d="M428.47,203.33c-17.2-51.64-62.19-95.08-116.4-107.93-61.26-14.53-127.09,9.14-177.24,44-18.3,12.72-35.37,27.82-48.61,45.84C41,246.86,117,279.58,115.09,310.37s-51,37.52-13.48,79.86,155.88,32.71,248.25-16.36c30.5-16.2,59.78-38.73,74.38-70.92C439.11,270.12,439.07,235.17,428.47,203.33Z" style="fill:#fff;opacity:0.7000000000000001"></path></g><g id="freepik--Character--inject-2"><path d="M179.06,366.34c-10.27,6.72-21.85,24.65-27.64,31.93s-5.78,17.74-8.21,20.54-10.83-5.79-9-12.14,5-7.65,4.3-10.64-2.43-4.86-.56-8.78,7.28-.18,12.7-3.92,10.83-19.8,17.55-36.6,20.92-16.44,22.6-19.05,11.2-36.61,20.92-34.92S239,311.62,233.41,321s-12.14,9.16-20,14.57-6.91,6.54-12.14,12.14-9,6.54-11.77,7.28c0,0-3.92,4.3-6.35,7.47S179.06,366.34,179.06,366.34Z" style="fill:#fff"></path><g style="clip-path:url(#freepik--clip-path--inject-2)"><path d="M160.35,376.5c3.23-6.06,12.93-20.62,23-29.51s42.05-22.24,42.05-22.24l6.22-1.24a25.9,25.9,0,0,0,1.75-2.56c5.6-9.33-11.95-26.51-21.66-28.19s-19.24,32.3-20.92,34.92-15.87,2.24-22.6,19.05-12.14,32.87-17.55,36.6-10.83,0-12.7,3.92-.19,5.79.56,8.78-2.43,4.3-4.3,10.64,6.54,14.94,9,12.14a12.81,12.81,0,0,0,1.85-4.68,25.79,25.79,0,0,1-1.29-13C145,391.06,157.11,382.57,160.35,376.5Z" style="fill:#F59E0B"></path><path d="M160.35,376.5c3.23-6.06,12.93-20.62,23-29.51s42.05-22.24,42.05-22.24l6.22-1.24a25.9,25.9,0,0,0,1.75-2.56c5.6-9.33-11.95-26.51-21.66-28.19s-19.24,32.3-20.92,34.92-15.87,2.24-22.6,19.05-12.14,32.87-17.55,36.6-10.83,0-12.7,3.92-.19,5.79.56,8.78-2.43,4.3-4.3,10.64,6.54,14.94,9,12.14a12.81,12.81,0,0,0,1.85-4.68,25.79,25.79,0,0,1-1.29-13C145,391.06,157.11,382.57,160.35,376.5Z" style="fill:#fff;opacity:0.5"></path></g><path d="M179.06,366.34c-10.27,6.72-21.85,24.65-27.64,31.93s-5.78,17.74-8.21,20.54-10.83-5.79-9-12.14,5-7.65,4.3-10.64-2.43-4.86-.56-8.78,7.28-.18,12.7-3.92,10.83-19.8,17.55-36.6,20.92-16.44,22.6-19.05,11.2-36.61,20.92-34.92S239,311.62,233.41,321s-12.14,9.16-20,14.57-6.91,6.54-12.14,12.14-9,6.54-11.77,7.28c0,0-3.92,4.3-6.35,7.47S179.06,366.34,179.06,366.34Z" style="fill:none;stroke:#263238;stroke-linecap:round;stroke-miterlimit:10"></path><path d="M177.64,367.34a20.09,20.09,0,0,1-6.61-1.56c-4.1-1.72-5.71-6.17-6.31-10.11-5.16,13.25-9.6,24.6-14,27.66-5.42,3.74-10.83,0-12.7,3.92s-.19,5.79.56,8.78-2.43,4.3-4.3,10.64,6.54,14.94,9,12.14,2.43-13.26,8.21-20.54C157,391.32,167.74,374.69,177.64,367.34Z" style="fill:#F59E0B"></path><g style="clip-path:url(#freepik--clip-path-2--inject-2)"><path d="M143.21,418.81a3.93,3.93,0,0,0,.38-.54l.09-.15c.11-.2.22-.42.33-.67,0,0,0-.09.05-.13.09-.22.18-.45.26-.69a2.09,2.09,0,0,0,.08-.23c.1-.28.19-.57.28-.87l.09-.32c.06-.23.13-.47.2-.72l.09-.36h0a25.79,25.79,0,0,1-1.29-13c1.21-10.11,13.34-18.6,16.58-24.67A116.35,116.35,0,0,1,168.4,364c-2.21-2.16-3.23-5.4-3.68-8.36l-.88,2.24-.14.38-.88,2.24v0l-.83,2.1-.14.35c-.27.68-.54,1.35-.81,2l-.14.35c-.27.67-.54,1.33-.81,2v0l-.8,1.88-.15.35c-.26.6-.52,1.18-.78,1.75l-.12.28-.73,1.58-.08.17c-.26.54-.51,1.06-.76,1.56-.05.11-.11.21-.16.3-.25.5-.5,1-.75,1.45l-.09.17-.71,1.25-.11.19c-.25.42-.49.81-.74,1.19l-.15.22c-.25.38-.5.73-.74,1.06l-.07.08c-.23.31-.47.6-.7.87l-.13.15c-.24.28-.49.52-.73.75l-.14.13a7.88,7.88,0,0,1-.75.6,10.4,10.4,0,0,1-5,1.78c-1,.1-1.86.1-2.71.11a15.41,15.41,0,0,0-2.34.14,3.25,3.25,0,0,0-2.68,1.89,7.8,7.8,0,0,0-.85,3.17,6.28,6.28,0,0,0,.06,1.07,4.37,4.37,0,0,0,.09.5c.28,1.33.89,2.55,1.26,4a3.91,3.91,0,0,1,.11,1.05c-.08,1.34-1,2.47-2,4.22a22.25,22.25,0,0,0-2.38,5.37,8.32,8.32,0,0,0,.27,5,14.45,14.45,0,0,0,1.82,3.51c.25.36.51.7.78,1C139.29,418.77,142,420.21,143.21,418.81Z" style="opacity:0.2"></path></g><path d="M177.64,367.34a20.09,20.09,0,0,1-6.61-1.56c-4.1-1.72-5.71-6.17-6.31-10.11-5.16,13.25-9.6,24.6-14,27.66-5.42,3.74-10.83,0-12.7,3.92s-.19,5.79.56,8.78-2.43,4.3-4.3,10.64,6.54,14.94,9,12.14,2.43-13.26,8.21-20.54C157,391.32,167.74,374.69,177.64,367.34Z" style="fill:none;stroke:#263238;stroke-linecap:round;stroke-miterlimit:10"></path><path d="M134,266.42s9.15,12.32,18.86,12.18,15.37-8.74,20.36-8.15A50.43,50.43,0,0,1,184,273.33s34.68-46.47,42.66-54.34,12.59-16.88,1.63-19.66-33.85,2.15-45.33,12.24-47.86,50.24-47.86,50.24Z" style="fill:#F59E0B"></path><g style="clip-path:url(#freepik--clip-path-3--inject-2)"><path d="M134,266.42s9.15,12.32,18.86,12.18,15.37-8.74,20.36-8.15A50.43,50.43,0,0,1,184,273.33s34.68-46.47,42.66-54.34,12.59-16.88,1.63-19.66-33.85,2.15-45.33,12.24-47.86,50.24-47.86,50.24Z" style="stroke:#263238;stroke-linecap:round;stroke-miterlimit:10;opacity:0.5"></path></g><path d="M134,266.42s9.15,12.32,18.86,12.18,15.37-8.74,20.36-8.15A50.43,50.43,0,0,1,184,273.33s34.68-46.47,42.66-54.34,12.59-16.88,1.63-19.66-33.85,2.15-45.33,12.24-47.86,50.24-47.86,50.24Z" style="fill:none;stroke:#263238;stroke-linecap:round;stroke-miterlimit:10"></path><path d="M265,157.92s2.8-6.72,8.4-9.71a28.65,28.65,0,0,1,12-3l14.56-9s4.11-14.2,18.12-20,73.58-27.45,74.14-27.82,7.47-3.74,7.47-3.18a7,7,0,0,1-.56,2.8c-.56,1.5-14.38,10.46-14.38,10.46s6.72-4.11,6.91-2,0,2.61-2.43,4.11-6.91,4.29-7.84,4.85-4.48,3.92-7.29,4.3-9.89.93-10.45,1.49-18.87,18.3-24.84,23.35-15.69,9.71-15.69,9.71-13.07,14-23,21.29-16.62,9.15-16.62,9.15l-.75.74s.56,6.54.56,7.29,5.42,19.23,3,29.5-7.1,14.57-7.1,14.57-.74,12.14-3.73,16.62-11.21,9.9-17,14.2-6.53,13.82-6.91,14.94-5,20.17-7.47,24.83-10,7.29-11.25,7.66c-.68.2-7.64,10.76-14.34,10.24a18,18,0,0,1-16.69-16.74,29.57,29.57,0,0,1,.2-5.53c1.49-11.4,6-16.13,6-16.13s9.57-37.39,8.63-47.29-1.12-16.06,1.68-21.66,11.95-14.19,26.15-20.36,15.87-10.27,15.87-17.36A20.38,20.38,0,0,1,265,157.92Z" style="fill:#fff"></path><g style="clip-path:url(#freepik--clip-path-4--inject-2)"><path d="M285.79,194.62l-.11-.05s-.81,12.13-2.83,20.22-10.51,13.34-10.51,13.34l-4.45,12.13s-10.11,9.29-16.58,9.29S244,244.3,244,244.3c-6.09-5.18-19.3-8.75-27.87-6.73-1.34,10.59-5.07,26.61-7,34.55,3.61,1.93,9.4,3.75,17.89,2.91a84.51,84.51,0,0,0,25.39-6.89c.85-3.4,2.5-7.9,6-10.49l1.95-1.43c-5.86,2.44-13.3,10.39-18.77,11.12-6.07.81-8.09-.4-7.68-2.83s8.82-.89,11.72-2,.41-1.61-5.66-2.42-4.85-3.24-4.85-3.24,9.85.82,11.72,0,15-4,21-9.3S274.36,231,274.36,231l4.66-2.33c.1-1.11.14-1.8.14-1.8s4.67-4.29,7.1-14.57C287.43,207.32,286.78,200.48,285.79,194.62Z" style="fill:#F59E0B"></path><path d="M335.15,130.33c-11.68,5.06-14,3.5-14,3.5a22.48,22.48,0,0,1,2.84,2.43c1.69,1.64-.51,6.91-6.74,11.59S290.77,165,287.27,165s-3.5-11.67-3.5-11.67a68.74,68.74,0,0,0-.88,22l.57-.56s6.72-1.87,16.62-9.15,23-21.29,23-21.29,9.71-4.67,15.69-9.71c3.28-2.77,10.27-9.37,16-14.85A162.25,162.25,0,0,1,335.15,130.33Z" style="fill:#F59E0B"></path><path d="M335.15,130.33c-11.68,5.06-14,3.5-14,3.5a22.48,22.48,0,0,1,2.84,2.43c1.69,1.64-.51,6.91-6.74,11.59S290.77,165,287.27,165s-3.5-11.67-3.5-11.67a68.74,68.74,0,0,0-.88,22l.57-.56s6.72-1.87,16.62-9.15,23-21.29,23-21.29,9.71-4.67,15.69-9.71c3.28-2.77,10.27-9.37,16-14.85A162.25,162.25,0,0,1,335.15,130.33Z" style="fill:#fff;opacity:0.5"></path><path d="M285.79,194.62l-.11-.05s-.81,12.13-2.83,20.22-10.51,13.34-10.51,13.34l-4.45,12.13s-10.11,9.29-16.58,9.29S244,244.3,244,244.3c-6.09-5.18-19.3-8.75-27.87-6.73-1.34,10.59-5.07,26.61-7,34.55,3.61,1.93,9.4,3.75,17.89,2.91a84.51,84.51,0,0,0,25.39-6.89c.85-3.4,2.5-7.9,6-10.49l1.95-1.43c-5.86,2.44-13.3,10.39-18.77,11.12-6.07.81-8.09-.4-7.68-2.83s8.82-.89,11.72-2,.41-1.61-5.66-2.42-4.85-3.24-4.85-3.24,9.85.82,11.72,0,15-4,21-9.3S274.36,231,274.36,231l4.66-2.33c.1-1.11.14-1.8.14-1.8s4.67-4.29,7.1-14.57C287.43,207.32,286.78,200.48,285.79,194.62Z" style="fill:#fff;opacity:0.5"></path></g><path d="M265,157.92s2.8-6.72,8.4-9.71a28.65,28.65,0,0,1,12-3l14.56-9s4.11-14.2,18.12-20,73.58-27.45,74.14-27.82,7.47-3.74,7.47-3.18a7,7,0,0,1-.56,2.8c-.56,1.5-14.38,10.46-14.38,10.46s6.72-4.11,6.91-2,0,2.61-2.43,4.11-6.91,4.29-7.84,4.85-4.48,3.92-7.29,4.3-9.89.93-10.45,1.49-18.87,18.3-24.84,23.35-15.69,9.71-15.69,9.71-13.07,14-23,21.29-16.62,9.15-16.62,9.15l-.75.74s.56,6.54.56,7.29,5.42,19.23,3,29.5-7.1,14.57-7.1,14.57-.74,12.14-3.73,16.62-11.21,9.9-17,14.2-6.53,13.82-6.91,14.94-5,20.17-7.47,24.83-10,7.29-11.25,7.66c-.68.2-7.64,10.76-14.34,10.24a18,18,0,0,1-16.69-16.74,29.57,29.57,0,0,1,.2-5.53c1.49-11.4,6-16.13,6-16.13s9.57-37.39,8.63-47.29-1.12-16.06,1.68-21.66,11.95-14.19,26.15-20.36,15.87-10.27,15.87-17.36A20.38,20.38,0,0,1,265,157.92Z" style="fill:none;stroke:#263238;stroke-linecap:round;stroke-miterlimit:10"></path><ellipse cx="269.27" cy="220.13" rx="15.62" ry="10" transform="translate(-6.69 431.81) rotate(-76.76)" style="fill:#F59E0B"></ellipse><path d="M245,257.65c-10.09,2.24-14-2.62-14-2.62s1.12,7.47,11.77,8.59" style="fill:none;stroke:#263238;stroke-linecap:round;stroke-linejoin:round"></path><path d="M268.71,212.64s5.79,14,1.12,24.65S258.43,252,245.74,254.1" style="fill:none;stroke:#263238;stroke-linecap:round;stroke-miterlimit:10"></path><path d="M256.57,257.83s-7.66,6.91-13.64,9.15-10.64,6.17-15.68-.56" style="fill:none;stroke:#263238;stroke-linecap:round;stroke-miterlimit:10"></path><path d="M316.7,136.44s4.67-3.17,7.28-.18-.93,8-.93,8" style="fill:none;stroke:#263238;stroke-linecap:round;stroke-linejoin:round"></path><path d="M284.21,150.26A140,140,0,0,0,282,165.39a33.83,33.83,0,0,0,.74,10.08" style="fill:none;stroke:#263238;stroke-linecap:round;stroke-linejoin:round"></path><line x1="240.23" y1="218.16" x2="251.42" y2="212.22" style="fill:none;stroke:#263238;stroke-linecap:round;stroke-miterlimit:10"></line><path d="M392.15,88.45c-.5.33-47.81,17.55-68,25.4,1.82.08,11.36.88,13.89,9.15a33.1,33.1,0,0,1,1.52,10.91c6.64-5.77,23.53-22.14,24.07-22.68s7.65-1.12,10.45-1.49,6.35-3.74,7.29-4.3,5.41-3.36,7.84-4.85,2.62-2.06,2.43-4.11-6.91,2-6.91,2,13.82-9,14.38-10.46a7,7,0,0,0,.56-2.8C399.62,84.71,392.71,88.07,392.15,88.45Z" style="fill:#F59E0B;stroke:#263238;stroke-linecap:round;stroke-linejoin:round"></path><line x1="384.68" y1="98.53" x2="378.14" y2="101.89" style="fill:#fff;stroke:#263238;stroke-linecap:round;stroke-linejoin:round"></line><path d="M252.85,266.65c-2.09.81-4.73,1.9-7.25,3.11a64.65,64.65,0,0,1-22.28,6.14c-6.08.51-11.25-2.21-14.08-4.13-.77,3.16-1.27,5.15-1.27,5.15s-4.51,4.73-6,16.13a29.57,29.57,0,0,0-.2,5.53,18,18,0,0,0,16.69,16.74c6.7.52,13.66-10,14.34-10.24,1.3-.37,8.83-3,11.25-7.66s7.1-23.71,7.47-24.83C251.7,272.05,252,269.56,252.85,266.65Z" style="fill:#263238;stroke:#263238;stroke-linecap:round;stroke-miterlimit:10"></path><path d="M212.8,282.43s8-3.45,16.08-.58" style="fill:none;stroke:#fff;stroke-linecap:round;stroke-linejoin:round;stroke-width:0.75px"></path><path d="M229.68,272.61c-10.31,1.16-16.28-2.61-19.31-5.59-.69,3-1.29,5.44-1.73,7.19a27.64,27.64,0,0,0,17.71,4c11.12-1.37,21.21-5.92,25.68-8.18h0q.06-.35.15-.72v0c.15-.73.35-1.52.59-2.36,0-.05,0-.1.05-.16.08-.26.16-.53.25-.8a.56.56,0,0,0,0-.12,24.35,24.35,0,0,1,1.09-2.71A53.06,53.06,0,0,1,229.68,272.61Z" style="fill:#F59E0B;stroke:#263238;stroke-linecap:round;stroke-miterlimit:10"></path><path d="M198.36,207s-1.81.92,4.72-3.37,4.56,1.92,9-9.1,9.34-19.23,17.37-22.22,31.75,1.31,31.75,1.31l5.6,3.92L259,192.66a14.68,14.68,0,0,0-12.13-.38c-6.35,2.8-9.72,6.16-9,9.15s6.72,11.21,6.72,11.21-28.28-11.11-32.76-8.69-18.13,7.38-18.88,7.76S198.36,207,198.36,207Z" style="fill:#F59E0B;stroke:#263238;stroke-linecap:round;stroke-miterlimit:10"></path><path d="M215.77,198.25c.95-1.39,2-3,3.07-4.85,4.86-8.21,14.57-11.76,14.57-11.76" style="fill:none;stroke:#263238;stroke-linecap:round;stroke-miterlimit:10"></path><path d="M234.12,190.61a20.45,20.45,0,0,0-12.66,9.33" style="fill:none;stroke:#263238;stroke-linecap:round;stroke-miterlimit:10"></path><path d="M228.93,217.31s-11.39-1.68-20,5.6S201.29,238,201.29,238s-8.41,3.73-10.09,8a33.41,33.41,0,0,0-2,7.84s-4.48,4.3-8.22,8.59-6.91,5-7.66,10.65-.37,19.42,3.74,33.05,6.91,19.61,8,22,10.83,14.75,12.51,15.13,3.36.74,4.67,0,11-3,10.65-5.79a7.37,7.37,0,0,0-1.5-4.11l-.37-.56s1.68-3.18.56-4.67-2.06-1.68-4.11-3.55-3.17-2.43-5.6-2.43-5,.19-5,.19-3.74-1.5-3.74-12.33,3.36-20.17,5-25a29.08,29.08,0,0,0,1.68-8.59s1.31,1.87,10.46-2.43,11.21-16.43,11.21-16.43L208,259.7a88.85,88.85,0,0,0,19.42-3.92c10.46-3.36,14.94-3.92,19-19.8" style="fill:#fff"></path><g style="clip-path:url(#freepik--clip-path-5--inject-2)"><path d="M211.17,251.93c-1.92-2.57,9-10,11.89-12.85s-9.32,4.82-12.21,5.46-5.46-1.29-3.85-10.28a30.42,30.42,0,0,1,7.91-15,23.19,23.19,0,0,0-6,3.64c-8.59,7.28-7.65,15.13-7.65,15.13s-8.41,3.73-10.09,8a33.41,33.41,0,0,0-2,7.84s-4.48,4.3-8.22,8.59-6.91,5-7.66,10.65-.37,19.42,3.74,33.05,6.91,19.61,8,22,10.83,14.75,12.51,15.13,3.36.74,4.67,0,11-3,10.65-5.79a12.79,12.79,0,0,0-.41-2c-3.58.45-10.13,2.74-11.89,2.74-1.92,0-3.85-2.89-6.74-6.11s-7.39-11.56-8-21.84,3.85-19.92,3.85-24.74-5.78,6.43-4.5,1.61,6.43-11.89,10.28-13.82,8.36-3.21,10-6.42-5.78-1-3.21-3.54,19.28-5.84,24.74-9S213.1,254.5,211.17,251.93Z" style="fill:#F59E0B"></path><path d="M211.17,251.93c-1.92-2.57,9-10,11.89-12.85s-9.32,4.82-12.21,5.46-5.46-1.29-3.85-10.28a30.42,30.42,0,0,1,7.91-15,23.19,23.19,0,0,0-6,3.64c-8.59,7.28-7.65,15.13-7.65,15.13s-8.41,3.73-10.09,8a33.41,33.41,0,0,0-2,7.84s-4.48,4.3-8.22,8.59-6.91,5-7.66,10.65-.37,19.42,3.74,33.05,6.91,19.61,8,22,10.83,14.75,12.51,15.13,3.36.74,4.67,0,11-3,10.65-5.79a12.79,12.79,0,0,0-.41-2c-3.58.45-10.13,2.74-11.89,2.74-1.92,0-3.85-2.89-6.74-6.11s-7.39-11.56-8-21.84,3.85-19.92,3.85-24.74-5.78,6.43-4.5,1.61,6.43-11.89,10.28-13.82,8.36-3.21,10-6.42-5.78-1-3.21-3.54,19.28-5.84,24.74-9S213.1,254.5,211.17,251.93Z" style="fill:#fff;opacity:0.5"></path></g><path d="M228.93,217.31s-11.39-1.68-20,5.6S201.29,238,201.29,238s-8.41,3.73-10.09,8a33.41,33.41,0,0,0-2,7.84s-4.48,4.3-8.22,8.59-6.91,5-7.66,10.65-.37,19.42,3.74,33.05,6.91,19.61,8,22,10.83,14.75,12.51,15.13,3.36.74,4.67,0,11-3,10.65-5.79a7.37,7.37,0,0,0-1.5-4.11l-.37-.56s1.68-3.18.56-4.67-2.06-1.68-4.11-3.55-3.17-2.43-5.6-2.43-5,.19-5,.19-3.74-1.5-3.74-12.33,3.36-20.17,5-25a29.08,29.08,0,0,0,1.68-8.59s1.31,1.87,10.46-2.43,11.21-16.43,11.21-16.43L208,259.7a88.85,88.85,0,0,0,19.42-3.92c10.46-3.36,14.94-3.92,19-19.8" style="fill:none;stroke:#263238;stroke-linecap:round;stroke-miterlimit:10"></path><line x1="199.79" y1="276.51" x2="198.72" y2="267.94" style="fill:none;stroke:#263238;stroke-linecap:round;stroke-linejoin:round"></line><path d="M252.64,210.21c5.42-1.68,6.73-8.4,9.9-15.5A143.43,143.43,0,0,1,271,179.4a46.61,46.61,0,0,1-16.06-2.62c-8.41-3-18.31-.93-20.17,1.12s-1.68-.56-1.31,5.79,2.8,15.5,5,18.68,3.55,5,3.55,5" style="fill:#fff"></path><g style="clip-path:url(#freepik--clip-path-6--inject-2)"><path d="M268.6,179.38a47.53,47.53,0,0,1-13.71-2.6c-8.41-3-18.31-.93-20.17,1.12s-1.68-.56-1.31,5.79,2.8,15.5,5,18.68l.8,1.12,29.85-23.88Z" style="fill:#F59E0B"></path><path d="M268.6,179.38a47.53,47.53,0,0,1-13.71-2.6c-8.41-3-18.31-.93-20.17,1.12s-1.68-.56-1.31,5.79,2.8,15.5,5,18.68l.8,1.12,29.85-23.88Z" style="fill:#fff;opacity:0.5"></path></g><path d="M252.64,210.21c5.42-1.68,6.73-8.4,9.9-15.5A143.43,143.43,0,0,1,271,179.4a46.61,46.61,0,0,1-16.06-2.62c-8.41-3-18.31-.93-20.17,1.12s-1.68-.56-1.31,5.79,2.8,15.5,5,18.68,3.55,5,3.55,5" style="fill:none;stroke:#263238;stroke-linecap:round;stroke-miterlimit:10"></path><path d="M251.34,199.19a38.15,38.15,0,0,0,9.83-1.21c.43-1.07.88-2.16,1.37-3.27A143.43,143.43,0,0,1,271,179.4a46.61,46.61,0,0,1-16.06-2.62c-8.41-3-18.31-.93-20.17,1.12s-1.68-.56-1.31,5.79a55.78,55.78,0,0,0,1.89,10.79C238.37,197,243.32,199.11,251.34,199.19Z" style="fill:none;stroke:#263238;stroke-linecap:round;stroke-miterlimit:10"></path><line x1="253.1" y1="207.25" x2="248.6" y2="187.44" style="fill:none;stroke:#263238;stroke-linecap:round;stroke-linejoin:round"></line><path d="M258.31,142.16a52.35,52.35,0,0,0,1.18-6.71c.38-3.55-8.15-9.84-16.93-9.09s-5.6,9.34-6.72,12.14-9.53-.19-11.77,4.85,1.68,6.54,1.68,8-6.91,5.42-6,14.2,16.06,17.36,19.42,18.11,7.47-2.43,7.47-5,5.6-3.55,7.1-6-2.43-10.83-2.25-12.7,6-9.33,4.11-11.2S258.31,142.16,258.31,142.16Z" style="fill:#263238;stroke:#263238;stroke-linecap:round;stroke-miterlimit:10"></path><path d="M249.37,144.26s2.9-.32,2.9-6.75-9.32-4.82-10.61-2.25-.32,7.39-3.53,8.68-8.36,1.28-8.36,3.85v3.54" style="fill:none;stroke:#fff;stroke-linecap:round;stroke-linejoin:round;stroke-width:0.75px"></path><path d="M241,149.4s-11.89-.64-18,10.28" style="fill:none;stroke:#fff;stroke-linecap:round;stroke-linejoin:round;stroke-width:0.75px"></path><path d="M242.63,152.29s-8,.32-12.21,5.78" style="fill:none;stroke:#fff;stroke-linecap:round;stroke-linejoin:round;stroke-width:0.75px"></path><path d="M256.33,143.34c.53-.69,7.44,6.49,7.71,7.3a27.25,27.25,0,0,1,.65,3,1.42,1.42,0,0,0,.6.94l4.83,3.31a1.45,1.45,0,0,1,.37,2l-1.68,2.42a1.41,1.41,0,0,0-.12,1.43c1.35,2.9,6.13,13.2,5.81,14a4.12,4.12,0,0,1-2.06,2.24c-.93.37-18.11,6.16-20.17,6.35-1.58.14-5.38-6.35-7.06-9.37a1.46,1.46,0,0,0-2-.51,5,5,0,0,1-4.76.13c-3.74-1.69-8-4.86-6.17-8.41s4.86-3.73,6.17-2.8c.87.62,2.41,1.92,3.34,2.7a1.43,1.43,0,0,0,1.65.16l.79-.46a1.43,1.43,0,0,0,.39-2.2l0,0a4.52,4.52,0,0,1-.7-1.26s5.41-4.67,3.55-7.28-6.91-6.54-6.35-8.59,8-4.67,11.2-4.67C253.51,143.73,255.94,143.86,256.33,143.34Z" style="fill:#fff"></path><g style="clip-path:url(#freepik--clip-path-7--inject-2)"><path d="M247.42,157c1.86,2.61-3.55,7.28-3.55,7.28a4.52,4.52,0,0,0,.7,1.26l0,0a1.43,1.43,0,0,1-.39,2.2l-.79.46a1.43,1.43,0,0,1-1.65-.16c-.93-.78-2.47-2.08-3.34-2.7-1.31-.93-4.3-.75-6.17,2.8s2.43,6.72,6.17,8.41a5,5,0,0,0,4.76-.13,1.46,1.46,0,0,1,2,.51c1.68,3,5.48,9.51,7.06,9.37,2.06-.19,19.24-6,20.17-6.35a4.12,4.12,0,0,0,2.06-2.24s-7.42,3.51-11.46-.13-9.3-8.89-10.92-11.32,1.75-7.8-1.62-12.94-9.43-4.93-9.43-4.93C240.51,150.45,245.55,154.37,247.42,157Z" style="fill:#F59E0B"></path><path d="M247.42,157c1.86,2.61-3.55,7.28-3.55,7.28a4.52,4.52,0,0,0,.7,1.26l0,0a1.43,1.43,0,0,1-.39,2.2l-.79.46a1.43,1.43,0,0,1-1.65-.16c-.93-.78-2.47-2.08-3.34-2.7-1.31-.93-4.3-.75-6.17,2.8s2.43,6.72,6.17,8.41a5,5,0,0,0,4.76-.13,1.46,1.46,0,0,1,2,.51c1.68,3,5.48,9.51,7.06,9.37,2.06-.19,19.24-6,20.17-6.35a4.12,4.12,0,0,0,2.06-2.24s-7.42,3.51-11.46-.13-9.3-8.89-10.92-11.32,1.75-7.8-1.62-12.94-9.43-4.93-9.43-4.93C240.51,150.45,245.55,154.37,247.42,157Z" style="fill:#fff;opacity:0.5"></path></g><path d="M256.33,143.34c.53-.69,7.44,6.49,7.71,7.3a27.25,27.25,0,0,1,.65,3,1.42,1.42,0,0,0,.6.94l4.83,3.31a1.45,1.45,0,0,1,.37,2l-1.68,2.42a1.41,1.41,0,0,0-.12,1.43c1.35,2.9,6.13,13.2,5.81,14a4.12,4.12,0,0,1-2.06,2.24c-.93.37-18.11,6.16-20.17,6.35-1.58.14-5.38-6.35-7.06-9.37a1.46,1.46,0,0,0-2-.51,5,5,0,0,1-4.76.13c-3.74-1.69-8-4.86-6.17-8.41s4.86-3.73,6.17-2.8c.87.62,2.41,1.92,3.34,2.7a1.43,1.43,0,0,0,1.65.16l.79-.46a1.43,1.43,0,0,0,.39-2.2l0,0a4.52,4.52,0,0,1-.7-1.26s5.41-4.67,3.55-7.28-6.91-6.54-6.35-8.59,8-4.67,11.2-4.67C253.51,143.73,255.94,143.86,256.33,143.34Z" style="fill:none;stroke:#263238;stroke-linecap:round;stroke-miterlimit:10"></path><path d="M261.57,153.34s-4,0-5.13.57-2.57,4.56-2.57,4.56l3.71-2.28,4.27-.85,1.14-3.13Z" style="fill:#263238"></path><polyline points="261.85 157.33 258.43 159.04 261.85 159.04" style="fill:#fff;stroke:#263238;stroke-linecap:round;stroke-miterlimit:10"></polyline><path d="M258.25,340.38a84.93,84.93,0,0,0-18.49,8.21C231,354,216.41,362.6,209.88,363s-8.59-1.68-12.51-3.17-6,3.36-6,6.16,0,4.11-1.87,6.73S182.8,385,182.8,385s-2.62,10.46,0,10.83,4.29-3.17,9.71-7.65,14-14.2,21.66-14.94,41.84-4.3,56-11,13.26-4.86,17.37-8,2.61-9.15.56-13.26a17.23,17.23,0,0,0-4.67-6" style="fill:#fff"></path><g style="clip-path:url(#freepik--clip-path-8--inject-2)"><path d="M278.61,358.46c-1.68-.3-3-.74-3-1.36,0-1.62,4.85-1.62,7.28-4.85s-.41-6.47-3.64-10.11c-1.24-1.39-2.77-3.38-4.42-5.32l-16.54,3.56a84.93,84.93,0,0,0-18.49,8.21C231,354,216.41,362.6,209.88,363s-8.59-1.68-12.51-3.17-6,3.36-6,6.16,0,4.11-1.87,6.73S182.8,385,182.8,385s-2.62,10.46,0,10.83,4.29-3.17,9.71-7.65,14-14.2,21.66-14.94,41.84-4.3,56-11C273.93,360.46,276.6,359.29,278.61,358.46Z" style="fill:#F59E0B"></path><path d="M278.61,358.46c-1.68-.3-3-.74-3-1.36,0-1.62,4.85-1.62,7.28-4.85s-.41-6.47-3.64-10.11c-1.24-1.39-2.77-3.38-4.42-5.32l-16.54,3.56a84.93,84.93,0,0,0-18.49,8.21C231,354,216.41,362.6,209.88,363s-8.59-1.68-12.51-3.17-6,3.36-6,6.16,0,4.11-1.87,6.73S182.8,385,182.8,385s-2.62,10.46,0,10.83,4.29-3.17,9.71-7.65,14-14.2,21.66-14.94,41.84-4.3,56-11C273.93,360.46,276.6,359.29,278.61,358.46Z" style="fill:#fff;opacity:0.5"></path></g><path d="M258.25,340.38a84.93,84.93,0,0,0-18.49,8.21C231,354,216.41,362.6,209.88,363s-8.59-1.68-12.51-3.17-6,3.36-6,6.16,0,4.11-1.87,6.73S182.8,385,182.8,385s-2.62,10.46,0,10.83,4.29-3.17,9.71-7.65,14-14.2,21.66-14.94,41.84-4.3,56-11,13.26-4.86,17.37-8,2.61-9.15.56-13.26a17.23,17.23,0,0,0-4.67-6" style="fill:none;stroke:#263238;stroke-linecap:round;stroke-miterlimit:10"></path><path d="M288.91,343s-4.45-17.39-34.21-42.54c-20-16.92-28.95-20.54-40.34-10.46s-9.15,16.63-5,23,20.91,18.49,34.73,24.66,27.83,14.75,35.67,14" style="fill:#fff"></path><g style="clip-path:url(#freepik--clip-path-9--inject-2)"><path d="M266.68,330.41c-4.05-.4,3.23,7.69-5.26,5.66s-38-27.08-44.07-35.17c-5-6.66-.67-12.21,1-14a29.79,29.79,0,0,0-4,3c-11.39,10.09-9.15,16.62-5,23s20.91,18.49,34.73,24.66,27.83,14.75,35.67,14l3.73-3.5c-.67-1.9-2.39-3.85-4.24-5.94C276,338.5,270.72,330.82,266.68,330.41Z" style="fill:#F59E0B"></path><path d="M266.68,330.41c-4.05-.4,3.23,7.69-5.26,5.66s-38-27.08-44.07-35.17c-5-6.66-.67-12.21,1-14a29.79,29.79,0,0,0-4,3c-11.39,10.09-9.15,16.62-5,23s20.91,18.49,34.73,24.66,27.83,14.75,35.67,14l3.73-3.5c-.67-1.9-2.39-3.85-4.24-5.94C276,338.5,270.72,330.82,266.68,330.41Z" style="fill:#fff;opacity:0.5"></path></g><path d="M288.91,343s-4.45-17.39-34.21-42.54c-20-16.92-28.95-20.54-40.34-10.46s-9.15,16.63-5,23,20.91,18.49,34.73,24.66,27.83,14.75,35.67,14" style="fill:none;stroke:#263238;stroke-linecap:round;stroke-miterlimit:10"></path><path d="M243.12,359.43c-1.89-4.17-1.43-8.86-.52-12.48-.95.52-1.9,1.06-2.84,1.64C231,354,216.41,362.6,209.88,363s-8.59-1.68-12.51-3.17-6,3.36-6,6.16,0,4.11-1.87,6.73S182.8,385,182.8,385s-2.62,10.46,0,10.83,4.29-3.17,9.71-7.65,14-14.2,21.66-14.94a376.89,376.89,0,0,0,38.18-5.61A16.2,16.2,0,0,1,243.12,359.43Z" style="fill:#F59E0B"></path><g style="clip-path:url(#freepik--clip-path-10--inject-2)"><path d="M243.12,359.43c-1.89-4.17-1.43-8.86-.52-12.48-.95.52-1.9,1.06-2.84,1.64C231,354,216.41,362.6,209.88,363s-8.59-1.68-12.51-3.17-6,3.36-6,6.16,0,4.11-1.87,6.73S182.8,385,182.8,385s-2.62,10.46,0,10.83,4.29-3.17,9.71-7.65,14-14.2,21.66-14.94a376.89,376.89,0,0,0,38.18-5.61A16.2,16.2,0,0,1,243.12,359.43Z" style="opacity:0.2"></path></g><path d="M243.12,359.43c-1.89-4.17-1.43-8.86-.52-12.48-.95.52-1.9,1.06-2.84,1.64C231,354,216.41,362.6,209.88,363s-8.59-1.68-12.51-3.17-6,3.36-6,6.16,0,4.11-1.87,6.73S182.8,385,182.8,385s-2.62,10.46,0,10.83,4.29-3.17,9.71-7.65,14-14.2,21.66-14.94a376.89,376.89,0,0,0,38.18-5.61A16.2,16.2,0,0,1,243.12,359.43Z" style="fill:none;stroke:#263238;stroke-linecap:round;stroke-linejoin:round"></path><path d="M210.71,310.43s40.85,26.14,52.83,30.5,9.26-3.82,9.26-3.82" style="fill:none;stroke:#263238;stroke-linecap:round;stroke-linejoin:round"></path><path d="M247.2,361.62s11.44,1.09,19.06-6" style="fill:none;stroke:#263238;stroke-linecap:round;stroke-linejoin:round"></path><path d="M244.69,215.24s-14.48-9.47-31.24-7.47-36.66,19.14-49.56,33.8-70.25,94.62-70.25,94.62l-1.78-13.07a23.61,23.61,0,0,1,4.53-17.36l9.11-12.13s.91-14.92,9-22.58a116.32,116.32,0,0,1,17.43-13.45c2.09-1.44,23-22.39,37.75-37.37s32.65-25.71,48.87-21.17,22.72,8,26.5,11.34,3.91,3,3.91,3Z" style="fill:#F59E0B;stroke:#263238;stroke-linecap:round;stroke-miterlimit:10"></path><line x1="146.39" y1="250.78" x2="149.76" y2="246.99" style="fill:none;stroke:#263238;stroke-linecap:round;stroke-miterlimit:10"></line><line x1="105.5" y1="293.63" x2="145" y2="252.08" style="fill:none;stroke:#263238;stroke-linecap:round;stroke-miterlimit:10"></line><path d="M201.55,205.55c-1.06.42-2.12.89-3.19,1.44" style="fill:none;stroke:#263238;stroke-linecap:round;stroke-miterlimit:10"></path><path d="M246.51,214.83s-20.43-16.43-41.8-10.34" style="fill:none;stroke:#263238;stroke-linecap:round;stroke-miterlimit:10"></path><path d="M211,332.91s1.68-3.18.56-4.67-2.06-1.68-4.11-3.55-3.17-2.43-5.6-2.43-5,.19-5,.19-3.74-1.5-3.74-12.33a67,67,0,0,1,3.26-19.68,25.34,25.34,0,0,1-10.73,3.44,13.52,13.52,0,0,1-12.06-5.05A96.84,96.84,0,0,0,177,306.2c4.11,13.63,6.91,19.61,8,22s10.83,14.75,12.51,15.13,3.36.74,4.67,0,11-3,10.65-5.79a7.37,7.37,0,0,0-1.5-4.11Z" style="fill:#F59E0B"></path><g style="clip-path:url(#freepik--clip-path-11--inject-2)"><path d="M212.87,337.58h0c0-.3-.09-.57-.14-.82,0-.08,0-.16,0-.24s-.08-.36-.12-.52-.08-.27-.11-.39c-3.58.45-10.13,2.74-11.89,2.74-1.92,0-3.85-2.89-6.74-6.11s-7.39-11.56-8-21.84c-.39-6.16,1.07-12.08,2.3-16.89-.8.16-1.62.28-2.5.37a13.52,13.52,0,0,1-12.06-5.05c0,.26.06.53.09.79.05.46.11.92.17,1.4,0,.31.09.64.13,1s.13.86.19,1.3.11.67.16,1,.15.88.23,1.32l.18,1L175,298l.21,1c.1.47.21.95.32,1.43.07.32.14.64.22.95.13.54.27,1.08.41,1.61.06.27.13.54.2.8.22.81.45,1.62.69,2.42,4.11,13.63,6.91,19.61,8,22a4.94,4.94,0,0,0,.31.56c.2.34.46.75.78,1.22.53.78,1.21,1.71,2,2.73l.47.61c3.32,4.37,7.88,9.76,9,10,1.68.37,3.36.74,4.67,0a11.33,11.33,0,0,1,1.5-.58l.77-.25C207.75,341.46,213.15,339.68,212.87,337.58Z" style="opacity:0.2"></path><path d="M209.93,329.58l-2.35,1.95s1.74-.12,3.79,1.94" style="fill:none;stroke:#263238;stroke-linecap:round;stroke-linejoin:round"></path></g><path d="M211,332.91s1.68-3.18.56-4.67-2.06-1.68-4.11-3.55-3.17-2.43-5.6-2.43-5,.19-5,.19-3.74-1.5-3.74-12.33a67,67,0,0,1,3.26-19.68,25.34,25.34,0,0,1-10.73,3.44,13.52,13.52,0,0,1-12.06-5.05A96.84,96.84,0,0,0,177,306.2c4.11,13.63,6.91,19.61,8,22s10.83,14.75,12.51,15.13,3.36.74,4.67,0,11-3,10.65-5.79a7.37,7.37,0,0,0-1.5-4.11Z" style="fill:none;stroke:#263238;stroke-linecap:round;stroke-linejoin:round"></path></g><g id="freepik--speed-lines--inject-2"><line x1="356.84" y1="137.96" x2="324.64" y2="168.19" style="fill:none;stroke:#263238;stroke-linecap:round;stroke-linejoin:round"></line><line x1="321.62" y1="171.02" x2="316.4" y2="175.92" style="fill:none;stroke:#263238;stroke-linecap:round;stroke-linejoin:round"></line><line x1="123.55" y1="329.48" x2="117.93" y2="334.76" style="fill:none;stroke:#263238;stroke-linecap:round;stroke-linejoin:round"></line><line x1="165.13" y1="290.46" x2="128.07" y2="325.24" style="fill:none;stroke:#263238;stroke-linecap:round;stroke-linejoin:round"></line><line x1="200" y1="398.68" x2="196.28" y2="402.17" style="fill:none;stroke:#263238;stroke-linecap:round;stroke-linejoin:round"></line><line x1="223.22" y1="376.88" x2="203.76" y2="395.14" style="fill:none;stroke:#263238;stroke-linecap:round;stroke-linejoin:round"></line><line x1="65.77" y1="346.52" x2="61.28" y2="350.74" style="fill:none;stroke:#263238;stroke-linecap:round;stroke-linejoin:round"></line><line x1="108.49" y1="306.44" x2="71.79" y2="340.88" style="fill:none;stroke:#263238;stroke-linecap:round;stroke-linejoin:round"></line><line x1="173.66" y1="203.12" x2="168.03" y2="208.4" style="fill:none;stroke:#263238;stroke-linecap:round;stroke-linejoin:round"></line><line x1="215.24" y1="164.1" x2="178.54" y2="198.55" style="fill:none;stroke:#263238;stroke-linecap:round;stroke-linejoin:round"></line><line x1="348.86" y1="153.21" x2="301.65" y2="197.51" style="fill:none;stroke:#263238;stroke-linecap:round;stroke-linejoin:round"></line></g><g id="freepik--Clouds--inject-2"><path d="M418.21,258.85c-6.81-3.71-9.9-.62-12.37-3.71S412.64,244,394.08,236c0,0-1.24-17.33-26.61-18s-18.56,17.33-25.37,21.66-8.66-2.48-15.47,1.86-3.71,13-9.28,14.23-13-5.57-19.8-1.24-6.81,8-9.9,8-9.28-2.47-13,0-8.05,5.57-8.05,5.57H423.16S425,262.56,418.21,258.85Z" style="fill:#fff"></path><path d="M191.4,158.71c-2.63-1.43-3.82-.24-4.78-1.43s2.63-4.3-4.53-7.4c0,0-.48-6.69-10.27-6.93s-7.16,6.69-9.79,8.36-3.34-1-6,.71-1.43,5-3.58,5.5-5-2.15-7.64-.48-2.63,3.1-3.82,3.1-3.58-.95-5,0-3.1,2.15-3.1,2.15h60.41S194,160.14,191.4,158.71Z" style="fill:#fff"></path></g></svg>