<svg xmlns="http://www.w3.org/2000/svg" xmlns:xlink="http://www.w3.org/1999/xlink" width="500" zoomAndPan="magnify" viewBox="0 0 375 374.999991" height="500" preserveAspectRatio="xMidYMid meet" version="1.0"><path fill="#78c2b0" d="M 7.8125 7.8125 L 367.1875 7.8125 L 367.1875 85.9375 L 7.8125 85.9375 Z M 7.8125 7.8125 " fill-opacity="1" fill-rule="nonzero"/><path fill="#f3c455" d="M 7.8125 85.9375 L 367.1875 85.9375 L 367.1875 367.1875 L 7.8125 367.1875 Z M 7.8125 85.9375 " fill-opacity="1" fill-rule="nonzero"/><path fill="#ea7e23" d="M 109.375 156.25 C 109.375 157.273438 109.324219 158.292969 109.222656 159.3125 C 109.125 160.332031 108.972656 161.34375 108.773438 162.347656 C 108.574219 163.351562 108.328125 164.34375 108.03125 165.320312 C 107.730469 166.300781 107.386719 167.261719 106.996094 168.207031 C 106.605469 169.15625 106.167969 170.078125 105.683594 170.980469 C 105.203125 171.882812 104.675781 172.761719 104.109375 173.613281 C 103.539062 174.460938 102.929688 175.285156 102.28125 176.074219 C 101.632812 176.867188 100.945312 177.625 100.222656 178.347656 C 99.5 179.070312 98.742188 179.757812 97.949219 180.40625 C 97.160156 181.054688 96.335938 181.664062 95.488281 182.234375 C 94.636719 182.800781 93.757812 183.328125 92.855469 183.808594 C 91.953125 184.292969 91.03125 184.730469 90.082031 185.121094 C 89.136719 185.511719 88.175781 185.855469 87.195312 186.15625 C 86.21875 186.453125 85.226562 186.699219 84.222656 186.898438 C 83.21875 187.097656 82.207031 187.25 81.1875 187.347656 C 80.167969 187.449219 79.148438 187.5 78.125 187.5 C 77.101562 187.5 76.082031 187.449219 75.0625 187.347656 C 74.042969 187.25 73.03125 187.097656 72.027344 186.898438 C 71.023438 186.699219 70.03125 186.453125 69.054688 186.15625 C 68.074219 185.855469 67.113281 185.511719 66.167969 185.121094 C 65.21875 184.730469 64.296875 184.292969 63.394531 183.808594 C 62.492188 183.328125 61.613281 182.800781 60.761719 182.234375 C 59.914062 181.664062 59.089844 181.054688 58.300781 180.40625 C 57.507812 179.757812 56.75 179.070312 56.027344 178.347656 C 55.304688 177.625 54.617188 176.867188 53.96875 176.074219 C 53.320312 175.285156 52.710938 174.460938 52.140625 173.613281 C 51.574219 172.761719 51.046875 171.882812 50.566406 170.980469 C 50.082031 170.078125 49.644531 169.15625 49.253906 168.207031 C 48.863281 167.261719 48.519531 166.300781 48.21875 165.320312 C 47.921875 164.34375 47.675781 163.351562 47.476562 162.347656 C 47.277344 161.34375 47.125 160.332031 47.027344 159.3125 C 46.925781 158.292969 46.875 157.273438 46.875 156.25 C 46.875 155.226562 46.925781 154.207031 47.027344 153.1875 C 47.125 152.167969 47.277344 151.15625 47.476562 150.152344 C 47.675781 149.148438 47.921875 148.15625 48.21875 147.179688 C 48.519531 146.199219 48.863281 145.238281 49.253906 144.292969 C 49.644531 143.34375 50.082031 142.421875 50.566406 141.519531 C 51.046875 140.617188 51.574219 139.738281 52.140625 138.886719 C 52.710938 138.039062 53.320312 137.214844 53.96875 136.425781 C 54.617188 135.632812 55.304688 134.875 56.027344 134.152344 C 56.75 133.429688 57.507812 132.742188 58.300781 132.09375 C 59.089844 131.445312 59.914062 130.835938 60.761719 130.265625 C 61.613281 129.699219 62.492188 129.171875 63.394531 128.691406 C 64.296875 128.207031 65.21875 127.769531 66.167969 127.378906 C 67.113281 126.988281 68.074219 126.644531 69.054688 126.34375 C 70.03125 126.046875 71.023438 125.800781 72.027344 125.601562 C 73.03125 125.402344 74.042969 125.25 75.0625 125.152344 C 76.082031 125.050781 77.101562 125 78.125 125 C 79.148438 125 80.167969 125.050781 81.1875 125.152344 C 82.207031 125.25 83.21875 125.402344 84.222656 125.601562 C 85.226562 125.800781 86.21875 126.046875 87.195312 126.34375 C 88.175781 126.644531 89.136719 126.988281 90.082031 127.378906 C 91.03125 127.769531 91.953125 128.207031 92.855469 128.691406 C 93.757812 129.171875 94.636719 129.699219 95.488281 130.265625 C 96.335938 130.835938 97.160156 131.445312 97.949219 132.09375 C 98.742188 132.742188 99.5 133.429688 100.222656 134.152344 C 100.945312 134.875 101.632812 135.632812 102.28125 136.425781 C 102.929688 137.214844 103.539062 138.039062 104.109375 138.886719 C 104.675781 139.738281 105.203125 140.617188 105.683594 141.519531 C 106.167969 142.421875 106.605469 143.34375 106.996094 144.292969 C 107.386719 145.238281 107.730469 146.199219 108.03125 147.179688 C 108.328125 148.15625 108.574219 149.148438 108.773438 150.152344 C 108.972656 151.15625 109.125 152.167969 109.222656 153.1875 C 109.324219 154.207031 109.375 155.226562 109.375 156.25 Z M 109.375 156.25 " fill-opacity="1" fill-rule="nonzero"/><path fill="#112d4e" d="M 367.1875 375 L 7.8125 375 C 3.496094 375 0 371.5 0 367.1875 L 0 85.9375 C 0 81.621094 3.496094 78.125 7.8125 78.125 C 12.128906 78.125 15.625 81.621094 15.625 85.9375 L 15.625 359.375 L 359.375 359.375 L 359.375 85.9375 C 359.375 81.621094 362.875 78.125 367.1875 78.125 C 371.5 78.125 375 81.621094 375 85.9375 L 375 367.1875 C 375 371.5 371.5 375 367.1875 375 Z M 367.1875 375 " fill-opacity="1" fill-rule="nonzero"/><path fill="#112d4e" d="M 367.1875 93.75 L 7.8125 93.75 C 3.496094 93.75 0 90.253906 0 85.9375 L 0 7.8125 C 0 3.496094 3.496094 0 7.8125 0 L 367.1875 0 C 371.5 0 375 3.496094 375 7.8125 L 375 85.9375 C 375 90.253906 371.5 93.75 367.1875 93.75 Z M 15.625 78.125 L 359.375 78.125 L 359.375 15.625 L 15.625 15.625 Z M 15.625 78.125 " fill-opacity="1" fill-rule="nonzero"/><path fill="#112d4e" d="M 335.9375 54.6875 L 187.5 54.6875 C 183.183594 54.6875 179.6875 51.191406 179.6875 46.875 C 179.6875 42.558594 183.183594 39.0625 187.5 39.0625 L 335.9375 39.0625 C 340.25 39.0625 343.75 42.558594 343.75 46.875 C 343.75 51.191406 340.25 54.6875 335.9375 54.6875 Z M 335.9375 54.6875 " fill-opacity="1" fill-rule="nonzero"/><path fill="#112d4e" d="M 46.875 54.6875 L 39.0625 54.6875 C 34.746094 54.6875 31.25 51.191406 31.25 46.875 C 31.25 42.558594 34.746094 39.0625 39.0625 39.0625 L 46.875 39.0625 C 51.191406 39.0625 54.6875 42.558594 54.6875 46.875 C 54.6875 51.191406 51.191406 54.6875 46.875 54.6875 Z M 46.875 54.6875 " fill-opacity="1" fill-rule="nonzero"/><path fill="#112d4e" d="M 85.9375 54.6875 L 78.125 54.6875 C 73.808594 54.6875 70.3125 51.191406 70.3125 46.875 C 70.3125 42.558594 73.808594 39.0625 78.125 39.0625 L 85.9375 39.0625 C 90.253906 39.0625 93.75 42.558594 93.75 46.875 C 93.75 51.191406 90.253906 54.6875 85.9375 54.6875 Z M 85.9375 54.6875 " fill-opacity="1" fill-rule="nonzero"/><path fill="#112d4e" d="M 78.125 195.3125 C 56.585938 195.3125 39.0625 177.789062 39.0625 156.25 C 39.0625 134.710938 56.585938 117.1875 78.125 117.1875 C 99.664062 117.1875 117.1875 134.710938 117.1875 156.25 C 117.1875 177.789062 99.664062 195.3125 78.125 195.3125 Z M 78.125 132.8125 C 65.203125 132.8125 54.6875 143.328125 54.6875 156.25 C 54.6875 169.171875 65.203125 179.6875 78.125 179.6875 C 91.046875 179.6875 101.5625 169.171875 101.5625 156.25 C 101.5625 143.328125 91.046875 132.8125 78.125 132.8125 Z M 78.125 132.8125 " fill-opacity="1" fill-rule="nonzero"/><path fill="#112d4e" d="M 328.125 132.8125 L 273.4375 132.8125 C 269.125 132.8125 265.625 129.316406 265.625 125 C 265.625 120.683594 269.125 117.1875 273.4375 117.1875 L 328.125 117.1875 C 332.4375 117.1875 335.9375 120.683594 335.9375 125 C 335.9375 129.316406 332.4375 132.8125 328.125 132.8125 Z M 328.125 132.8125 " fill-opacity="1" fill-rule="nonzero"/><path fill="#112d4e" d="M 328.125 164.0625 L 273.4375 164.0625 C 269.125 164.0625 265.625 160.566406 265.625 156.25 C 265.625 151.933594 269.125 148.4375 273.4375 148.4375 L 328.125 148.4375 C 332.4375 148.4375 335.9375 151.933594 335.9375 156.25 C 335.9375 160.566406 332.4375 164.0625 328.125 164.0625 Z M 328.125 164.0625 " fill-opacity="1" fill-rule="nonzero"/><path fill="#112d4e" d="M 328.125 195.3125 L 273.4375 195.3125 C 269.125 195.3125 265.625 191.8125 265.625 187.5 C 265.625 183.183594 269.125 179.6875 273.4375 179.6875 L 328.125 179.6875 C 332.4375 179.6875 335.9375 183.183594 335.9375 187.5 C 335.9375 191.8125 332.4375 195.3125 328.125 195.3125 Z M 328.125 195.3125 " fill-opacity="1" fill-rule="nonzero"/><path fill="#112d4e" d="M 328.125 242.1875 L 54.6875 242.1875 C 50.371094 242.1875 46.875 238.6875 46.875 234.375 C 46.875 230.0625 50.371094 226.5625 54.6875 226.5625 L 328.125 226.5625 C 332.4375 226.5625 335.9375 230.0625 335.9375 234.375 C 335.9375 238.6875 332.4375 242.1875 328.125 242.1875 Z M 328.125 242.1875 " fill-opacity="1" fill-rule="nonzero"/><path fill="#112d4e" d="M 328.125 289.0625 L 54.6875 289.0625 C 50.371094 289.0625 46.875 285.5625 46.875 281.25 C 46.875 276.9375 50.371094 273.4375 54.6875 273.4375 L 328.125 273.4375 C 332.4375 273.4375 335.9375 276.9375 335.9375 281.25 C 335.9375 285.5625 332.4375 289.0625 328.125 289.0625 Z M 328.125 289.0625 " fill-opacity="1" fill-rule="nonzero"/><path fill="#112d4e" d="M 328.125 335.9375 L 54.6875 335.9375 C 50.371094 335.9375 46.875 332.4375 46.875 328.125 C 46.875 323.8125 50.371094 320.3125 54.6875 320.3125 L 328.125 320.3125 C 332.4375 320.3125 335.9375 323.8125 335.9375 328.125 C 335.9375 332.4375 332.4375 335.9375 328.125 335.9375 Z M 328.125 335.9375 " fill-opacity="1" fill-rule="nonzero"/></svg>