<svg xmlns="http://www.w3.org/2000/svg" xmlns:xlink="http://www.w3.org/1999/xlink" width="500" zoomAndPan="magnify" viewBox="0 0 375 374.999991" height="500" preserveAspectRatio="xMidYMid meet" version="1.0"><path fill="#f3c455" d="M 276.570312 75.671875 C 276.507812 75.488281 276.507812 75.246094 276.449219 75.0625 C 276.265625 74.695312 275.957031 74.386719 275.773438 74.019531 C 275.53125 73.714844 275.347656 73.347656 275.039062 73.042969 C 274.980469 72.980469 274.980469 72.921875 274.917969 72.921875 L 203.894531 1.773438 C 202.734375 0.671875 201.140625 0 199.488281 0 L 33.035156 0 C 16.148438 0 2.445312 13.703125 2.445312 30.585938 L 2.445312 324.226562 C 2.445312 341.109375 16.148438 354.8125 33.035156 354.8125 L 246.351562 354.8125 C 263.234375 354.8125 276.9375 341.109375 276.9375 324.226562 L 276.9375 77.570312 C 276.9375 77.507812 276.9375 77.445312 276.9375 77.445312 C 277 76.835938 276.753906 76.222656 276.570312 75.671875 Z M 276.570312 75.671875 " fill-opacity="1" fill-rule="nonzero"/><path fill="#2d5485" d="M 347.105469 310.214844 C 346.429688 309.542969 345.757812 308.929688 344.964844 308.320312 L 272.289062 247.574219 C 272.226562 247.511719 272.164062 247.511719 272.105469 247.449219 C 272.042969 247.390625 272.042969 247.390625 271.980469 247.328125 C 271.796875 247.207031 271.554688 247.144531 271.371094 247.023438 C 270.882812 246.777344 270.390625 246.472656 269.902344 246.351562 C 269.71875 246.289062 269.597656 246.351562 269.414062 246.289062 C 268.800781 246.167969 268.1875 246.105469 267.515625 246.226562 C 267.394531 246.226562 267.332031 246.289062 267.210938 246.289062 C 266.539062 246.410156 265.925781 246.65625 265.3125 246.960938 C 265.191406 247.023438 265.128906 247.082031 265.070312 247.144531 C 264.578125 247.449219 264.089844 247.757812 263.722656 248.246094 C 263.664062 248.367188 263.601562 248.492188 263.539062 248.550781 C 263.539062 248.550781 263.480469 248.550781 263.480469 248.613281 C 261.335938 251.550781 258.890625 254.484375 256.078125 257.300781 C 253.386719 260.054688 250.386719 262.5625 247.144531 264.824219 C 247.023438 264.886719 247.023438 265.007812 246.902344 265.070312 C 246.839844 265.128906 246.777344 265.128906 246.71875 265.191406 C 246.535156 265.375 246.410156 265.558594 246.289062 265.742188 C 245.921875 266.109375 245.617188 266.476562 245.371094 266.90625 C 245.25 267.148438 245.125 267.457031 245.066406 267.761719 C 244.882812 268.1875 244.757812 268.679688 244.699219 269.105469 C 244.636719 269.414062 244.699219 269.71875 244.699219 270.085938 C 244.699219 270.515625 244.699219 271.003906 244.820312 271.429688 C 244.882812 271.796875 245.125 272.105469 245.25 272.410156 C 245.371094 272.714844 245.433594 273.082031 245.675781 273.328125 C 245.738281 273.390625 245.800781 273.449219 245.859375 273.511719 C 245.921875 273.574219 245.921875 273.695312 245.984375 273.757812 L 306.667969 346.371094 C 311.5 352.367188 318.65625 356.035156 326.304688 356.464844 C 326.792969 356.464844 327.285156 356.523438 327.773438 356.523438 C 334.929688 356.523438 341.90625 353.648438 346.980469 348.574219 C 357.625 338.050781 357.625 320.800781 347.105469 310.214844 Z M 347.105469 310.214844 " fill-opacity="1" fill-rule="nonzero"/><path fill="#dbd8dd" d="M 276.632812 76.039062 C 276.570312 75.734375 276.570312 75.367188 276.386719 75.0625 C 276.265625 74.753906 276.019531 74.511719 275.835938 74.265625 C 275.589844 73.835938 275.285156 73.410156 274.980469 73.042969 C 274.917969 72.980469 274.917969 72.980469 274.917969 72.921875 L 203.894531 1.773438 C 202.734375 0.671875 201.203125 0 199.550781 0 L 199.488281 0 C 197.714844 0 196.125 0.796875 195.023438 2.078125 C 194.046875 3.121094 193.371094 4.527344 193.371094 6.117188 L 193.371094 77.445312 C 193.371094 80.8125 196.125 83.5625 199.488281 83.5625 L 270.757812 83.5625 C 270.757812 83.5625 270.820312 83.5625 270.820312 83.5625 C 274.183594 83.5625 276.9375 80.8125 276.9375 77.445312 C 277 76.957031 276.753906 76.46875 276.632812 76.039062 Z M 276.632812 76.039062 " fill-opacity="1" fill-rule="nonzero"/><path fill="#dbd8dd" d="M 56.890625 119.230469 L 139.660156 119.230469 C 143.027344 119.230469 145.777344 116.476562 145.777344 113.113281 C 145.777344 109.746094 143.027344 106.996094 139.660156 106.996094 L 56.890625 106.996094 C 53.527344 106.996094 50.773438 109.746094 50.773438 113.113281 C 50.773438 116.476562 53.527344 119.230469 56.890625 119.230469 Z M 56.890625 119.230469 " fill-opacity="1" fill-rule="nonzero"/><path fill="#dbd8dd" d="M 56.890625 159.972656 L 152.753906 159.972656 C 156.117188 159.972656 158.871094 157.21875 158.871094 153.855469 C 158.871094 150.488281 156.117188 147.738281 152.753906 147.738281 L 56.890625 147.738281 C 53.527344 147.738281 50.773438 150.488281 50.773438 153.855469 C 50.773438 157.21875 53.527344 159.972656 56.890625 159.972656 Z M 56.890625 159.972656 " fill-opacity="1" fill-rule="nonzero"/><path fill="#dbd8dd" d="M 56.890625 200.714844 L 131.464844 200.714844 C 134.828125 200.714844 137.582031 197.960938 137.582031 194.597656 C 137.582031 191.230469 134.828125 188.480469 131.464844 188.480469 L 56.890625 188.480469 C 53.527344 188.480469 50.773438 191.230469 50.773438 194.597656 C 50.773438 197.960938 53.527344 200.714844 56.890625 200.714844 Z M 56.890625 200.714844 " fill-opacity="1" fill-rule="nonzero"/><path fill="#dbd8dd" d="M 56.890625 241.394531 L 135.441406 241.394531 C 138.804688 241.394531 141.558594 238.640625 141.558594 235.277344 C 141.558594 231.914062 138.804688 229.160156 135.441406 229.160156 L 56.890625 229.160156 C 53.527344 229.160156 50.773438 231.914062 50.773438 235.277344 C 50.773438 238.640625 53.527344 241.394531 56.890625 241.394531 Z M 56.890625 241.394531 " fill-opacity="1" fill-rule="nonzero"/><path fill="#dbd8dd" d="M 172.390625 269.902344 L 56.890625 269.902344 C 53.527344 269.902344 50.773438 272.65625 50.773438 276.019531 C 50.773438 279.382812 53.527344 282.136719 56.890625 282.136719 L 172.390625 282.136719 C 175.753906 282.136719 178.507812 279.382812 178.507812 276.019531 C 178.507812 272.65625 175.753906 269.902344 172.390625 269.902344 Z M 172.390625 269.902344 " fill-opacity="1" fill-rule="nonzero"/><path fill="#78c2b0" d="M 264.703125 149.632812 C 249.164062 134.09375 228.488281 125.53125 206.464844 125.53125 C 184.503906 125.53125 163.824219 134.09375 148.226562 149.632812 C 116.109375 181.75 116.109375 233.929688 148.226562 266.046875 C 164.253906 282.074219 185.359375 290.152344 206.464844 290.152344 C 227.570312 290.152344 248.613281 282.136719 264.703125 266.046875 C 296.820312 233.929688 296.820312 181.6875 264.703125 149.632812 Z M 264.703125 149.632812 " fill-opacity="1" fill-rule="nonzero"/><path fill="#112d4e" d="M 347.105469 310.214844 C 346.429688 309.542969 345.757812 308.929688 344.964844 308.320312 L 276.449219 251.058594 C 292.597656 224.878906 292.78125 191.660156 276.9375 165.355469 L 276.9375 77.570312 C 276.9375 77.507812 276.9375 77.445312 276.9375 77.445312 C 276.9375 77.261719 276.816406 77.078125 276.816406 76.835938 C 276.816406 76.710938 276.753906 76.53125 276.753906 76.46875 C 276.507812 75.0625 275.957031 73.777344 274.917969 72.859375 L 203.894531 1.773438 C 202.734375 0.671875 201.140625 0 199.488281 0 L 33.035156 0 C 16.148438 0 2.445312 13.703125 2.445312 30.585938 L 2.445312 324.226562 C 2.445312 341.109375 16.148438 354.8125 33.035156 354.8125 L 246.351562 354.8125 C 263.234375 354.8125 276.9375 341.109375 276.9375 324.226562 L 276.9375 310.949219 L 306.667969 346.492188 C 331.445312 375 372.675781 337.929688 347.105469 310.214844 Z M 256.078125 257.359375 C 242.863281 270.574219 225.246094 277.914062 206.523438 277.914062 C 187.804688 277.914062 170.1875 270.636719 156.972656 257.359375 C 129.628906 230.015625 129.628906 185.542969 156.972656 158.257812 C 170.1875 145.042969 187.804688 137.703125 206.523438 137.703125 C 225.246094 137.703125 242.863281 144.984375 256.078125 158.257812 C 269.289062 171.535156 276.632812 189.089844 276.632812 207.808594 C 276.570312 226.53125 269.289062 244.148438 256.078125 257.359375 Z M 205.609375 20.859375 L 256.015625 71.328125 L 205.609375 71.328125 Z M 264.703125 324.226562 C 264.703125 334.320312 256.445312 342.578125 246.351562 342.578125 L 33.035156 342.578125 C 22.941406 342.578125 14.683594 334.320312 14.683594 324.226562 L 14.683594 30.585938 C 14.683594 20.492188 22.941406 12.234375 33.035156 12.234375 L 193.371094 12.234375 L 193.371094 77.445312 C 193.371094 80.8125 196.125 83.5625 199.488281 83.5625 L 264.703125 83.5625 L 264.703125 149.632812 C 249.164062 134.09375 228.488281 125.53125 206.523438 125.53125 C 185.480469 125.53125 165.660156 133.421875 150.367188 147.738281 L 56.890625 147.738281 C 53.527344 147.738281 50.773438 150.488281 50.773438 153.855469 C 50.773438 157.21875 53.527344 159.972656 56.890625 159.972656 L 139.660156 159.972656 C 133.421875 168.71875 129.078125 178.386719 126.632812 188.480469 L 56.890625 188.480469 C 53.527344 188.480469 50.773438 191.230469 50.773438 194.597656 C 50.773438 197.960938 53.527344 200.714844 56.890625 200.714844 L 124.550781 200.714844 C 123.757812 210.257812 124.613281 219.859375 127.058594 229.160156 L 56.890625 229.160156 C 53.527344 229.160156 50.773438 231.914062 50.773438 235.277344 C 50.773438 238.640625 53.527344 241.394531 56.890625 241.394531 L 131.464844 241.394531 C 135.441406 250.328125 141.007812 258.707031 148.347656 266.046875 C 149.695312 267.394531 151.164062 268.679688 152.628906 269.902344 L 56.890625 269.902344 C 53.527344 269.902344 50.773438 272.65625 50.773438 276.019531 C 50.773438 279.382812 53.527344 282.136719 56.890625 282.136719 L 171.289062 282.136719 C 182.421875 287.398438 194.414062 290.089844 206.523438 290.089844 C 221.453125 290.089844 236.257812 285.992188 249.410156 277.976562 L 264.703125 296.269531 Z M 338.355469 340.007812 C 332.359375 346.246094 321.410156 345.699219 316.089844 338.722656 L 259.378906 270.882812 C 261.214844 269.351562 267.820312 262.746094 269.289062 261.03125 L 337.070312 317.679688 C 344.046875 323.125 344.71875 333.707031 338.355469 340.007812 Z M 338.355469 340.007812 " fill-opacity="1" fill-rule="nonzero"/><path fill="#112d4e" d="M 56.890625 119.230469 L 139.660156 119.230469 C 143.027344 119.230469 145.777344 116.476562 145.777344 113.113281 C 145.777344 109.746094 143.027344 106.996094 139.660156 106.996094 L 56.890625 106.996094 C 53.527344 106.996094 50.773438 109.746094 50.773438 113.113281 C 50.773438 116.476562 53.527344 119.230469 56.890625 119.230469 Z M 56.890625 119.230469 " fill-opacity="1" fill-rule="nonzero"/></svg>