<svg xmlns="http://www.w3.org/2000/svg" xmlns:xlink="http://www.w3.org/1999/xlink" width="500" zoomAndPan="magnify" viewBox="0 0 375 374.999991" height="500" preserveAspectRatio="xMidYMid meet" version="1.0"><defs><clipPath id="e34f0a4f2b"><path d="M 0 0 L 116.996094 0 L 116.996094 375 L 0 375 Z M 0 0 " clip-rule="nonzero"/></clipPath><clipPath id="afb6f76e56"><path d="M 129.207031 0 L 247 0 L 247 375 L 129.207031 375 Z M 129.207031 0 " clip-rule="nonzero"/></clipPath></defs><g clip-path="url(#e34f0a4f2b)"><path fill="#181818" d="M 7.8125 0 L 116.816406 0 L 116.816406 375.042969 L 0 375.042969 L 0 0 Z M 101.191406 15.625 L 15.625 15.625 L 15.625 359.414062 L 101.191406 359.414062 L 101.191406 15.625 " fill-opacity="1" fill-rule="nonzero"/></g><g clip-path="url(#afb6f76e56)"><path fill="#181818" d="M 137.429688 0 L 246.4375 0 L 246.4375 375.042969 L 129.617188 375.042969 L 129.617188 0 Z M 230.808594 15.625 L 145.246094 15.625 L 145.246094 359.414062 L 230.808594 359.414062 L 230.808594 15.625 " fill-opacity="1" fill-rule="nonzero"/></g><path fill="#181818" d="M 266.035156 0 L 375.042969 0 L 375.042969 375.042969 L 258.222656 375.042969 L 258.222656 0 Z M 359.414062 15.625 L 273.847656 15.625 L 273.847656 359.414062 L 359.414062 359.414062 L 359.414062 15.625 " fill-opacity="1" fill-rule="nonzero"/><path fill="#181818" d="M 58.410156 226.585938 C 68.121094 226.585938 76.90625 230.523438 83.269531 236.886719 C 89.636719 243.25 93.570312 252.039062 93.570312 261.746094 C 93.570312 271.453125 89.636719 280.246094 83.269531 286.609375 C 76.90625 292.972656 68.121094 296.90625 58.410156 296.90625 C 48.703125 296.90625 39.910156 292.972656 33.550781 286.609375 C 27.1875 280.246094 23.25 271.453125 23.25 261.746094 C 23.25 252.039062 27.1875 243.25 33.550781 236.886719 C 39.910156 230.523438 48.703125 226.585938 58.410156 226.585938 Z M 72.222656 247.933594 C 68.6875 244.402344 63.804688 242.210938 58.410156 242.210938 C 53.015625 242.210938 48.128906 244.402344 44.597656 247.933594 C 41.0625 251.46875 38.878906 256.351562 38.878906 261.746094 C 38.878906 267.140625 41.0625 272.023438 44.597656 275.558594 C 48.128906 279.09375 53.015625 281.28125 58.410156 281.28125 C 63.804688 281.28125 68.6875 279.09375 72.222656 275.558594 C 75.757812 272.023438 77.945312 267.140625 77.945312 261.746094 C 77.945312 256.351562 75.757812 251.46875 72.222656 247.933594 " fill-opacity="1" fill-rule="nonzero"/><path fill="#181818" d="M 188.023438 226.585938 C 197.734375 226.585938 206.523438 230.523438 212.886719 236.886719 C 219.25 243.25 223.1875 252.039062 223.1875 261.746094 C 223.1875 271.453125 219.25 280.246094 212.886719 286.609375 C 206.523438 292.972656 197.734375 296.90625 188.023438 296.90625 C 178.316406 296.90625 169.53125 292.972656 163.167969 286.609375 C 156.804688 280.246094 152.867188 271.453125 152.867188 261.746094 C 152.867188 252.039062 156.804688 243.25 163.167969 236.886719 C 169.53125 230.523438 178.316406 226.585938 188.023438 226.585938 Z M 201.839844 247.933594 C 198.304688 244.402344 193.421875 242.210938 188.023438 242.210938 C 182.632812 242.210938 177.75 244.402344 174.214844 247.933594 C 170.679688 251.46875 168.492188 256.351562 168.492188 261.746094 C 168.492188 267.140625 170.679688 272.023438 174.214844 275.558594 C 177.75 279.09375 182.632812 281.28125 188.023438 281.28125 C 193.421875 281.28125 198.304688 279.09375 201.839844 275.558594 C 205.371094 272.023438 207.558594 267.140625 207.558594 261.746094 C 207.558594 256.351562 205.371094 251.46875 201.839844 247.933594 " fill-opacity="1" fill-rule="nonzero"/><path fill="#181818" d="M 316.628906 226.585938 C 326.339844 226.585938 335.128906 230.523438 341.492188 236.886719 C 347.855469 243.25 351.792969 252.039062 351.792969 261.746094 C 351.792969 271.453125 347.855469 280.246094 341.492188 286.609375 C 335.128906 292.972656 326.339844 296.90625 316.628906 296.90625 C 306.921875 296.90625 298.136719 292.972656 291.769531 286.609375 C 285.40625 280.246094 281.472656 271.453125 281.472656 261.746094 C 281.472656 252.039062 285.40625 243.25 291.769531 236.886719 C 298.136719 230.523438 306.921875 226.585938 316.628906 226.585938 Z M 330.445312 247.933594 C 326.910156 244.402344 322.027344 242.210938 316.628906 242.210938 C 311.238281 242.210938 306.351562 244.402344 302.820312 247.933594 C 299.285156 251.46875 297.097656 256.351562 297.097656 261.746094 C 297.097656 267.140625 299.285156 272.023438 302.820312 275.558594 C 306.351562 279.09375 311.238281 281.28125 316.628906 281.28125 C 322.027344 281.28125 326.910156 279.09375 330.445312 275.558594 C 333.976562 272.023438 336.164062 267.140625 336.164062 261.746094 C 336.164062 256.351562 333.976562 251.46875 330.445312 247.933594 " fill-opacity="1" fill-rule="nonzero"/><path fill="#181818" d="M 31.253906 62.507812 L 85.949219 62.507812 L 85.949219 78.132812 L 31.253906 78.132812 L 31.253906 62.507812 " fill-opacity="1" fill-rule="nonzero"/><path fill="#181818" d="M 31.253906 101.574219 L 85.949219 101.574219 L 85.949219 117.199219 L 31.253906 117.199219 L 31.253906 101.574219 " fill-opacity="1" fill-rule="nonzero"/><path fill="#181818" d="M 31.253906 140.636719 L 85.949219 140.636719 L 85.949219 156.269531 L 31.253906 156.269531 L 31.253906 140.636719 " fill-opacity="1" fill-rule="nonzero"/><path fill="#181818" d="M 160.679688 62.507812 L 215.375 62.507812 L 215.375 78.132812 L 160.679688 78.132812 L 160.679688 62.507812 " fill-opacity="1" fill-rule="nonzero"/><path fill="#181818" d="M 160.679688 101.574219 L 215.375 101.574219 L 215.375 117.199219 L 160.679688 117.199219 L 160.679688 101.574219 " fill-opacity="1" fill-rule="nonzero"/><path fill="#181818" d="M 160.679688 140.636719 L 215.375 140.636719 L 215.375 156.269531 L 160.679688 156.269531 L 160.679688 140.636719 " fill-opacity="1" fill-rule="nonzero"/><path fill="#181818" d="M 289.285156 62.507812 L 343.980469 62.507812 L 343.980469 78.132812 L 289.285156 78.132812 L 289.285156 62.507812 " fill-opacity="1" fill-rule="nonzero"/><path fill="#181818" d="M 289.285156 101.574219 L 343.980469 101.574219 L 343.980469 117.199219 L 289.285156 117.199219 L 289.285156 101.574219 " fill-opacity="1" fill-rule="nonzero"/><path fill="#181818" d="M 289.285156 140.636719 L 343.980469 140.636719 L 343.980469 156.269531 L 289.285156 156.269531 L 289.285156 140.636719 " fill-opacity="1" fill-rule="nonzero"/><path fill="#f3c455" d="M 85.949219 156.269531 L 31.253906 156.269531 L 31.253906 140.636719 L 85.949219 140.636719 Z M 85.949219 117.199219 L 31.253906 117.199219 L 31.253906 101.574219 L 85.949219 101.574219 Z M 85.949219 78.132812 L 31.253906 78.132812 L 31.253906 62.507812 L 85.949219 62.507812 Z M 101.191406 359.414062 L 101.191406 15.625 L 15.625 15.625 L 15.625 359.414062 Z M 58.410156 226.585938 C 68.121094 226.585938 76.90625 230.523438 83.269531 236.886719 C 89.636719 243.25 93.570312 252.039062 93.570312 261.746094 C 93.570312 271.453125 89.636719 280.246094 83.269531 286.609375 C 76.90625 292.972656 68.121094 296.90625 58.410156 296.90625 C 48.703125 296.90625 39.910156 292.972656 33.550781 286.609375 C 27.1875 280.246094 23.25 271.453125 23.25 261.746094 C 23.25 252.039062 27.1875 243.25 33.550781 236.886719 C 39.910156 230.523438 48.703125 226.585938 58.410156 226.585938 " fill-opacity="1" fill-rule="evenodd"/><path fill="#78c2b0" d="M 145.246094 15.625 L 145.246094 359.414062 L 230.808594 359.414062 L 230.808594 15.625 Z M 215.375 156.269531 L 160.679688 156.269531 L 160.679688 140.636719 L 215.375 140.636719 Z M 215.375 117.199219 L 160.679688 117.199219 L 160.679688 101.574219 L 215.375 101.574219 Z M 215.375 78.132812 L 160.679688 78.132812 L 160.679688 62.507812 L 215.375 62.507812 Z M 188.023438 226.585938 C 197.734375 226.585938 206.523438 230.523438 212.886719 236.886719 C 219.25 243.25 223.1875 252.039062 223.1875 261.746094 C 223.1875 271.453125 219.25 280.246094 212.886719 286.609375 C 206.523438 292.972656 197.734375 296.90625 188.023438 296.90625 C 178.316406 296.90625 169.53125 292.972656 163.167969 286.609375 C 156.804688 280.246094 152.867188 271.453125 152.867188 261.746094 C 152.867188 252.039062 156.804688 243.25 163.167969 236.886719 C 169.53125 230.523438 178.316406 226.585938 188.023438 226.585938 " fill-opacity="1" fill-rule="evenodd"/><path fill="#f19a7b" d="M 273.847656 15.625 L 273.847656 359.414062 L 359.414062 359.414062 L 359.414062 15.625 Z M 343.980469 156.269531 L 289.285156 156.269531 L 289.285156 140.636719 L 343.980469 140.636719 Z M 343.980469 117.199219 L 289.285156 117.199219 L 289.285156 101.574219 L 343.980469 101.574219 Z M 343.980469 78.132812 L 289.285156 78.132812 L 289.285156 62.507812 L 343.980469 62.507812 Z M 316.628906 226.585938 C 326.339844 226.585938 335.128906 230.523438 341.492188 236.886719 C 347.855469 243.25 351.792969 252.039062 351.792969 261.746094 C 351.792969 271.453125 347.855469 280.246094 341.492188 286.609375 C 335.128906 292.972656 326.339844 296.90625 316.628906 296.90625 C 306.921875 296.90625 298.136719 292.972656 291.769531 286.609375 C 285.40625 280.246094 281.472656 271.453125 281.472656 261.746094 C 281.472656 252.039062 285.40625 243.25 291.769531 236.886719 C 298.136719 230.523438 306.921875 226.585938 316.628906 226.585938 " fill-opacity="1" fill-rule="evenodd"/><path fill="#ffffff" d="M 77.945312 261.746094 C 77.945312 256.351562 75.757812 251.46875 72.222656 247.933594 C 68.6875 244.402344 63.804688 242.210938 58.410156 242.210938 C 53.015625 242.210938 48.128906 244.402344 44.597656 247.933594 C 41.0625 251.46875 38.878906 256.351562 38.878906 261.746094 C 38.878906 267.140625 41.0625 272.023438 44.597656 275.558594 C 48.128906 279.09375 53.015625 281.28125 58.410156 281.28125 C 63.804688 281.28125 68.6875 279.09375 72.222656 275.558594 C 75.757812 272.023438 77.945312 267.140625 77.945312 261.746094 " fill-opacity="1" fill-rule="evenodd"/><path fill="#ffffff" d="M 174.214844 247.933594 C 170.679688 251.46875 168.492188 256.351562 168.492188 261.746094 C 168.492188 267.140625 170.679688 272.023438 174.214844 275.558594 C 177.75 279.09375 182.632812 281.28125 188.023438 281.28125 C 193.421875 281.28125 198.304688 279.09375 201.839844 275.558594 C 205.371094 272.023438 207.558594 267.140625 207.558594 261.746094 C 207.558594 256.351562 205.371094 251.46875 201.839844 247.933594 C 198.304688 244.402344 193.421875 242.210938 188.023438 242.210938 C 182.632812 242.210938 177.75 244.402344 174.214844 247.933594 " fill-opacity="1" fill-rule="evenodd"/><path fill="#ffffff" d="M 302.820312 247.933594 C 299.285156 251.46875 297.097656 256.351562 297.097656 261.746094 C 297.097656 267.140625 299.285156 272.023438 302.820312 275.558594 C 306.351562 279.09375 311.238281 281.28125 316.628906 281.28125 C 322.027344 281.28125 326.910156 279.09375 330.445312 275.558594 C 333.976562 272.023438 336.164062 267.140625 336.164062 261.746094 C 336.164062 256.351562 333.976562 251.46875 330.445312 247.933594 C 326.910156 244.402344 322.027344 242.210938 316.628906 242.210938 C 311.238281 242.210938 306.351562 244.402344 302.820312 247.933594 " fill-opacity="1" fill-rule="evenodd"/></svg>