<svg xmlns="http://www.w3.org/2000/svg" xmlns:xlink="http://www.w3.org/1999/xlink" width="500" zoomAndPan="magnify" viewBox="0 0 375 374.999991" height="500" preserveAspectRatio="xMidYMid meet" version="1.0"><defs><clipPath id="97cc69d151"><path d="M 0 23 L 259 23 L 259 372.75 L 0 372.75 Z M 0 23 " clip-rule="nonzero"/></clipPath><clipPath id="e2049a6402"><path d="M 302 26 L 372.75 26 L 372.75 323 L 302 323 Z M 302 26 " clip-rule="nonzero"/></clipPath><clipPath id="5d049e165f"><path d="M 302 57 L 372.75 57 L 372.75 72 L 302 72 Z M 302 57 " clip-rule="nonzero"/></clipPath><clipPath id="44794863eb"><path d="M 303 308 L 372.75 308 L 372.75 371 L 303 371 Z M 303 308 " clip-rule="nonzero"/></clipPath></defs><path fill="#ffffff" d="M 251.449219 30.183594 L 251.871094 332.457031 C 251.867188 333.503906 251.8125 334.546875 251.710938 335.585938 C 251.605469 336.628906 251.449219 337.660156 251.246094 338.6875 C 251.039062 339.714844 250.785156 340.726562 250.480469 341.726562 C 250.175781 342.730469 249.820312 343.710938 249.421875 344.679688 C 249.019531 345.644531 248.574219 346.589844 248.078125 347.511719 C 247.585938 348.4375 247.050781 349.332031 246.46875 350.203125 C 245.886719 351.070312 245.265625 351.910156 244.601562 352.722656 C 243.9375 353.53125 243.238281 354.304688 242.5 355.046875 C 241.757812 355.785156 240.984375 356.488281 240.179688 357.15625 C 239.371094 357.820312 238.53125 358.441406 237.664062 359.027344 C 236.792969 359.609375 235.898438 360.148438 234.976562 360.644531 C 234.054688 361.140625 233.113281 361.589844 232.148438 361.992188 C 231.179688 362.394531 230.199219 362.75 229.199219 363.054688 C 228.199219 363.363281 227.183594 363.621094 226.160156 363.828125 C 225.132812 364.035156 224.101562 364.191406 223.058594 364.300781 C 222.019531 364.40625 220.976562 364.460938 219.929688 364.464844 L 7.300781 364.464844 L 7.300781 30.183594 Z M 251.449219 30.183594 " fill-opacity="1" fill-rule="nonzero"/><path fill="#2d5485" d="M 365.800781 313.363281 L 309.640625 313.363281 L 309.640625 49.347656 C 309.640625 48.78125 309.664062 48.21875 309.71875 47.65625 C 309.769531 47.09375 309.851562 46.53125 309.957031 45.976562 C 310.066406 45.421875 310.199219 44.871094 310.359375 44.328125 C 310.519531 43.789062 310.707031 43.253906 310.921875 42.730469 C 311.132812 42.207031 311.371094 41.691406 311.632812 41.191406 C 311.894531 40.691406 312.183594 40.203125 312.492188 39.730469 C 312.804688 39.257812 313.136719 38.800781 313.492188 38.359375 C 313.84375 37.917969 314.222656 37.496094 314.617188 37.09375 C 315.011719 36.6875 315.425781 36.304688 315.859375 35.941406 C 316.292969 35.578125 316.746094 35.234375 317.210938 34.914062 C 317.679688 34.59375 318.160156 34.300781 318.65625 34.027344 C 319.152344 33.753906 319.660156 33.503906 320.179688 33.28125 C 320.699219 33.058594 321.226562 32.859375 321.765625 32.6875 C 322.304688 32.515625 322.851562 32.371094 323.40625 32.253906 C 323.957031 32.136719 324.515625 32.042969 325.078125 31.980469 C 325.640625 31.914062 326.203125 31.878906 326.769531 31.871094 L 347.828125 31.871094 C 348.402344 31.871094 348.972656 31.898438 349.542969 31.953125 C 350.113281 32.011719 350.679688 32.09375 351.238281 32.207031 C 351.800781 32.316406 352.355469 32.457031 352.902344 32.621094 C 353.453125 32.789062 353.988281 32.980469 354.519531 33.199219 C 355.046875 33.417969 355.566406 33.664062 356.070312 33.933594 C 356.574219 34.203125 357.066406 34.496094 357.539062 34.816406 C 358.015625 35.132812 358.476562 35.472656 358.917969 35.835938 C 359.359375 36.199219 359.785156 36.585938 360.191406 36.988281 C 360.59375 37.394531 360.976562 37.816406 361.339844 38.261719 C 361.703125 38.703125 362.046875 39.160156 362.363281 39.636719 C 362.679688 40.113281 362.976562 40.605469 363.246094 41.109375 C 363.515625 41.613281 363.757812 42.132812 363.976562 42.660156 C 364.199219 43.1875 364.390625 43.726562 364.554688 44.273438 C 364.722656 44.824219 364.863281 45.378906 364.972656 45.9375 C 365.085938 46.5 365.167969 47.066406 365.226562 47.636719 C 365.28125 48.207031 365.308594 48.777344 365.308594 49.347656 Z M 365.800781 313.363281 " fill-opacity="1" fill-rule="nonzero"/><path fill="#ffffff" d="M 365.800781 64.089844 L 309.640625 64.089844 L 309.640625 49.347656 C 309.640625 48.78125 309.664062 48.21875 309.71875 47.65625 C 309.769531 47.09375 309.851562 46.53125 309.957031 45.976562 C 310.066406 45.421875 310.199219 44.871094 310.359375 44.328125 C 310.519531 43.789062 310.707031 43.253906 310.921875 42.730469 C 311.132812 42.207031 311.371094 41.691406 311.632812 41.191406 C 311.894531 40.691406 312.183594 40.203125 312.492188 39.730469 C 312.804688 39.257812 313.136719 38.800781 313.492188 38.359375 C 313.84375 37.917969 314.222656 37.496094 314.617188 37.09375 C 315.011719 36.6875 315.425781 36.304688 315.859375 35.941406 C 316.292969 35.578125 316.746094 35.234375 317.210938 34.914062 C 317.679688 34.59375 318.160156 34.300781 318.65625 34.027344 C 319.152344 33.753906 319.660156 33.503906 320.179688 33.28125 C 320.699219 33.058594 321.226562 32.859375 321.765625 32.6875 C 322.304688 32.515625 322.851562 32.371094 323.40625 32.253906 C 323.957031 32.136719 324.515625 32.042969 325.078125 31.980469 C 325.640625 31.914062 326.203125 31.878906 326.769531 31.871094 L 347.828125 31.871094 C 348.402344 31.871094 348.972656 31.898438 349.542969 31.953125 C 350.113281 32.011719 350.679688 32.09375 351.238281 32.207031 C 351.800781 32.316406 352.355469 32.457031 352.902344 32.621094 C 353.453125 32.789062 353.988281 32.980469 354.519531 33.199219 C 355.046875 33.417969 355.566406 33.664062 356.070312 33.933594 C 356.574219 34.203125 357.066406 34.496094 357.539062 34.816406 C 358.015625 35.132812 358.476562 35.472656 358.917969 35.835938 C 359.359375 36.199219 359.785156 36.585938 360.191406 36.988281 C 360.59375 37.394531 360.976562 37.816406 361.339844 38.261719 C 361.703125 38.703125 362.046875 39.160156 362.363281 39.636719 C 362.679688 40.113281 362.976562 40.605469 363.246094 41.109375 C 363.515625 41.613281 363.757812 42.132812 363.976562 42.660156 C 364.199219 43.1875 364.390625 43.726562 364.554688 44.273438 C 364.722656 44.824219 364.863281 45.378906 364.972656 45.9375 C 365.085938 46.5 365.167969 47.066406 365.226562 47.636719 C 365.28125 48.207031 365.308594 48.777344 365.308594 49.347656 Z M 365.800781 64.089844 " fill-opacity="1" fill-rule="nonzero"/><path fill="#ffffff" d="M 365.027344 313.363281 L 337.230469 361.660156 L 310.132812 313.363281 Z M 365.027344 313.363281 " fill-opacity="1" fill-rule="nonzero"/><path fill="#f3c455" d="M 251.449219 60.371094 L 251.871094 332.457031 C 251.867188 333.503906 251.8125 334.546875 251.710938 335.585938 C 251.605469 336.628906 251.449219 337.660156 251.246094 338.6875 C 251.039062 339.714844 250.785156 340.726562 250.480469 341.726562 C 250.175781 342.730469 249.820312 343.710938 249.421875 344.679688 C 249.019531 345.644531 248.574219 346.589844 248.078125 347.511719 C 247.585938 348.4375 247.050781 349.332031 246.46875 350.203125 C 245.886719 351.070312 245.265625 351.910156 244.601562 352.722656 C 243.9375 353.53125 243.238281 354.304688 242.5 355.046875 C 241.757812 355.785156 240.984375 356.488281 240.179688 357.15625 C 239.371094 357.820312 238.53125 358.441406 237.664062 359.027344 C 236.792969 359.609375 235.898438 360.148438 234.976562 360.644531 C 234.054688 361.140625 233.113281 361.589844 232.148438 361.992188 C 231.179688 362.394531 230.199219 362.75 229.199219 363.054688 C 228.199219 363.363281 227.183594 363.621094 226.160156 363.828125 C 225.132812 364.035156 224.101562 364.191406 223.058594 364.300781 C 222.019531 364.40625 220.976562 364.460938 219.929688 364.464844 L 30.394531 364.464844 L 30.394531 60.371094 Z M 251.449219 60.371094 " fill-opacity="1" fill-rule="nonzero"/><g clip-path="url(#97cc69d151)"><path fill="#181818" d="M 216.628906 372.539062 L 7.300781 372.539062 C 6.839844 372.539062 6.382812 372.496094 5.929688 372.40625 C 5.480469 372.316406 5.039062 372.179688 4.613281 372.003906 C 4.1875 371.828125 3.785156 371.613281 3.402344 371.355469 C 3.015625 371.101562 2.664062 370.808594 2.335938 370.484375 C 2.011719 370.15625 1.71875 369.804688 1.464844 369.417969 C 1.207031 369.035156 0.992188 368.632812 0.816406 368.207031 C 0.640625 367.78125 0.503906 367.339844 0.414062 366.890625 C 0.324219 366.4375 0.28125 365.980469 0.28125 365.519531 L 0.28125 30.183594 C 0.28125 29.722656 0.324219 29.269531 0.414062 28.816406 C 0.503906 28.363281 0.640625 27.925781 0.816406 27.5 C 0.992188 27.074219 1.207031 26.667969 1.464844 26.285156 C 1.71875 25.902344 2.011719 25.546875 2.335938 25.222656 C 2.664062 24.894531 3.015625 24.605469 3.402344 24.347656 C 3.785156 24.09375 4.1875 23.875 4.613281 23.699219 C 5.039062 23.523438 5.480469 23.390625 5.929688 23.300781 C 6.382812 23.210938 6.839844 23.164062 7.300781 23.164062 L 251.449219 23.164062 C 251.910156 23.164062 252.367188 23.210938 252.816406 23.300781 C 253.269531 23.390625 253.707031 23.523438 254.132812 23.699219 C 254.558594 23.875 254.964844 24.09375 255.347656 24.347656 C 255.730469 24.605469 256.085938 24.894531 256.410156 25.222656 C 256.738281 25.546875 257.027344 25.902344 257.285156 26.285156 C 257.542969 26.667969 257.757812 27.074219 257.933594 27.5 C 258.109375 27.925781 258.242188 28.363281 258.332031 28.816406 C 258.421875 29.269531 258.46875 29.722656 258.46875 30.183594 L 258.960938 330.28125 C 258.964844 331.667969 258.902344 333.050781 258.769531 334.429688 C 258.636719 335.8125 258.4375 337.183594 258.167969 338.542969 C 257.902344 339.902344 257.566406 341.25 257.167969 342.574219 C 256.769531 343.902344 256.304688 345.207031 255.773438 346.492188 C 255.246094 347.773438 254.652344 349.023438 254 350.25 C 253.347656 351.472656 252.636719 352.660156 251.867188 353.8125 C 251.097656 354.96875 250.269531 356.078125 249.390625 357.152344 C 248.511719 358.222656 247.582031 359.25 246.597656 360.226562 C 245.617188 361.207031 244.589844 362.136719 243.515625 363.015625 C 242.445312 363.894531 241.328125 364.71875 240.175781 365.484375 C 239.019531 366.253906 237.832031 366.964844 236.605469 367.613281 C 235.382812 368.265625 234.128906 368.855469 232.84375 369.378906 C 231.5625 369.90625 230.257812 370.371094 228.929688 370.769531 C 227.601562 371.167969 226.253906 371.496094 224.894531 371.761719 C 223.53125 372.027344 222.164062 372.226562 220.78125 372.355469 C 219.402344 372.484375 218.015625 372.546875 216.628906 372.539062 Z M 14.320312 358.5 L 216.628906 358.5 C 217.550781 358.5 218.46875 358.453125 219.382812 358.363281 C 220.296875 358.273438 221.207031 358.140625 222.109375 357.960938 C 223.011719 357.78125 223.902344 357.558594 224.78125 357.289062 C 225.660156 357.023438 226.527344 356.714844 227.375 356.363281 C 228.226562 356.011719 229.054688 355.617188 229.867188 355.183594 C 230.675781 354.75 231.464844 354.277344 232.230469 353.769531 C 232.996094 353.257812 233.734375 352.710938 234.445312 352.125 C 235.15625 351.542969 235.835938 350.925781 236.484375 350.277344 C 237.136719 349.625 237.753906 348.945312 238.335938 348.234375 C 238.917969 347.523438 239.464844 346.785156 239.976562 346.019531 C 240.488281 345.257812 240.960938 344.46875 241.394531 343.65625 C 241.828125 342.847656 242.21875 342.015625 242.570312 341.167969 C 242.925781 340.316406 243.234375 339.453125 243.5 338.570312 C 243.765625 337.691406 243.992188 336.800781 244.167969 335.898438 C 244.347656 334.996094 244.484375 334.089844 244.574219 333.171875 C 244.664062 332.257812 244.710938 331.339844 244.710938 330.421875 L 244.429688 37.203125 L 14.320312 37.203125 Z M 14.320312 358.5 " fill-opacity="1" fill-rule="nonzero"/></g><g clip-path="url(#e2049a6402)"><path fill="#181818" d="M 365.800781 322.488281 L 309.640625 322.488281 C 309.179688 322.488281 308.726562 322.445312 308.273438 322.351562 C 307.820312 322.261719 307.382812 322.128906 306.957031 321.953125 C 306.53125 321.777344 306.125 321.5625 305.742188 321.304688 C 305.359375 321.050781 305.003906 320.757812 304.679688 320.433594 C 304.351562 320.105469 304.0625 319.75 303.804688 319.367188 C 303.550781 318.984375 303.332031 318.582031 303.15625 318.15625 C 302.980469 317.730469 302.847656 317.289062 302.757812 316.839844 C 302.667969 316.386719 302.621094 315.929688 302.621094 315.46875 L 302.621094 51.453125 C 302.621094 50.660156 302.660156 49.867188 302.738281 49.074219 C 302.816406 48.285156 302.929688 47.5 303.085938 46.71875 C 303.238281 45.9375 303.429688 45.167969 303.65625 44.40625 C 303.886719 43.644531 304.152344 42.894531 304.453125 42.160156 C 304.753906 41.425781 305.089844 40.703125 305.464844 40.003906 C 305.835938 39.300781 306.238281 38.617188 306.675781 37.953125 C 307.117188 37.289062 307.585938 36.648438 308.085938 36.03125 C 308.585938 35.414062 309.117188 34.820312 309.671875 34.253906 C 310.230469 33.6875 310.816406 33.148438 311.425781 32.640625 C 312.035156 32.132812 312.671875 31.652344 313.328125 31.207031 C 313.984375 30.757812 314.664062 30.34375 315.359375 29.960938 C 316.058594 29.578125 316.773438 29.234375 317.503906 28.921875 C 318.234375 28.609375 318.980469 28.332031 319.738281 28.09375 C 320.496094 27.851562 321.261719 27.652344 322.039062 27.484375 C 322.820312 27.320312 323.601562 27.195312 324.394531 27.105469 C 325.183594 27.015625 325.976562 26.96875 326.769531 26.957031 L 347.828125 26.957031 C 348.628906 26.957031 349.429688 26.996094 350.226562 27.074219 C 351.023438 27.152344 351.816406 27.269531 352.601562 27.425781 C 353.386719 27.582031 354.164062 27.773438 354.929688 28.007812 C 355.695312 28.238281 356.449219 28.507812 357.1875 28.8125 C 357.929688 29.121094 358.652344 29.460938 359.359375 29.839844 C 360.066406 30.214844 360.753906 30.625 361.417969 31.070312 C 362.085938 31.515625 362.726562 31.988281 363.347656 32.496094 C 363.96875 33.003906 364.5625 33.542969 365.128906 34.105469 C 365.695312 34.671875 366.234375 35.265625 366.742188 35.882812 C 367.25 36.5 367.730469 37.140625 368.175781 37.808594 C 368.621094 38.472656 369.035156 39.15625 369.414062 39.863281 C 369.792969 40.570312 370.136719 41.292969 370.445312 42.03125 C 370.75 42.769531 371.023438 43.523438 371.257812 44.289062 C 371.492188 45.054688 371.6875 45.828125 371.847656 46.613281 C 372.003906 47.398438 372.125 48.191406 372.203125 48.988281 C 372.285156 49.785156 372.328125 50.582031 372.328125 51.382812 L 372.328125 315.46875 C 372.328125 315.910156 372.289062 316.347656 372.207031 316.78125 C 372.128906 317.214844 372.007812 317.636719 371.84375 318.046875 C 371.683594 318.457031 371.488281 318.847656 371.25 319.222656 C 371.015625 319.59375 370.75 319.945312 370.449219 320.265625 C 370.148438 320.589844 369.820312 320.882812 369.464844 321.140625 C 369.109375 321.402344 368.734375 321.628906 368.335938 321.820312 C 367.9375 322.007812 367.527344 322.160156 367.101562 322.273438 C 366.671875 322.386719 366.242188 322.457031 365.800781 322.488281 Z M 316.660156 308.449219 L 358.78125 308.449219 L 358.78125 51.453125 C 358.777344 50.769531 358.707031 50.09375 358.566406 49.425781 C 358.429688 48.753906 358.230469 48.105469 357.964844 47.472656 C 357.699219 46.84375 357.375 46.246094 356.992188 45.675781 C 356.613281 45.109375 356.175781 44.585938 355.691406 44.105469 C 355.207031 43.621094 354.679688 43.191406 354.109375 42.8125 C 353.539062 42.433594 352.941406 42.117188 352.308594 41.855469 C 351.675781 41.59375 351.023438 41.398438 350.351562 41.265625 C 349.683594 41.132812 349.003906 41.066406 348.320312 41.066406 L 326.769531 41.066406 C 326.082031 41.066406 325.402344 41.132812 324.730469 41.265625 C 324.054688 41.402344 323.402344 41.597656 322.769531 41.863281 C 322.132812 42.125 321.53125 42.445312 320.960938 42.828125 C 320.386719 43.210938 319.859375 43.644531 319.375 44.128906 C 318.890625 44.613281 318.457031 45.144531 318.074219 45.714844 C 317.691406 46.285156 317.371094 46.886719 317.105469 47.523438 C 316.84375 48.15625 316.644531 48.8125 316.511719 49.484375 C 316.378906 50.15625 316.3125 50.839844 316.3125 51.523438 Z M 316.660156 308.449219 " fill-opacity="1" fill-rule="nonzero"/></g><g clip-path="url(#5d049e165f)"><path fill="#181818" d="M 309.5 71.109375 C 309.039062 71.109375 308.585938 71.066406 308.132812 70.976562 C 307.679688 70.886719 307.242188 70.753906 306.816406 70.574219 C 306.390625 70.398438 305.984375 70.183594 305.601562 69.925781 C 305.21875 69.671875 304.863281 69.378906 304.539062 69.054688 C 304.210938 68.726562 303.921875 68.375 303.664062 67.992188 C 303.410156 67.605469 303.191406 67.203125 303.015625 66.777344 C 302.839844 66.351562 302.707031 65.910156 302.617188 65.460938 C 302.527344 65.007812 302.480469 64.550781 302.480469 64.089844 C 302.480469 63.628906 302.527344 63.171875 302.617188 62.722656 C 302.707031 62.269531 302.839844 61.828125 303.015625 61.402344 C 303.191406 60.976562 303.410156 60.574219 303.664062 60.191406 C 303.921875 59.808594 304.210938 59.453125 304.539062 59.125 C 304.863281 58.800781 305.21875 58.511719 305.601562 58.253906 C 305.984375 57.996094 306.390625 57.78125 306.816406 57.605469 C 307.242188 57.429688 307.679688 57.296875 308.132812 57.207031 C 308.585938 57.117188 309.039062 57.070312 309.5 57.070312 L 365.660156 57.070312 C 366.121094 57.070312 366.578125 57.117188 367.03125 57.207031 C 367.480469 57.296875 367.921875 57.429688 368.347656 57.605469 C 368.773438 57.78125 369.175781 57.996094 369.558594 58.253906 C 369.941406 58.511719 370.296875 58.800781 370.625 59.125 C 370.949219 59.453125 371.242188 59.808594 371.496094 60.191406 C 371.753906 60.574219 371.96875 60.976562 372.144531 61.402344 C 372.320312 61.828125 372.453125 62.269531 372.542969 62.722656 C 372.636719 63.171875 372.679688 63.628906 372.679688 64.089844 C 372.679688 64.550781 372.636719 65.007812 372.542969 65.460938 C 372.453125 65.910156 372.320312 66.351562 372.144531 66.777344 C 371.96875 67.203125 371.753906 67.605469 371.496094 67.992188 C 371.242188 68.375 370.949219 68.726562 370.625 69.054688 C 370.296875 69.378906 369.941406 69.671875 369.558594 69.925781 C 369.175781 70.183594 368.773438 70.398438 368.347656 70.574219 C 367.921875 70.753906 367.480469 70.886719 367.03125 70.976562 C 366.578125 71.066406 366.121094 71.109375 365.660156 71.109375 Z M 309.5 71.109375 " fill-opacity="1" fill-rule="nonzero"/></g><g clip-path="url(#44794863eb)"><path fill="#181818" d="M 337.230469 370.855469 C 336.609375 370.855469 335.996094 370.769531 335.398438 370.609375 C 334.796875 370.445312 334.230469 370.207031 333.691406 369.890625 C 333.15625 369.578125 332.667969 369.195312 332.234375 368.753906 C 331.796875 368.308594 331.425781 367.816406 331.121094 367.273438 L 304.027344 318.910156 C 303.878906 318.644531 303.746094 318.367188 303.632812 318.085938 C 303.519531 317.804688 303.421875 317.515625 303.347656 317.21875 C 303.273438 316.921875 303.214844 316.625 303.179688 316.320312 C 303.140625 316.019531 303.125 315.714844 303.125 315.410156 C 303.128906 315.105469 303.152344 314.804688 303.191406 314.5 C 303.234375 314.199219 303.296875 313.902344 303.378906 313.609375 C 303.457031 313.3125 303.558594 313.027344 303.675781 312.746094 C 303.792969 312.464844 303.929688 312.191406 304.082031 311.929688 C 304.238281 311.664062 304.40625 311.414062 304.59375 311.171875 C 304.78125 310.929688 304.980469 310.703125 305.199219 310.488281 C 305.414062 310.273438 305.644531 310.074219 305.886719 309.890625 C 306.128906 309.703125 306.382812 309.535156 306.644531 309.382812 C 306.910156 309.230469 307.183594 309.097656 307.464844 308.980469 C 307.746094 308.863281 308.035156 308.765625 308.328125 308.6875 C 308.621094 308.609375 308.921875 308.550781 309.222656 308.507812 C 309.523438 308.46875 309.828125 308.449219 310.132812 308.449219 L 365.027344 308.449219 C 365.335938 308.449219 365.636719 308.472656 365.941406 308.515625 C 366.246094 308.554688 366.542969 308.617188 366.839844 308.699219 C 367.132812 308.777344 367.421875 308.878906 367.703125 308.996094 C 367.984375 309.113281 368.257812 309.25 368.523438 309.40625 C 368.789062 309.558594 369.039062 309.730469 369.28125 309.917969 C 369.523438 310.105469 369.753906 310.304688 369.96875 310.523438 C 370.183594 310.742188 370.382812 310.972656 370.570312 311.214844 C 370.753906 311.457031 370.921875 311.710938 371.074219 311.976562 C 371.226562 312.242188 371.363281 312.515625 371.476562 312.800781 C 371.59375 313.082031 371.691406 313.371094 371.769531 313.667969 C 371.847656 313.960938 371.90625 314.261719 371.949219 314.566406 C 371.988281 314.867188 372.007812 315.171875 372.003906 315.480469 C 372.003906 315.785156 371.984375 316.089844 371.945312 316.394531 C 371.90625 316.695312 371.84375 316.996094 371.765625 317.289062 C 371.6875 317.585938 371.585938 317.875 371.46875 318.15625 C 371.351562 318.441406 371.21875 318.714844 371.066406 318.980469 L 342.984375 367.34375 C 342.691406 367.855469 342.339844 368.320312 341.929688 368.742188 C 341.515625 369.164062 341.058594 369.53125 340.558594 369.835938 C 340.054688 370.144531 339.519531 370.382812 338.957031 370.554688 C 338.394531 370.726562 337.820312 370.828125 337.230469 370.855469 Z M 322.136719 322.488281 L 337.300781 349.585938 L 352.882812 322.488281 Z M 322.136719 322.488281 " fill-opacity="1" fill-rule="nonzero"/></g><path fill="#181818" d="M 197.957031 203.785156 L 63.457031 203.785156 C 62.996094 203.785156 62.542969 203.738281 62.089844 203.648438 C 61.636719 203.558594 61.199219 203.425781 60.773438 203.25 C 60.347656 203.074219 59.941406 202.855469 59.558594 202.601562 C 59.175781 202.34375 58.820312 202.054688 58.496094 201.726562 C 58.167969 201.402344 57.878906 201.046875 57.621094 200.664062 C 57.367188 200.28125 57.148438 199.875 56.972656 199.449219 C 56.796875 199.023438 56.664062 198.585938 56.574219 198.132812 C 56.484375 197.683594 56.4375 197.226562 56.4375 196.765625 C 56.4375 196.304688 56.484375 195.847656 56.574219 195.394531 C 56.664062 194.941406 56.796875 194.503906 56.972656 194.078125 C 57.148438 193.652344 57.367188 193.246094 57.621094 192.863281 C 57.878906 192.480469 58.167969 192.125 58.496094 191.800781 C 58.820312 191.476562 59.175781 191.183594 59.558594 190.925781 C 59.941406 190.671875 60.347656 190.457031 60.773438 190.277344 C 61.199219 190.101562 61.636719 189.96875 62.089844 189.878906 C 62.542969 189.789062 62.996094 189.746094 63.457031 189.746094 L 197.957031 189.746094 C 198.417969 189.746094 198.875 189.789062 199.328125 189.878906 C 199.777344 189.96875 200.21875 190.101562 200.644531 190.277344 C 201.070312 190.457031 201.472656 190.671875 201.859375 190.925781 C 202.242188 191.183594 202.59375 191.476562 202.921875 191.800781 C 203.246094 192.125 203.539062 192.480469 203.792969 192.863281 C 204.050781 193.246094 204.265625 193.652344 204.441406 194.078125 C 204.621094 194.503906 204.753906 194.941406 204.84375 195.394531 C 204.933594 195.847656 204.976562 196.304688 204.976562 196.765625 C 204.976562 197.226562 204.933594 197.683594 204.84375 198.132812 C 204.753906 198.585938 204.621094 199.023438 204.441406 199.449219 C 204.265625 199.875 204.050781 200.28125 203.792969 200.664062 C 203.539062 201.046875 203.246094 201.402344 202.921875 201.726562 C 202.59375 202.054688 202.242188 202.34375 201.859375 202.601562 C 201.472656 202.855469 201.070312 203.074219 200.644531 203.25 C 200.21875 203.425781 199.777344 203.558594 199.328125 203.648438 C 198.875 203.738281 198.417969 203.785156 197.957031 203.785156 Z M 197.957031 203.785156 " fill-opacity="1" fill-rule="nonzero"/><path fill="#181818" d="M 197.957031 142.359375 L 63.457031 142.359375 C 62.996094 142.359375 62.542969 142.316406 62.089844 142.226562 C 61.636719 142.136719 61.199219 142.003906 60.773438 141.828125 C 60.347656 141.648438 59.941406 141.433594 59.558594 141.179688 C 59.175781 140.921875 58.820312 140.632812 58.496094 140.304688 C 58.167969 139.980469 57.878906 139.625 57.621094 139.242188 C 57.367188 138.859375 57.148438 138.453125 56.972656 138.027344 C 56.796875 137.601562 56.664062 137.164062 56.574219 136.710938 C 56.484375 136.257812 56.4375 135.800781 56.4375 135.339844 C 56.4375 134.878906 56.484375 134.421875 56.574219 133.972656 C 56.664062 133.519531 56.796875 133.082031 56.972656 132.65625 C 57.148438 132.230469 57.367188 131.824219 57.621094 131.441406 C 57.878906 131.058594 58.167969 130.703125 58.496094 130.378906 C 58.820312 130.050781 59.175781 129.761719 59.558594 129.503906 C 59.941406 129.25 60.347656 129.03125 60.773438 128.855469 C 61.199219 128.679688 61.636719 128.546875 62.089844 128.457031 C 62.542969 128.367188 62.996094 128.320312 63.457031 128.320312 L 197.957031 128.320312 C 198.417969 128.320312 198.875 128.367188 199.328125 128.457031 C 199.777344 128.546875 200.21875 128.679688 200.644531 128.855469 C 201.070312 129.03125 201.472656 129.25 201.859375 129.503906 C 202.242188 129.761719 202.59375 130.050781 202.921875 130.378906 C 203.246094 130.703125 203.539062 131.058594 203.792969 131.441406 C 204.050781 131.824219 204.265625 132.230469 204.441406 132.65625 C 204.621094 133.082031 204.753906 133.519531 204.84375 133.972656 C 204.933594 134.421875 204.976562 134.878906 204.976562 135.339844 C 204.976562 135.800781 204.933594 136.257812 204.84375 136.710938 C 204.753906 137.164062 204.621094 137.601562 204.441406 138.027344 C 204.265625 138.453125 204.050781 138.859375 203.792969 139.242188 C 203.539062 139.625 203.246094 139.980469 202.921875 140.304688 C 202.59375 140.632812 202.242188 140.921875 201.859375 141.179688 C 201.472656 141.433594 201.070312 141.648438 200.644531 141.828125 C 200.21875 142.003906 199.777344 142.136719 199.328125 142.226562 C 198.875 142.316406 198.417969 142.359375 197.957031 142.359375 Z M 197.957031 142.359375 " fill-opacity="1" fill-rule="nonzero"/><path fill="#181818" d="M 100.734375 264.644531 L 63.457031 264.644531 C 62.996094 264.644531 62.542969 264.601562 62.089844 264.511719 C 61.636719 264.421875 61.199219 264.289062 60.773438 264.109375 C 60.347656 263.933594 59.941406 263.71875 59.558594 263.460938 C 59.175781 263.207031 58.820312 262.914062 58.496094 262.589844 C 58.167969 262.261719 57.878906 261.910156 57.621094 261.527344 C 57.367188 261.140625 57.148438 260.738281 56.972656 260.3125 C 56.796875 259.886719 56.664062 259.445312 56.574219 258.996094 C 56.484375 258.542969 56.4375 258.085938 56.4375 257.625 C 56.4375 257.164062 56.484375 256.707031 56.574219 256.257812 C 56.664062 255.804688 56.796875 255.363281 56.972656 254.9375 C 57.148438 254.511719 57.367188 254.109375 57.621094 253.726562 C 57.878906 253.34375 58.167969 252.988281 58.496094 252.660156 C 58.820312 252.335938 59.175781 252.046875 59.558594 251.789062 C 59.941406 251.53125 60.347656 251.316406 60.773438 251.140625 C 61.199219 250.964844 61.636719 250.832031 62.089844 250.742188 C 62.542969 250.652344 62.996094 250.605469 63.457031 250.605469 L 100.734375 250.605469 C 101.195312 250.605469 101.652344 250.652344 102.101562 250.742188 C 102.554688 250.832031 102.996094 250.964844 103.421875 251.140625 C 103.847656 251.316406 104.25 251.53125 104.632812 251.789062 C 105.015625 252.046875 105.371094 252.335938 105.699219 252.660156 C 106.023438 252.988281 106.3125 253.34375 106.570312 253.726562 C 106.828125 254.109375 107.042969 254.511719 107.21875 254.9375 C 107.394531 255.363281 107.527344 255.804688 107.617188 256.257812 C 107.707031 256.707031 107.753906 257.164062 107.753906 257.625 C 107.753906 258.085938 107.707031 258.542969 107.617188 258.996094 C 107.527344 259.445312 107.394531 259.886719 107.21875 260.3125 C 107.042969 260.738281 106.828125 261.140625 106.570312 261.527344 C 106.3125 261.910156 106.023438 262.261719 105.699219 262.589844 C 105.371094 262.914062 105.015625 263.207031 104.632812 263.460938 C 104.25 263.71875 103.847656 263.933594 103.421875 264.109375 C 102.996094 264.289062 102.554688 264.421875 102.101562 264.511719 C 101.652344 264.601562 101.195312 264.644531 100.734375 264.644531 Z M 100.734375 264.644531 " fill-opacity="1" fill-rule="nonzero"/><path fill="#181818" d="M 164.261719 264.644531 L 148.46875 264.644531 C 148.007812 264.644531 147.550781 264.601562 147.097656 264.511719 C 146.648438 264.421875 146.207031 264.289062 145.78125 264.109375 C 145.355469 263.933594 144.953125 263.71875 144.566406 263.460938 C 144.183594 263.207031 143.832031 262.914062 143.503906 262.589844 C 143.179688 262.261719 142.886719 261.910156 142.632812 261.527344 C 142.375 261.140625 142.160156 260.738281 141.984375 260.3125 C 141.804688 259.886719 141.671875 259.445312 141.582031 258.996094 C 141.492188 258.542969 141.449219 258.085938 141.449219 257.625 C 141.449219 257.164062 141.492188 256.707031 141.582031 256.257812 C 141.671875 255.804688 141.804688 255.363281 141.984375 254.9375 C 142.160156 254.511719 142.375 254.109375 142.632812 253.726562 C 142.886719 253.34375 143.179688 252.988281 143.503906 252.660156 C 143.832031 252.335938 144.183594 252.046875 144.566406 251.789062 C 144.953125 251.53125 145.355469 251.316406 145.78125 251.140625 C 146.207031 250.964844 146.648438 250.832031 147.097656 250.742188 C 147.550781 250.652344 148.007812 250.605469 148.46875 250.605469 L 164.261719 250.605469 C 164.722656 250.605469 165.179688 250.652344 165.632812 250.742188 C 166.085938 250.832031 166.523438 250.964844 166.949219 251.140625 C 167.375 251.316406 167.78125 251.53125 168.164062 251.789062 C 168.546875 252.046875 168.902344 252.335938 169.226562 252.660156 C 169.550781 252.988281 169.84375 253.34375 170.097656 253.726562 C 170.355469 254.109375 170.570312 254.511719 170.75 254.9375 C 170.925781 255.363281 171.058594 255.804688 171.148438 256.257812 C 171.238281 256.707031 171.28125 257.164062 171.28125 257.625 C 171.28125 258.085938 171.238281 258.542969 171.148438 258.996094 C 171.058594 259.445312 170.925781 259.886719 170.75 260.3125 C 170.570312 260.738281 170.355469 261.140625 170.097656 261.527344 C 169.84375 261.910156 169.550781 262.261719 169.226562 262.589844 C 168.902344 262.914062 168.546875 263.207031 168.164062 263.460938 C 167.78125 263.71875 167.375 263.933594 166.949219 264.109375 C 166.523438 264.289062 166.085938 264.421875 165.632812 264.511719 C 165.179688 264.601562 164.722656 264.644531 164.261719 264.644531 Z M 164.261719 264.644531 " fill-opacity="1" fill-rule="nonzero"/><path fill="#181818" d="M 54.964844 56.089844 C 54.503906 56.089844 54.046875 56.042969 53.59375 55.953125 C 53.144531 55.863281 52.703125 55.730469 52.277344 55.554688 C 51.851562 55.378906 51.449219 55.160156 51.066406 54.90625 C 50.679688 54.648438 50.328125 54.359375 50 54.03125 C 49.675781 53.707031 49.382812 53.351562 49.128906 52.96875 C 48.871094 52.585938 48.65625 52.179688 48.480469 51.753906 C 48.304688 51.328125 48.167969 50.890625 48.078125 50.4375 C 47.988281 49.984375 47.945312 49.527344 47.945312 49.066406 L 47.945312 6.949219 C 47.945312 6.488281 47.988281 6.03125 48.078125 5.582031 C 48.167969 5.128906 48.304688 4.6875 48.480469 4.261719 C 48.65625 3.835938 48.871094 3.433594 49.128906 3.050781 C 49.382812 2.667969 49.675781 2.3125 50 1.984375 C 50.328125 1.660156 50.679688 1.367188 51.066406 1.113281 C 51.449219 0.855469 51.851562 0.640625 52.277344 0.464844 C 52.703125 0.289062 53.144531 0.15625 53.59375 0.0664062 C 54.046875 -0.0234375 54.503906 -0.0703125 54.964844 -0.0703125 C 55.425781 -0.0703125 55.882812 -0.0234375 56.335938 0.0664062 C 56.785156 0.15625 57.226562 0.289062 57.652344 0.464844 C 58.078125 0.640625 58.480469 0.855469 58.863281 1.113281 C 59.246094 1.367188 59.601562 1.660156 59.929688 1.984375 C 60.253906 2.3125 60.546875 2.667969 60.800781 3.050781 C 61.058594 3.433594 61.273438 3.835938 61.449219 4.261719 C 61.625 4.6875 61.761719 5.128906 61.851562 5.582031 C 61.941406 6.03125 61.984375 6.488281 61.984375 6.949219 L 61.984375 49.066406 C 61.984375 49.527344 61.941406 49.984375 61.851562 50.4375 C 61.761719 50.890625 61.625 51.328125 61.449219 51.753906 C 61.273438 52.179688 61.058594 52.585938 60.800781 52.96875 C 60.546875 53.351562 60.253906 53.707031 59.929688 54.03125 C 59.601562 54.359375 59.246094 54.648438 58.863281 54.90625 C 58.480469 55.160156 58.078125 55.378906 57.652344 55.554688 C 57.226562 55.730469 56.785156 55.863281 56.335938 55.953125 C 55.882812 56.042969 55.425781 56.089844 54.964844 56.089844 Z M 54.964844 56.089844 " fill-opacity="1" fill-rule="nonzero"/><path fill="#181818" d="M 129.585938 56.089844 C 129.125 56.089844 128.667969 56.042969 128.214844 55.953125 C 127.761719 55.863281 127.324219 55.730469 126.898438 55.554688 C 126.472656 55.378906 126.066406 55.160156 125.683594 54.90625 C 125.300781 54.648438 124.945312 54.359375 124.621094 54.03125 C 124.296875 53.707031 124.003906 53.351562 123.75 52.96875 C 123.492188 52.585938 123.277344 52.179688 123.097656 51.753906 C 122.921875 51.328125 122.789062 50.890625 122.699219 50.4375 C 122.609375 49.984375 122.566406 49.527344 122.566406 49.066406 L 122.566406 6.949219 C 122.566406 6.488281 122.609375 6.03125 122.699219 5.582031 C 122.789062 5.128906 122.921875 4.6875 123.097656 4.261719 C 123.277344 3.835938 123.492188 3.433594 123.75 3.050781 C 124.003906 2.667969 124.296875 2.3125 124.621094 1.984375 C 124.945312 1.660156 125.300781 1.367188 125.683594 1.113281 C 126.066406 0.855469 126.472656 0.640625 126.898438 0.464844 C 127.324219 0.289062 127.761719 0.15625 128.214844 0.0664062 C 128.667969 -0.0234375 129.125 -0.0703125 129.585938 -0.0703125 C 130.046875 -0.0703125 130.503906 -0.0234375 130.953125 0.0664062 C 131.40625 0.15625 131.84375 0.289062 132.269531 0.464844 C 132.695312 0.640625 133.101562 0.855469 133.484375 1.113281 C 133.867188 1.367188 134.222656 1.660156 134.546875 1.984375 C 134.875 2.3125 135.164062 2.667969 135.421875 3.050781 C 135.679688 3.433594 135.894531 3.835938 136.070312 4.261719 C 136.246094 4.6875 136.378906 5.128906 136.46875 5.582031 C 136.558594 6.03125 136.605469 6.488281 136.605469 6.949219 L 136.605469 49.066406 C 136.605469 49.527344 136.558594 49.984375 136.46875 50.4375 C 136.378906 50.890625 136.246094 51.328125 136.070312 51.753906 C 135.894531 52.179688 135.679688 52.585938 135.421875 52.96875 C 135.164062 53.351562 134.875 53.707031 134.546875 54.03125 C 134.222656 54.359375 133.867188 54.648438 133.484375 54.90625 C 133.101562 55.160156 132.695312 55.378906 132.269531 55.554688 C 131.84375 55.730469 131.40625 55.863281 130.953125 55.953125 C 130.503906 56.042969 130.046875 56.089844 129.585938 56.089844 Z M 129.585938 56.089844 " fill-opacity="1" fill-rule="nonzero"/><path fill="#181818" d="M 204.207031 56.089844 C 203.746094 56.089844 203.289062 56.042969 202.835938 55.953125 C 202.382812 55.863281 201.945312 55.730469 201.519531 55.554688 C 201.09375 55.378906 200.6875 55.160156 200.304688 54.90625 C 199.921875 54.648438 199.566406 54.359375 199.242188 54.03125 C 198.914062 53.707031 198.625 53.351562 198.367188 52.96875 C 198.113281 52.585938 197.894531 52.179688 197.71875 51.753906 C 197.542969 51.328125 197.410156 50.890625 197.320312 50.4375 C 197.230469 49.984375 197.183594 49.527344 197.183594 49.066406 L 197.183594 6.949219 C 197.183594 6.488281 197.230469 6.03125 197.320312 5.582031 C 197.410156 5.128906 197.542969 4.6875 197.71875 4.261719 C 197.894531 3.835938 198.113281 3.433594 198.367188 3.050781 C 198.625 2.667969 198.914062 2.3125 199.242188 1.984375 C 199.566406 1.660156 199.921875 1.367188 200.304688 1.113281 C 200.6875 0.855469 201.09375 0.640625 201.519531 0.464844 C 201.945312 0.289062 202.382812 0.15625 202.835938 0.0664062 C 203.289062 -0.0234375 203.746094 -0.0703125 204.207031 -0.0703125 C 204.667969 -0.0703125 205.121094 -0.0234375 205.574219 0.0664062 C 206.027344 0.15625 206.464844 0.289062 206.890625 0.464844 C 207.316406 0.640625 207.722656 0.855469 208.105469 1.113281 C 208.488281 1.367188 208.84375 1.660156 209.167969 1.984375 C 209.496094 2.3125 209.785156 2.667969 210.042969 3.050781 C 210.296875 3.433594 210.515625 3.835938 210.691406 4.261719 C 210.867188 4.6875 211 5.128906 211.089844 5.582031 C 211.179688 6.03125 211.226562 6.488281 211.226562 6.949219 L 211.226562 49.066406 C 211.226562 49.527344 211.179688 49.984375 211.089844 50.4375 C 211 50.890625 210.867188 51.328125 210.691406 51.753906 C 210.515625 52.179688 210.296875 52.585938 210.042969 52.96875 C 209.785156 53.351562 209.496094 53.707031 209.167969 54.03125 C 208.84375 54.359375 208.488281 54.648438 208.105469 54.90625 C 207.722656 55.160156 207.316406 55.378906 206.890625 55.554688 C 206.464844 55.730469 206.027344 55.863281 205.574219 55.953125 C 205.121094 56.042969 204.667969 56.089844 204.207031 56.089844 Z M 204.207031 56.089844 " fill-opacity="1" fill-rule="nonzero"/></svg>