<svg xmlns="http://www.w3.org/2000/svg" xmlns:xlink="http://www.w3.org/1999/xlink" width="500" zoomAndPan="magnify" viewBox="0 0 375 374.999991" height="500" preserveAspectRatio="xMidYMid meet" version="1.0"><defs><clipPath id="1c4e50d253"><path d="M 0 2.34375 L 375 2.34375 L 375 372.84375 L 0 372.84375 Z M 0 2.34375 " clip-rule="nonzero"/></clipPath></defs><path fill="#f3c455" d="M 339.144531 42.917969 C 355.941406 42.917969 369.6875 56.667969 369.6875 73.476562 L 369.6875 336.867188 C 369.6875 353.675781 355.941406 367.425781 339.144531 367.425781 L 35.855469 367.425781 C 19.058594 367.425781 5.3125 353.675781 5.3125 336.867188 L 5.3125 73.476562 C 5.3125 56.667969 19.058594 42.917969 35.855469 42.917969 Z M 339.144531 42.917969 " fill-opacity="1" fill-rule="evenodd"/><path fill="#2d5485" d="M 5.3125 110.625 L 369.6875 110.625 L 369.6875 73.476562 C 369.6875 56.667969 355.941406 42.917969 339.144531 42.917969 L 35.855469 42.917969 C 19.058594 42.917969 5.3125 56.667969 5.3125 73.476562 Z M 5.3125 110.625 " fill-opacity="1" fill-rule="evenodd"/><path fill="#f19a7b" d="M 70.949219 7.757812 L 102.609375 7.757812 C 104.699219 7.757812 106.40625 9.464844 106.40625 11.558594 L 106.40625 73.613281 C 106.40625 75.707031 104.699219 77.410156 102.609375 77.410156 L 70.949219 77.410156 C 68.859375 77.410156 67.152344 75.707031 67.152344 73.613281 L 67.152344 11.554688 C 67.152344 9.464844 68.859375 7.757812 70.949219 7.757812 Z M 272.390625 7.757812 L 304.050781 7.757812 C 306.140625 7.757812 307.847656 9.464844 307.847656 11.558594 L 307.847656 73.613281 C 307.847656 75.707031 306.140625 77.410156 304.050781 77.410156 L 272.390625 77.410156 C 270.300781 77.410156 268.59375 75.707031 268.59375 73.613281 L 268.59375 11.554688 C 268.59375 9.464844 270.300781 7.757812 272.390625 7.757812 Z M 171.667969 7.757812 L 203.332031 7.757812 C 205.421875 7.757812 207.125 9.464844 207.125 11.558594 L 207.125 73.613281 C 207.125 75.707031 205.421875 77.410156 203.332031 77.410156 L 171.667969 77.410156 C 169.578125 77.410156 167.875 75.707031 167.875 73.613281 L 167.875 11.554688 C 167.875 9.464844 169.578125 7.757812 171.667969 7.757812 Z M 171.667969 7.757812 " fill-opacity="1" fill-rule="evenodd"/><path fill="#f19a7b" d="M 59.839844 151.5 L 59.839844 180.953125 C 59.839844 183.046875 61.542969 184.75 63.636719 184.75 L 93.074219 184.75 C 95.164062 184.75 96.871094 183.046875 96.871094 180.953125 L 96.871094 151.5 C 96.871094 149.40625 95.164062 147.703125 93.074219 147.703125 L 63.632812 147.703125 C 61.542969 147.703125 59.839844 149.40625 59.839844 151.5 Z M 278.128906 297.101562 L 278.128906 326.554688 C 278.128906 328.648438 279.835938 330.351562 281.925781 330.351562 L 311.367188 330.351562 C 313.457031 330.351562 315.160156 328.648438 315.160156 326.554688 L 315.160156 297.101562 C 315.160156 295.007812 313.457031 293.304688 311.367188 293.304688 L 281.925781 293.304688 C 279.835938 293.304688 278.128906 295.007812 278.128906 297.101562 Z M 59.839844 297.101562 L 59.839844 326.554688 C 59.839844 328.648438 61.542969 330.351562 63.636719 330.351562 L 93.074219 330.351562 C 95.164062 330.351562 96.871094 328.648438 96.871094 326.554688 L 96.871094 297.101562 C 96.871094 295.007812 95.164062 293.304688 93.074219 293.304688 L 63.632812 293.304688 C 61.542969 293.304688 59.839844 295.007812 59.839844 297.101562 Z M 278.128906 224.300781 L 278.128906 253.753906 C 278.128906 255.847656 279.835938 257.550781 281.925781 257.550781 L 311.367188 257.550781 C 313.457031 257.550781 315.160156 255.847656 315.160156 253.753906 L 315.160156 224.300781 C 315.160156 222.207031 313.457031 220.503906 311.367188 220.503906 L 281.925781 220.503906 C 279.835938 220.503906 278.128906 222.207031 278.128906 224.300781 Z M 59.839844 224.300781 L 59.839844 253.753906 C 59.839844 255.847656 61.542969 257.550781 63.636719 257.550781 L 93.074219 257.550781 C 95.164062 257.550781 96.871094 255.847656 96.871094 253.753906 L 96.871094 224.300781 C 96.871094 222.207031 95.164062 220.503906 93.074219 220.503906 L 63.632812 220.503906 C 61.542969 220.503906 59.839844 222.207031 59.839844 224.300781 Z M 278.128906 151.5 L 278.128906 180.953125 C 278.128906 183.046875 279.835938 184.75 281.925781 184.75 L 311.367188 184.75 C 313.457031 184.75 315.160156 183.046875 315.160156 180.953125 L 315.160156 151.5 C 315.160156 149.40625 313.457031 147.703125 311.367188 147.703125 L 281.925781 147.703125 C 279.835938 147.703125 278.128906 149.40625 278.128906 151.5 Z M 278.128906 151.5 " fill-opacity="1" fill-rule="evenodd"/><path fill="#78c2b0" d="M 187.5 135.996094 C 244.371094 135.996094 290.476562 182.125 290.476562 239.027344 C 290.476562 295.929688 244.375 342.054688 187.5 342.054688 C 130.628906 342.054688 84.523438 295.929688 84.523438 239.027344 C 84.523438 182.125 130.625 135.996094 187.5 135.996094 Z M 187.5 135.996094 " fill-opacity="1" fill-rule="evenodd"/><path fill="#f3c455" d="M 187.5 158.753906 C 231.8125 158.753906 267.734375 194.691406 267.734375 239.027344 C 267.734375 283.363281 231.8125 319.304688 187.5 319.304688 C 143.1875 319.304688 107.265625 283.363281 107.265625 239.027344 C 107.265625 194.691406 143.1875 158.753906 187.5 158.753906 Z M 187.5 158.753906 " fill-opacity="1" fill-rule="evenodd"/><g clip-path="url(#1c4e50d253)"><path fill="#112d4e" d="M 196.96875 239.027344 C 196.96875 244.253906 192.71875 248.488281 187.5 248.488281 C 186.894531 248.488281 186.285156 248.429688 185.714844 248.324219 L 168.238281 265.816406 C 167.203125 266.855469 165.84375 267.371094 164.484375 267.371094 C 163.128906 267.371094 161.769531 266.855469 160.734375 265.816406 C 158.660156 263.742188 158.660156 260.371094 160.734375 258.296875 L 178.207031 240.804688 C 178.101562 240.226562 178.03125 239.636719 178.03125 239.027344 C 178.03125 235.777344 179.671875 232.898438 182.175781 231.199219 L 182.175781 197.792969 C 182.175781 194.855469 184.570312 192.476562 187.5 192.476562 C 190.429688 192.476562 192.824219 194.855469 192.824219 197.792969 L 192.824219 231.195312 C 195.328125 232.898438 196.96875 235.777344 196.96875 239.027344 Z M 192.824219 296.226562 L 192.824219 304.59375 C 192.824219 307.523438 190.429688 309.910156 187.5 309.910156 C 184.570312 309.910156 182.175781 307.527344 182.175781 304.59375 L 182.175781 296.226562 C 182.175781 293.292969 184.570312 290.90625 187.5 290.90625 C 190.429688 290.90625 192.824219 293.292969 192.824219 296.226562 Z M 150.835938 194.824219 C 152.90625 196.898438 152.90625 200.261719 150.835938 202.34375 C 149.796875 203.382812 148.441406 203.902344 147.082031 203.902344 C 145.726562 203.902344 144.367188 203.386719 143.332031 202.34375 L 137.398438 196.425781 C 135.328125 194.355469 135.328125 190.980469 137.398438 188.910156 C 139.472656 186.835938 142.867188 186.835938 144.902344 188.910156 Z M 239.351562 239.027344 C 239.351562 236.097656 241.746094 233.710938 244.675781 233.710938 L 253.039062 233.710938 C 255.96875 233.710938 258.363281 236.097656 258.363281 239.027344 C 258.363281 241.964844 255.96875 244.34375 253.039062 244.34375 L 244.675781 244.34375 C 241.746094 244.34375 239.351562 241.964844 239.351562 239.027344 Z M 237.601562 188.910156 C 239.671875 190.980469 239.671875 194.355469 237.601562 196.425781 L 231.667969 202.34375 C 230.632812 203.382812 229.273438 203.902344 227.917969 203.902344 C 226.558594 203.902344 225.199219 203.386719 224.164062 202.34375 C 222.089844 200.261719 222.089844 196.898438 224.164062 194.824219 L 230.097656 188.90625 C 232.167969 186.835938 235.527344 186.835938 237.601562 188.910156 Z M 150.835938 275.71875 C 152.90625 277.792969 152.90625 281.15625 150.835938 283.230469 L 144.902344 289.144531 C 143.902344 290.1875 142.507812 290.703125 141.152344 290.703125 C 139.792969 290.703125 138.433594 290.1875 137.398438 289.144531 C 135.328125 287.074219 135.328125 283.707031 137.398438 281.628906 L 143.332031 275.71875 C 145.402344 273.636719 148.761719 273.636719 150.835938 275.71875 Z M 135.648438 239.027344 C 135.648438 241.964844 133.253906 244.34375 130.324219 244.34375 L 121.960938 244.34375 C 119.03125 244.34375 116.671875 241.964844 116.671875 239.027344 C 116.671875 236.097656 119.03125 233.710938 121.960938 233.710938 L 130.324219 233.710938 C 133.253906 233.710938 135.648438 236.097656 135.648438 239.027344 Z M 182.175781 181.828125 L 182.175781 173.46875 C 182.175781 170.527344 184.570312 168.152344 187.5 168.152344 C 190.429688 168.152344 192.824219 170.527344 192.824219 173.46875 L 192.824219 181.828125 C 192.824219 184.769531 190.429688 187.144531 187.5 187.144531 C 184.570312 187.144531 182.175781 184.769531 182.175781 181.828125 Z M 237.601562 281.628906 C 239.671875 283.707031 239.671875 287.074219 237.601562 289.144531 C 236.566406 290.1875 235.207031 290.703125 233.847656 290.703125 C 232.492188 290.703125 231.132812 290.1875 230.097656 289.144531 L 224.164062 283.230469 C 222.09375 281.15625 222.09375 277.789062 224.164062 275.71875 C 226.238281 273.636719 229.597656 273.636719 231.667969 275.71875 Z M 187.5 313.988281 C 228.808594 313.988281 262.4375 280.359375 262.4375 239.027344 C 262.4375 197.695312 228.8125 164.070312 187.5 164.070312 C 146.1875 164.070312 112.597656 197.695312 112.597656 239.027344 C 112.597656 280.359375 146.1875 313.988281 187.5 313.988281 Z M 187.5 153.4375 C 140.328125 153.4375 101.949219 191.832031 101.949219 239.027344 C 101.949219 286.222656 140.328125 324.621094 187.5 324.621094 C 234.671875 324.621094 273.050781 286.222656 273.050781 239.027344 C 273.050781 191.832031 234.671875 153.4375 187.5 153.4375 Z M 309.859375 179.4375 L 283.449219 179.4375 L 283.449219 153.023438 L 309.859375 153.023438 Z M 187.5 336.746094 C 241.351562 336.746094 285.164062 292.90625 285.164062 239.027344 C 285.164062 185.148438 241.351562 141.320312 187.5 141.320312 C 133.648438 141.320312 89.835938 185.148438 89.835938 239.027344 C 89.835938 292.90625 133.648438 336.746094 187.5 336.746094 Z M 309.859375 225.820312 L 309.859375 252.234375 L 294.992188 252.234375 C 295.527344 247.90625 295.777344 243.5 295.777344 239.027344 C 295.777344 234.554688 295.527344 230.148438 294.992188 225.820312 Z M 65.140625 252.234375 L 65.140625 225.820312 L 80.007812 225.820312 C 79.507812 230.148438 79.222656 234.554688 79.222656 239.027344 C 79.222656 243.5 79.507812 247.90625 80.007812 252.234375 Z M 309.859375 325.039062 L 283.449219 325.039062 L 283.449219 298.617188 L 309.859375 298.617188 Z M 91.550781 325.039062 L 65.140625 325.039062 L 65.140625 298.617188 L 91.550781 298.617188 Z M 65.140625 153.023438 L 91.550781 153.023438 L 91.550781 179.4375 L 65.140625 179.4375 Z M 315.183594 142.390625 L 278.125 142.390625 C 275.195312 142.390625 272.835938 144.765625 272.835938 147.707031 L 272.835938 172.375 C 252.96875 147.015625 222.128906 130.6875 187.5 130.6875 C 152.90625 130.6875 122.03125 147.015625 102.199219 172.375 L 102.199219 147.707031 C 102.199219 144.765625 99.804688 142.390625 96.875 142.390625 L 59.851562 142.390625 C 56.921875 142.390625 54.527344 144.765625 54.527344 147.707031 L 54.527344 184.753906 C 54.527344 187.695312 56.921875 190.070312 59.851562 190.070312 L 90.90625 190.070312 C 86.90625 197.9375 83.867188 206.359375 81.867188 215.1875 L 59.851562 215.1875 C 56.921875 215.1875 54.527344 217.570312 54.527344 220.503906 L 54.527344 257.550781 C 54.527344 260.492188 56.921875 262.871094 59.851562 262.871094 L 81.867188 262.871094 C 83.867188 271.695312 86.90625 280.117188 90.90625 287.984375 L 59.851562 287.984375 C 56.921875 287.984375 54.527344 290.371094 54.527344 293.300781 L 54.527344 330.355469 C 54.527344 333.289062 56.921875 335.675781 59.851562 335.675781 L 96.875 335.675781 C 99.804688 335.675781 102.199219 333.289062 102.199219 330.355469 L 102.199219 305.683594 C 122.03125 331.050781 152.90625 347.378906 187.5 347.378906 C 222.128906 347.378906 252.96875 331.042969 272.835938 305.683594 L 272.835938 330.355469 C 272.835938 333.289062 275.195312 335.675781 278.125 335.675781 L 315.183594 335.675781 C 318.113281 335.675781 320.472656 333.289062 320.472656 330.355469 L 320.472656 293.300781 C 320.472656 290.371094 318.113281 287.984375 315.183594 287.984375 L 284.09375 287.984375 C 288.09375 280.117188 291.167969 271.695312 293.132812 262.871094 L 315.183594 262.871094 C 318.113281 262.871094 320.472656 260.492188 320.472656 257.550781 L 320.472656 220.503906 C 320.472656 217.570312 318.113281 215.1875 315.183594 215.1875 L 293.132812 215.1875 C 291.167969 206.359375 288.09375 197.9375 284.09375 190.070312 L 315.183594 190.070312 C 318.113281 190.070312 320.472656 187.691406 320.472656 184.753906 L 320.472656 147.707031 C 320.472656 144.765625 318.113281 142.390625 315.183594 142.390625 Z M 339.160156 362.109375 C 353.0625 362.109375 364.355469 350.785156 364.355469 336.871094 L 364.355469 115.941406 L 10.644531 115.941406 L 10.644531 336.871094 C 10.644531 350.785156 21.9375 362.109375 35.875 362.109375 Z M 35.875 48.234375 L 61.855469 48.234375 L 61.855469 77.414062 C 61.855469 80.34375 64.210938 82.730469 67.140625 82.730469 L 106.414062 82.730469 C 109.347656 82.730469 111.738281 80.34375 111.738281 77.414062 L 111.738281 48.234375 L 162.554688 48.234375 L 162.554688 77.414062 C 162.554688 80.34375 164.949219 82.730469 167.878906 82.730469 L 207.117188 82.730469 C 210.046875 82.730469 212.441406 80.34375 212.441406 77.414062 L 212.441406 48.234375 L 263.292969 48.234375 L 263.292969 77.414062 C 263.292969 80.34375 265.652344 82.730469 268.582031 82.730469 L 307.855469 82.730469 C 310.785156 82.730469 313.144531 80.34375 313.144531 77.414062 L 313.144531 48.234375 L 339.160156 48.234375 C 353.0625 48.234375 364.355469 59.558594 364.355469 73.480469 L 364.355469 105.308594 L 10.644531 105.308594 L 10.644531 73.480469 C 10.644531 59.558594 21.9375 48.234375 35.875 48.234375 Z M 72.46875 13.078125 L 72.46875 72.097656 L 101.089844 72.097656 L 101.089844 13.078125 Z M 173.207031 13.078125 L 173.207031 72.097656 L 201.832031 72.097656 L 201.832031 13.078125 Z M 273.910156 13.078125 L 273.910156 72.097656 L 302.53125 72.097656 L 302.53125 13.078125 Z M 339.160156 37.601562 L 313.144531 37.601562 L 313.144531 7.761719 C 313.144531 4.820312 310.789062 2.445312 307.859375 2.445312 L 268.585938 2.445312 C 265.652344 2.445312 263.296875 4.820312 263.296875 7.761719 L 263.296875 37.601562 L 212.445312 37.601562 L 212.445312 7.761719 C 212.445312 4.820312 210.050781 2.445312 207.121094 2.445312 L 167.882812 2.445312 C 164.953125 2.445312 162.558594 4.820312 162.558594 7.761719 L 162.558594 37.601562 L 111.742188 37.601562 L 111.742188 7.761719 C 111.742188 4.820312 109.347656 2.445312 106.417969 2.445312 L 67.140625 2.445312 C 64.210938 2.445312 61.855469 4.820312 61.855469 7.761719 L 61.855469 37.601562 L 35.875 37.601562 C 16.078125 37.601562 -0.00390625 53.695312 -0.00390625 73.480469 L -0.00390625 336.871094 C -0.00390625 356.648438 16.078125 372.742188 35.875 372.742188 L 339.160156 372.742188 C 358.921875 372.742188 375.003906 356.648438 375.003906 336.871094 L 375.003906 73.480469 C 375.003906 53.695312 358.921875 37.601562 339.160156 37.601562 Z M 339.160156 37.601562 " fill-opacity="1" fill-rule="evenodd"/></g></svg>