<svg xmlns="http://www.w3.org/2000/svg" xmlns:xlink="http://www.w3.org/1999/xlink" width="500" zoomAndPan="magnify" viewBox="0 0 375 374.999991" height="500" preserveAspectRatio="xMidYMid meet" version="1.0"><defs><clipPath id="00ad4be264"><path d="M 68 12.871094 L 307 12.871094 L 307 312 L 68 312 Z M 68 12.871094 " clip-rule="nonzero"/></clipPath><clipPath id="93325b9aa2"><path d="M 12.871094 216 L 362.371094 216 L 362.371094 362.371094 L 12.871094 362.371094 Z M 12.871094 216 " clip-rule="nonzero"/></clipPath><clipPath id="d4ac283425"><path d="M 12.871094 216 L 362.371094 216 L 362.371094 362.371094 L 12.871094 362.371094 Z M 12.871094 216 " clip-rule="nonzero"/></clipPath><clipPath id="17ab40a71b"><path d="M 56 12.871094 L 319 12.871094 L 319 195 L 56 195 Z M 56 12.871094 " clip-rule="nonzero"/></clipPath></defs><g clip-path="url(#00ad4be264)"><path fill="#eceff1" d="M 306.84375 52.917969 C 306.84375 30.796875 290.53125 12.871094 270.40625 12.871094 L 104.816406 12.871094 C 84.707031 12.871094 68.382812 30.796875 68.382812 52.917969 L 68.382812 300.480469 C 68.382812 303.375 69.429688 306.15625 71.292969 308.195312 C 73.15625 310.234375 75.691406 311.402344 78.3125 311.402344 L 296.894531 311.402344 C 302.386719 311.402344 306.828125 306.507812 306.828125 300.480469 L 306.828125 52.917969 Z M 306.84375 52.917969 " fill-opacity="1" fill-rule="nonzero"/></g><g clip-path="url(#93325b9aa2)"><path fill="#f3c455" d="M 336.886719 216.746094 L 296.75 216.746094 C 285.492188 216.746094 275.578125 224.128906 272.34375 234.902344 L 255.945312 289.558594 L 119.304688 289.558594 L 102.910156 234.917969 C 99.660156 224.128906 89.730469 216.746094 78.472656 216.746094 L 38.355469 216.746094 C 24.285156 216.746094 12.871094 228.160156 12.871094 242.230469 L 12.871094 322.324219 C 12.871094 344.441406 30.796875 362.371094 52.917969 362.371094 L 322.324219 362.371094 C 344.441406 362.371094 362.371094 344.441406 362.371094 322.324219 L 362.371094 242.230469 C 362.371094 228.160156 350.953125 216.746094 336.886719 216.746094 Z M 336.886719 216.746094 " fill-opacity="1" fill-rule="nonzero"/></g><path fill="#181818" d="M 187.621094 216.746094 C 157.519531 216.746094 133.011719 192.234375 133.011719 162.136719 L 133.011719 103.886719 C 133.011719 85.828125 147.71875 71.121094 165.777344 71.121094 C 183.832031 71.121094 198.542969 85.828125 198.542969 103.886719 L 198.542969 162.136719 C 198.542969 168.164062 193.648438 173.058594 187.621094 173.058594 C 181.589844 173.058594 176.699219 168.164062 176.699219 162.136719 L 176.699219 103.886719 C 176.699219 97.871094 171.789062 92.964844 165.777344 92.964844 C 159.761719 92.964844 154.855469 97.871094 154.855469 103.886719 L 154.855469 162.136719 C 154.855469 180.191406 169.5625 194.902344 187.621094 194.902344 C 205.675781 194.902344 220.386719 180.191406 220.386719 162.136719 L 220.386719 82.042969 C 220.386719 76.011719 225.277344 71.121094 231.308594 71.121094 C 237.335938 71.121094 242.230469 76.011719 242.230469 82.042969 L 242.230469 162.136719 C 242.230469 192.234375 217.71875 216.746094 187.621094 216.746094 Z M 187.621094 216.746094 " fill-opacity="1" fill-rule="nonzero"/><g clip-path="url(#d4ac283425)"><path fill="#181818" d="M 322.324219 362.371094 L 52.917969 362.371094 C 30.824219 362.371094 12.871094 344.414062 12.871094 322.324219 L 12.871094 242.230469 C 12.871094 228.175781 24.300781 216.746094 38.355469 216.746094 L 78.488281 216.746094 C 89.816406 216.746094 99.632812 224.039062 102.910156 234.902344 L 118.519531 286.949219 C 118.972656 288.492188 120.414062 289.558594 122 289.558594 L 253.238281 289.558594 C 254.824219 289.558594 256.265625 288.492188 256.71875 286.949219 L 272.328125 234.902344 C 275.605469 224.039062 285.421875 216.746094 296.75 216.746094 L 336.886719 216.746094 C 350.9375 216.746094 362.371094 228.175781 362.371094 242.230469 L 362.371094 322.324219 C 362.371094 344.414062 344.414062 362.371094 322.324219 362.371094 Z M 38.355469 238.589844 C 36.34375 238.589844 34.714844 240.21875 34.714844 242.230469 L 34.714844 322.324219 C 34.714844 332.355469 42.882812 340.527344 52.917969 340.527344 L 322.324219 340.527344 C 332.355469 340.527344 340.527344 332.355469 340.527344 322.324219 L 340.527344 242.230469 C 340.527344 240.21875 338.894531 238.589844 336.886719 238.589844 L 296.75 238.589844 C 295.132812 238.589844 293.722656 239.621094 293.269531 241.195312 L 277.660156 293.242188 C 274.441406 303.929688 264.40625 311.402344 253.238281 311.402344 L 122 311.402344 C 110.832031 311.402344 100.796875 303.929688 97.578125 293.242188 L 81.96875 241.195312 C 81.515625 239.621094 80.105469 238.589844 78.488281 238.589844 Z M 38.355469 238.589844 " fill-opacity="1" fill-rule="nonzero"/></g><g clip-path="url(#17ab40a71b)"><path fill="#181818" d="M 307.761719 194.902344 C 301.730469 194.902344 296.839844 190.007812 296.839844 183.980469 L 296.839844 52.917969 C 296.839844 42.882812 288.667969 34.714844 278.636719 34.714844 L 96.605469 34.714844 C 86.570312 34.714844 78.402344 42.882812 78.402344 52.917969 L 78.402344 183.980469 C 78.402344 190.007812 73.507812 194.902344 67.480469 194.902344 C 61.449219 194.902344 56.558594 190.007812 56.558594 183.980469 L 56.558594 52.917969 C 56.558594 30.824219 74.511719 12.871094 96.605469 12.871094 L 278.636719 12.871094 C 300.726562 12.871094 318.683594 30.824219 318.683594 52.917969 L 318.683594 183.980469 C 318.683594 190.007812 313.789062 194.902344 307.761719 194.902344 Z M 307.761719 194.902344 " fill-opacity="1" fill-rule="nonzero"/></g></svg>