<svg xmlns="http://www.w3.org/2000/svg" xmlns:xlink="http://www.w3.org/1999/xlink" width="500" zoomAndPan="magnify" viewBox="0 0 375 374.999991" height="500" preserveAspectRatio="xMidYMid meet" version="1.0"><defs><clipPath id="a0daf3c576"><path d="M 43.59375 31 L 331.59375 31 L 331.59375 375 L 43.59375 375 Z M 43.59375 31 " clip-rule="nonzero"/></clipPath></defs><path fill="#78c2b0" d="M 140.519531 279.449219 C 137.632812 276.5625 132.941406 276.5625 130.046875 279.449219 L 97.378906 312.089844 L 85.175781 299.894531 C 82.289062 297.007812 77.597656 297.007812 74.699219 299.894531 C 71.8125 302.777344 71.8125 307.464844 74.699219 310.359375 L 92.140625 327.789062 C 95.027344 330.671875 99.707031 330.671875 102.621094 327.777344 L 140.511719 289.914062 C 143.40625 287.019531 143.40625 282.332031 140.519531 279.449219 Z M 140.519531 279.449219 " fill-opacity="1" fill-rule="evenodd"/><path fill="#78c2b0" d="M 102.621094 241.425781 L 140.511719 203.558594 C 143.398438 200.675781 143.398438 195.988281 140.511719 193.09375 C 137.625 190.207031 132.933594 190.207031 130.035156 193.09375 L 97.371094 225.738281 L 85.164062 213.539062 C 82.277344 210.652344 77.585938 210.652344 74.691406 213.539062 C 71.804688 216.425781 71.804688 221.113281 74.691406 224.003906 L 92.128906 241.433594 C 95.035156 244.316406 99.71875 244.316406 102.621094 241.425781 Z M 102.621094 241.425781 " fill-opacity="1" fill-rule="evenodd"/><path fill="#78c2b0" d="M 102.621094 155.070312 L 140.511719 117.207031 C 143.398438 114.320312 143.398438 109.632812 140.511719 106.738281 C 137.625 103.851562 132.933594 103.851562 130.035156 106.738281 L 97.371094 139.382812 L 85.164062 127.183594 C 82.277344 124.296875 77.585938 124.296875 74.691406 127.183594 C 71.804688 130.070312 71.804688 134.757812 74.691406 137.652344 L 92.128906 155.078125 C 95.035156 157.972656 99.71875 157.972656 102.621094 155.070312 Z M 102.621094 155.070312 " fill-opacity="1" fill-rule="evenodd"/><path fill="#f19a7b" d="M 171.578125 118.484375 L 171.578125 143.332031 C 171.578125 147.273438 174.773438 150.46875 178.71875 150.46875 L 295.449219 150.46875 C 299.394531 150.46875 302.59375 147.273438 302.59375 143.339844 L 302.59375 118.492188 C 302.601562 114.550781 299.402344 111.355469 295.449219 111.355469 L 178.710938 111.355469 C 174.773438 111.355469 171.578125 114.550781 171.578125 118.484375 Z M 171.578125 118.484375 " fill-opacity="1" fill-rule="evenodd"/><path fill="#f19a7b" d="M 295.441406 197.699219 L 178.710938 197.699219 C 174.765625 197.699219 171.566406 200.898438 171.566406 204.839844 L 171.566406 229.6875 C 171.566406 233.621094 174.765625 236.824219 178.710938 236.824219 L 295.441406 236.824219 C 299.386719 236.824219 302.582031 233.628906 302.582031 229.6875 L 302.582031 204.839844 C 302.582031 200.898438 299.386719 197.699219 295.441406 197.699219 Z M 295.441406 197.699219 " fill-opacity="1" fill-rule="evenodd"/><path fill="#f19a7b" d="M 295.441406 284.0625 L 178.710938 284.0625 C 174.765625 284.0625 171.566406 287.261719 171.566406 291.203125 L 171.566406 316.050781 C 171.566406 319.992188 174.765625 323.1875 178.710938 323.1875 L 295.441406 323.1875 C 299.386719 323.1875 302.582031 319.992188 302.582031 316.050781 L 302.582031 291.191406 C 302.582031 287.25 299.386719 284.0625 295.441406 284.0625 Z M 295.441406 284.0625 " fill-opacity="1" fill-rule="evenodd"/><path fill="#2d5485" d="M 260.511719 55.203125 C 260.511719 61.417969 265.546875 66.449219 271.765625 66.449219 L 271.800781 66.449219 C 278.027344 66.449219 283.066406 61.417969 283.058594 55.195312 L 283.058594 15.546875 C 283.058594 9.332031 278.019531 4.296875 271.800781 4.296875 L 271.765625 4.296875 C 265.546875 4.296875 260.511719 9.332031 260.511719 15.546875 Z M 260.511719 55.203125 " fill-opacity="1" fill-rule="evenodd"/><path fill="#2d5485" d="M 198.832031 55.195312 L 198.832031 15.546875 C 198.832031 9.332031 193.792969 4.296875 187.574219 4.296875 L 187.539062 4.296875 C 181.320312 4.296875 176.285156 9.332031 176.285156 15.546875 L 176.285156 55.203125 C 176.285156 61.417969 181.320312 66.449219 187.539062 66.449219 L 187.574219 66.449219 C 193.792969 66.449219 198.832031 61.417969 198.832031 55.195312 Z M 198.832031 55.195312 " fill-opacity="1" fill-rule="evenodd"/><path fill="#2d5485" d="M 114.597656 55.195312 L 114.597656 15.546875 C 114.597656 9.332031 109.558594 4.296875 103.339844 4.296875 L 103.304688 4.296875 C 97.085938 4.296875 92.050781 9.332031 92.050781 15.546875 L 92.050781 55.203125 C 92.050781 61.417969 97.085938 66.449219 103.304688 66.449219 L 103.339844 66.449219 C 109.558594 66.449219 114.605469 61.417969 114.597656 55.195312 Z M 114.597656 55.195312 " fill-opacity="1" fill-rule="evenodd"/><path fill="#f3c455" d="M 114.597656 35.371094 L 114.597656 55.195312 C 114.605469 61.417969 109.558594 66.449219 103.339844 66.449219 L 103.304688 66.449219 C 97.085938 66.449219 92.050781 61.417969 92.050781 55.203125 L 92.050781 35.371094 L 62.007812 35.371094 C 54.214844 35.371094 47.898438 41.679688 47.898438 49.46875 L 47.898438 356.675781 C 47.898438 364.460938 54.214844 370.773438 62.007812 370.773438 L 313.109375 370.773438 C 320.902344 370.773438 327.21875 364.460938 327.21875 356.675781 L 327.21875 49.46875 C 327.21875 41.679688 320.902344 35.371094 313.109375 35.371094 L 283.058594 35.371094 L 283.058594 55.195312 C 283.066406 61.417969 278.027344 66.449219 271.800781 66.449219 L 271.765625 66.449219 C 265.546875 66.449219 260.511719 61.417969 260.511719 55.203125 L 260.511719 35.371094 L 198.832031 35.371094 L 198.832031 55.195312 C 198.832031 61.417969 193.792969 66.449219 187.574219 66.449219 L 187.539062 66.449219 C 181.320312 66.449219 176.285156 61.417969 176.285156 55.203125 L 176.285156 35.371094 Z M 178.710938 111.355469 L 295.441406 111.355469 C 299.386719 111.355469 302.582031 114.550781 302.582031 118.492188 L 302.582031 143.339844 C 302.582031 147.273438 299.386719 150.46875 295.441406 150.46875 L 178.710938 150.46875 C 174.765625 150.46875 171.566406 147.273438 171.566406 143.332031 L 171.566406 118.484375 C 171.578125 114.550781 174.773438 111.355469 178.710938 111.355469 Z M 178.710938 197.699219 L 295.441406 197.699219 C 299.386719 197.699219 302.582031 200.898438 302.582031 204.839844 L 302.582031 229.6875 C 302.582031 233.628906 299.386719 236.824219 295.441406 236.824219 L 178.710938 236.824219 C 174.765625 236.824219 171.566406 233.628906 171.566406 229.6875 L 171.566406 204.839844 C 171.578125 200.898438 174.773438 197.699219 178.710938 197.699219 Z M 178.710938 284.0625 L 295.441406 284.0625 C 299.386719 284.0625 302.582031 287.25 302.582031 291.203125 L 302.582031 316.050781 C 302.582031 319.992188 299.386719 323.1875 295.441406 323.1875 L 178.710938 323.1875 C 174.765625 323.1875 171.566406 319.992188 171.566406 316.050781 L 171.566406 291.191406 C 171.578125 287.261719 174.773438 284.0625 178.710938 284.0625 Z M 140.519531 106.738281 C 143.40625 109.625 143.40625 114.3125 140.519531 117.207031 L 102.628906 155.070312 C 99.726562 157.964844 95.042969 157.964844 92.148438 155.078125 L 74.710938 137.652344 C 71.824219 134.765625 71.824219 130.078125 74.710938 127.183594 C 77.597656 124.296875 82.289062 124.296875 85.183594 127.183594 L 97.390625 139.382812 L 130.054688 106.738281 C 132.933594 103.851562 137.625 103.851562 140.519531 106.738281 Z M 97.378906 225.738281 L 130.046875 193.09375 C 132.933594 190.207031 137.625 190.207031 140.519531 193.09375 C 143.40625 195.976562 143.40625 200.664062 140.519531 203.558594 L 102.628906 241.425781 C 99.726562 244.316406 95.042969 244.316406 92.148438 241.433594 L 74.710938 224.003906 C 71.824219 221.121094 71.824219 216.433594 74.710938 213.539062 C 77.597656 210.652344 82.289062 210.652344 85.183594 213.539062 Z M 130.046875 279.449219 C 132.933594 276.5625 137.625 276.5625 140.519531 279.449219 C 143.40625 282.332031 143.40625 287.019531 140.519531 289.914062 L 102.628906 327.777344 C 99.726562 330.671875 95.042969 330.671875 92.148438 327.789062 L 74.710938 310.359375 C 71.824219 307.476562 71.824219 302.789062 74.710938 299.894531 C 77.597656 297.007812 82.289062 297.007812 85.183594 299.894531 L 97.390625 312.089844 Z M 130.046875 279.449219 " fill-opacity="1" fill-rule="evenodd"/><path fill="#112d4e" d="M 176.285156 39.628906 L 114.597656 39.628906 C 112.242188 39.628906 110.332031 37.722656 110.332031 35.371094 C 110.332031 33.015625 112.242188 31.109375 114.597656 31.109375 L 176.285156 31.109375 C 178.640625 31.109375 180.550781 33.015625 180.550781 35.371094 C 180.550781 37.722656 178.640625 39.628906 176.285156 39.628906 Z M 176.285156 39.628906 " fill-opacity="1" fill-rule="nonzero"/><g clip-path="url(#a0daf3c576)"><path fill="#112d4e" d="M 313.109375 375.035156 L 62.007812 375.035156 C 51.878906 375.035156 43.632812 366.796875 43.632812 356.675781 L 43.632812 49.46875 C 43.632812 39.347656 51.878906 31.109375 62.007812 31.109375 L 92.050781 31.109375 C 94.40625 31.109375 96.316406 33.015625 96.316406 35.371094 C 96.316406 37.722656 94.40625 39.628906 92.050781 39.628906 L 62.007812 39.628906 C 56.578125 39.628906 52.164062 44.042969 52.164062 49.46875 L 52.164062 356.675781 C 52.164062 362.101562 56.578125 366.511719 62.007812 366.511719 L 313.109375 366.511719 C 318.539062 366.511719 322.953125 362.101562 322.953125 356.675781 L 322.953125 49.46875 C 322.953125 44.042969 318.539062 39.628906 313.109375 39.628906 L 283.058594 39.628906 C 280.703125 39.628906 278.792969 37.722656 278.792969 35.371094 C 278.792969 33.015625 280.703125 31.109375 283.058594 31.109375 L 313.109375 31.109375 C 323.238281 31.109375 331.480469 39.347656 331.480469 49.46875 L 331.480469 356.675781 C 331.480469 366.796875 323.238281 375.035156 313.109375 375.035156 Z M 313.109375 375.035156 " fill-opacity="1" fill-rule="nonzero"/></g><path fill="#112d4e" d="M 260.511719 39.628906 L 198.832031 39.628906 C 196.476562 39.628906 194.566406 37.722656 194.566406 35.371094 C 194.566406 33.015625 196.476562 31.109375 198.832031 31.109375 L 260.511719 31.109375 C 262.863281 31.109375 264.773438 33.015625 264.773438 35.371094 C 264.773438 37.722656 262.863281 39.628906 260.511719 39.628906 Z M 260.511719 39.628906 " fill-opacity="1" fill-rule="nonzero"/><path fill="#112d4e" d="M 97.371094 161.496094 C 94.386719 161.496094 91.402344 160.359375 89.128906 158.097656 L 71.6875 140.667969 C 69.484375 138.46875 68.269531 135.539062 68.269531 132.421875 C 68.269531 129.304688 69.484375 126.375 71.6875 124.175781 C 73.890625 121.972656 76.824219 120.757812 79.941406 120.757812 C 83.058594 120.757812 85.992188 121.972656 88.195312 124.175781 L 97.378906 133.355469 L 127.023438 103.730469 C 129.226562 101.527344 132.160156 100.3125 135.277344 100.3125 C 138.394531 100.3125 141.328125 101.527344 143.53125 103.730469 C 145.734375 105.929688 146.949219 108.859375 146.949219 111.976562 C 146.949219 115.09375 145.734375 118.023438 143.53125 120.222656 L 105.640625 158.085938 C 103.359375 160.359375 100.367188 161.496094 97.371094 161.496094 Z M 79.941406 129.277344 C 79.132812 129.277344 78.335938 129.582031 77.722656 130.195312 C 76.496094 131.417969 76.496094 133.40625 77.722656 134.632812 L 95.160156 152.058594 C 96.386719 153.285156 98.382812 153.277344 99.621094 152.050781 L 137.507812 114.1875 C 138.101562 113.59375 138.433594 112.800781 138.433594 111.96875 C 138.433594 111.132812 138.101562 110.34375 137.507812 109.746094 C 136.28125 108.523438 134.292969 108.523438 133.066406 109.746094 L 100.402344 142.390625 C 99.601562 143.191406 98.519531 143.644531 97.390625 143.644531 C 96.261719 143.644531 95.175781 143.191406 94.378906 142.390625 L 82.171875 130.195312 C 81.550781 129.589844 80.742188 129.277344 79.941406 129.277344 Z M 79.941406 129.277344 " fill-opacity="1" fill-rule="nonzero"/><path fill="#112d4e" d="M 295.441406 154.730469 L 178.710938 154.730469 C 172.421875 154.730469 167.304688 149.617188 167.304688 143.332031 L 167.304688 118.484375 C 167.304688 112.199219 172.421875 107.09375 178.710938 107.09375 L 295.441406 107.09375 C 298.496094 107.09375 301.367188 108.28125 303.515625 110.441406 C 305.664062 112.597656 306.847656 115.457031 306.839844 118.5 L 306.839844 143.339844 C 306.847656 149.617188 301.730469 154.730469 295.441406 154.730469 Z M 178.710938 115.617188 C 177.128906 115.617188 175.839844 116.902344 175.839844 118.484375 L 175.839844 143.332031 C 175.839844 144.914062 177.128906 146.199219 178.710938 146.199219 L 295.441406 146.199219 C 297.023438 146.199219 298.320312 144.914062 298.320312 143.332031 L 298.320312 118.484375 C 298.320312 117.710938 298.027344 116.992188 297.484375 116.460938 C 296.941406 115.917969 296.214844 115.617188 295.441406 115.617188 Z M 178.710938 115.617188 " fill-opacity="1" fill-rule="nonzero"/><path fill="#112d4e" d="M 280.953125 135.175781 L 193.21875 135.175781 C 190.863281 135.175781 188.953125 133.265625 188.953125 130.914062 C 188.953125 128.558594 190.863281 126.652344 193.21875 126.652344 L 280.953125 126.652344 C 283.304688 126.652344 285.214844 128.558594 285.214844 130.914062 C 285.214844 133.265625 283.304688 135.175781 280.953125 135.175781 Z M 280.953125 135.175781 " fill-opacity="1" fill-rule="nonzero"/><path fill="#112d4e" d="M 97.371094 247.851562 C 94.386719 247.851562 91.402344 246.714844 89.128906 244.453125 L 71.6875 227.023438 C 69.484375 224.824219 68.269531 221.894531 68.269531 218.777344 C 68.269531 215.660156 69.484375 212.730469 71.6875 210.527344 C 76.238281 205.984375 83.644531 205.984375 88.195312 210.527344 L 97.378906 219.707031 L 127.023438 190.082031 C 129.226562 187.882812 132.160156 186.664062 135.277344 186.664062 C 138.394531 186.664062 141.328125 187.882812 143.53125 190.082031 C 145.734375 192.285156 146.949219 195.214844 146.949219 198.332031 C 146.949219 201.445312 145.734375 204.375 143.53125 206.578125 L 105.640625 244.441406 C 103.359375 246.714844 100.367188 247.851562 97.371094 247.851562 Z M 95.160156 238.421875 C 96.386719 239.648438 98.382812 239.640625 99.621094 238.414062 L 137.507812 200.550781 C 138.734375 199.324219 138.734375 197.335938 137.507812 196.113281 C 136.328125 194.929688 134.246094 194.929688 133.066406 196.113281 L 100.402344 228.753906 C 98.738281 230.414062 96.039062 230.414062 94.367188 228.753906 L 82.164062 216.558594 C 80.9375 215.332031 78.945312 215.332031 77.722656 216.558594 C 77.125 217.152344 76.804688 217.941406 76.804688 218.777344 C 76.804688 219.621094 77.136719 220.402344 77.722656 220.996094 Z M 95.160156 238.421875 " fill-opacity="1" fill-rule="nonzero"/><path fill="#112d4e" d="M 295.441406 241.085938 L 178.710938 241.085938 C 172.421875 241.085938 167.304688 235.972656 167.304688 229.695312 L 167.304688 204.847656 C 167.304688 198.5625 172.421875 193.457031 178.710938 193.457031 L 295.441406 193.457031 C 298.496094 193.457031 301.367188 194.648438 303.515625 196.804688 C 305.664062 198.960938 306.847656 201.820312 306.839844 204.863281 L 306.839844 229.707031 C 306.847656 235.972656 301.730469 241.085938 295.441406 241.085938 Z M 178.710938 201.960938 C 177.128906 201.960938 175.839844 203.25 175.839844 204.839844 L 175.839844 229.6875 C 175.839844 231.269531 177.128906 232.5625 178.710938 232.5625 L 295.441406 232.5625 C 297.023438 232.5625 298.320312 231.277344 298.320312 229.6875 L 298.320312 204.839844 C 298.320312 204.066406 298.027344 203.347656 297.484375 202.804688 C 296.941406 202.265625 296.214844 201.960938 295.441406 201.960938 Z M 178.710938 201.960938 " fill-opacity="1" fill-rule="nonzero"/><path fill="#112d4e" d="M 280.953125 221.527344 L 193.21875 221.527344 C 190.863281 221.527344 188.953125 219.621094 188.953125 217.265625 C 188.953125 214.914062 190.863281 213.007812 193.21875 213.007812 L 280.953125 213.007812 C 283.304688 213.007812 285.214844 214.914062 285.214844 217.265625 C 285.214844 219.621094 283.304688 221.527344 280.953125 221.527344 Z M 280.953125 221.527344 " fill-opacity="1" fill-rule="nonzero"/><path fill="#112d4e" d="M 97.371094 334.207031 C 94.386719 334.207031 91.402344 333.070312 89.128906 330.804688 L 71.6875 313.378906 C 69.484375 311.175781 68.269531 308.246094 68.269531 305.132812 C 68.269531 302.015625 69.484375 299.085938 71.6875 296.882812 C 73.890625 294.683594 76.824219 293.464844 79.941406 293.464844 C 83.058594 293.464844 85.992188 294.683594 88.195312 296.882812 L 97.378906 306.0625 L 127.023438 276.4375 C 129.226562 274.238281 132.160156 273.019531 135.277344 273.019531 C 138.394531 273.019531 141.328125 274.238281 143.53125 276.4375 C 145.734375 278.640625 146.949219 281.570312 146.949219 284.6875 C 146.949219 287.800781 145.734375 290.730469 143.53125 292.933594 L 105.640625 330.796875 C 103.359375 333.0625 100.367188 334.207031 97.371094 334.207031 Z M 95.160156 324.769531 C 96.386719 325.996094 98.382812 325.984375 99.621094 324.761719 L 137.507812 286.894531 C 138.101562 286.300781 138.433594 285.519531 138.433594 284.675781 C 138.433594 283.84375 138.101562 283.050781 137.515625 282.457031 C 136.328125 281.269531 134.257812 281.277344 133.074219 282.457031 L 100.410156 315.101562 C 98.75 316.761719 96.046875 316.761719 94.378906 315.101562 L 82.171875 302.902344 C 80.992188 301.714844 78.910156 301.722656 77.730469 302.902344 C 77.136719 303.496094 76.804688 304.289062 76.804688 305.121094 C 76.804688 305.957031 77.136719 306.746094 77.722656 307.34375 Z M 95.160156 324.769531 " fill-opacity="1" fill-rule="nonzero"/><path fill="#112d4e" d="M 295.441406 327.441406 L 178.710938 327.441406 C 172.421875 327.441406 167.304688 322.328125 167.304688 316.050781 L 167.304688 291.191406 C 167.304688 284.90625 172.421875 279.804688 178.710938 279.804688 L 295.441406 279.804688 C 298.496094 279.804688 301.367188 280.992188 303.515625 283.148438 C 305.664062 285.308594 306.847656 288.164062 306.839844 291.210938 L 306.839844 316.050781 C 306.847656 322.335938 301.730469 327.441406 295.441406 327.441406 Z M 178.710938 288.324219 C 177.128906 288.324219 175.839844 289.613281 175.839844 291.203125 L 175.839844 316.050781 C 175.839844 317.632812 177.128906 318.925781 178.710938 318.925781 L 295.441406 318.925781 C 297.023438 318.925781 298.320312 317.640625 298.320312 316.050781 L 298.320312 291.191406 C 298.320312 290.421875 298.027344 289.703125 297.484375 289.160156 C 296.941406 288.617188 296.214844 288.316406 295.441406 288.316406 L 178.710938 288.316406 Z M 178.710938 288.324219 " fill-opacity="1" fill-rule="nonzero"/><path fill="#112d4e" d="M 280.953125 307.882812 L 193.21875 307.882812 C 190.863281 307.882812 188.953125 305.976562 188.953125 303.621094 C 188.953125 301.269531 190.863281 299.359375 193.21875 299.359375 L 280.953125 299.359375 C 283.304688 299.359375 285.214844 301.269531 285.214844 303.621094 C 285.214844 305.976562 283.304688 307.882812 280.953125 307.882812 Z M 280.953125 307.882812 " fill-opacity="1" fill-rule="nonzero"/><path fill="#112d4e" d="M 103.339844 70.710938 L 103.304688 70.710938 C 94.75 70.710938 87.785156 63.75 87.785156 55.203125 L 87.785156 15.546875 C 87.785156 6.996094 94.75 0.0351562 103.304688 0.0351562 C 111.894531 0.0351562 118.859375 6.996094 118.859375 15.546875 L 118.859375 55.195312 C 118.871094 59.332031 117.253906 63.226562 114.320312 66.15625 C 111.390625 69.097656 107.488281 70.710938 103.339844 70.710938 Z M 103.339844 8.558594 C 99.449219 8.558594 96.316406 11.691406 96.316406 15.546875 L 96.316406 55.203125 C 96.316406 59.054688 99.449219 62.1875 103.304688 62.1875 L 103.339844 62.1875 C 105.214844 62.1875 106.976562 61.460938 108.289062 60.136719 C 109.605469 58.816406 110.332031 57.066406 110.332031 55.203125 L 110.332031 15.546875 C 110.332031 11.691406 107.195312 8.558594 103.339844 8.558594 Z M 103.339844 8.558594 " fill-opacity="1" fill-rule="nonzero"/><path fill="#112d4e" d="M 187.574219 70.710938 L 187.539062 70.710938 C 178.984375 70.710938 172.019531 63.75 172.019531 55.203125 L 172.019531 15.546875 C 172.019531 6.996094 178.984375 0.0351562 187.539062 0.0351562 C 196.132812 0.0351562 203.09375 6.996094 203.09375 15.546875 L 203.09375 55.195312 C 203.09375 63.75 196.132812 70.710938 187.574219 70.710938 Z M 187.574219 8.558594 C 183.683594 8.558594 180.550781 11.691406 180.550781 15.546875 L 180.550781 55.203125 C 180.550781 59.054688 183.683594 62.1875 187.539062 62.1875 L 187.574219 62.1875 C 191.429688 62.1875 194.566406 59.046875 194.566406 55.195312 L 194.566406 15.546875 C 194.566406 11.691406 191.429688 8.558594 187.574219 8.558594 Z M 187.574219 8.558594 " fill-opacity="1" fill-rule="nonzero"/><path fill="#112d4e" d="M 271.800781 70.710938 L 271.765625 70.710938 C 263.210938 70.710938 256.246094 63.75 256.246094 55.203125 L 256.246094 15.546875 C 256.246094 6.996094 263.210938 0.0351562 271.765625 0.0351562 C 280.355469 0.0351562 287.320312 6.996094 287.320312 15.546875 L 287.320312 55.195312 C 287.332031 59.332031 285.714844 63.226562 282.789062 66.167969 C 279.859375 69.097656 275.949219 70.710938 271.800781 70.710938 Z M 271.800781 8.558594 C 267.910156 8.558594 264.773438 11.691406 264.773438 15.546875 L 264.773438 55.203125 C 264.773438 59.054688 267.910156 62.1875 271.765625 62.1875 L 271.800781 62.1875 C 273.675781 62.1875 275.433594 61.460938 276.757812 60.136719 C 278.074219 58.816406 278.800781 57.066406 278.800781 55.195312 L 278.800781 15.546875 C 278.792969 11.691406 275.65625 8.558594 271.800781 8.558594 Z M 271.800781 8.558594 " fill-opacity="1" fill-rule="nonzero"/></svg>