<svg xmlns="http://www.w3.org/2000/svg" xmlns:xlink="http://www.w3.org/1999/xlink" width="500" zoomAndPan="magnify" viewBox="0 0 375 374.999991" height="500" preserveAspectRatio="xMidYMid meet" version="1.0"><defs><clipPath id="dbaa7c518f"><path d="M 52.03125 49 L 322.78125 49 L 322.78125 375 L 52.03125 375 Z M 52.03125 49 " clip-rule="nonzero"/></clipPath></defs><g clip-path="url(#dbaa7c518f)"><path fill="#181818" d="M 251.839844 49.210938 C 247.007812 49.210938 243.058594 52.945312 243.058594 57.996094 C 243.058594 62.828125 247.007812 66.785156 251.839844 66.785156 L 292.890625 66.785156 C 296.183594 66.785156 299.257812 68.101562 301.671875 70.296875 C 303.867188 72.496094 305.183594 75.570312 305.183594 79.085938 L 305.183594 345.121094 C 305.183594 348.417969 303.867188 351.492188 301.671875 353.910156 L 301.671875 353.691406 L 301.453125 353.910156 C 299.257812 356.105469 296.183594 357.425781 292.890625 357.425781 L 81.921875 357.425781 C 78.628906 357.425781 75.554688 356.105469 73.359375 353.691406 C 73.140625 353.691406 73.140625 353.472656 72.921875 353.472656 C 70.945312 351.273438 69.628906 348.199219 69.628906 345.121094 L 69.628906 79.085938 C 69.628906 75.570312 71.164062 72.496094 73.359375 70.296875 C 75.554688 68.101562 78.628906 66.785156 81.921875 66.785156 L 122.972656 66.785156 C 128.023438 66.785156 131.753906 62.828125 131.753906 57.996094 C 131.753906 52.945312 128.023438 49.210938 122.972656 49.210938 L 81.921875 49.210938 C 73.796875 49.210938 66.335938 52.503906 60.847656 57.996094 C 55.578125 63.269531 52.066406 70.738281 52.066406 79.085938 L 52.066406 345.121094 C 52.066406 353.03125 55.359375 360.28125 60.40625 365.554688 C 60.625 365.773438 60.625 365.992188 60.847656 366.210938 C 66.335938 371.703125 73.796875 375 81.921875 375 L 292.890625 375 C 301.015625 375 308.476562 371.703125 313.964844 366.210938 C 319.453125 360.71875 322.746094 353.25 322.746094 345.121094 L 322.746094 79.085938 C 322.746094 70.738281 319.453125 63.269531 313.964844 57.996094 C 308.476562 52.503906 301.015625 49.210938 292.890625 49.210938 Z M 251.839844 49.210938 " fill-opacity="1" fill-rule="nonzero"/></g><path fill="#181818" d="M 137.902344 29.878906 L 236.910156 29.878906 C 243.496094 29.878906 249.425781 32.511719 253.59375 36.6875 C 257.984375 41.082031 260.621094 47.011719 260.621094 53.601562 L 260.621094 62.171875 C 260.621094 68.761719 257.984375 74.691406 253.59375 79.085938 C 253.375 79.304688 253.15625 79.304688 252.9375 79.527344 C 248.765625 83.480469 243.058594 85.894531 236.910156 85.894531 L 137.902344 85.894531 C 131.535156 85.894531 125.609375 83.261719 121.21875 79.085938 L 121.21875 78.867188 C 116.828125 74.691406 114.191406 68.761719 114.191406 62.171875 L 114.191406 53.601562 C 114.191406 47.011719 117.046875 41.082031 121.21875 36.6875 C 125.609375 32.511719 131.535156 29.878906 137.902344 29.878906 Z M 236.910156 47.453125 L 137.902344 47.453125 C 136.363281 47.453125 134.828125 48.109375 133.730469 49.210938 C 132.632812 50.308594 131.753906 51.84375 131.753906 53.601562 L 131.753906 62.171875 C 131.753906 63.929688 132.632812 65.464844 133.511719 66.5625 L 133.730469 66.5625 C 134.828125 67.664062 136.363281 68.320312 137.902344 68.320312 L 236.910156 68.320312 C 238.449219 68.320312 239.765625 67.882812 240.863281 66.785156 C 241.082031 66.785156 241.082031 66.785156 241.300781 66.5625 C 242.398438 65.464844 243.058594 63.929688 243.058594 62.171875 L 243.058594 53.601562 C 243.058594 51.84375 242.398438 50.308594 241.300781 49.210938 C 240.203125 48.109375 238.667969 47.453125 236.910156 47.453125 Z M 236.910156 47.453125 " fill-opacity="1" fill-rule="nonzero"/><path fill="#181818" d="M 168.855469 29.878906 L 205.957031 29.878906 C 204.859375 27.460938 203.542969 25.484375 201.785156 23.507812 C 198.054688 19.992188 193.003906 17.574219 187.515625 17.574219 C 181.808594 17.574219 176.757812 19.992188 173.246094 23.507812 C 171.488281 25.484375 169.953125 27.460938 168.855469 29.878906 Z M 216.496094 47.453125 L 158.539062 47.453125 C 153.707031 47.453125 149.757812 43.496094 149.757812 38.664062 L 149.757812 37.785156 C 149.757812 27.460938 153.925781 18.015625 160.734375 11.203125 C 167.539062 4.394531 176.976562 0 187.515625 0 C 197.832031 0 207.273438 4.394531 214.078125 11.203125 C 220.886719 18.015625 225.277344 27.460938 225.277344 37.785156 L 225.277344 38.664062 C 225.277344 43.496094 221.324219 47.453125 216.496094 47.453125 Z M 216.496094 47.453125 " fill-opacity="1" fill-rule="nonzero"/><path fill="#181818" d="M 112.214844 105.449219 L 129.777344 105.449219 C 136.144531 105.449219 142.074219 108.085938 146.242188 112.257812 C 150.632812 116.433594 153.269531 122.363281 153.269531 128.734375 L 153.269531 146.527344 C 153.269531 152.898438 150.632812 158.832031 146.242188 163.003906 C 142.074219 167.179688 136.144531 169.816406 129.777344 169.816406 L 112.214844 169.816406 C 105.628906 169.816406 99.703125 167.179688 95.53125 163.003906 C 91.359375 158.832031 88.726562 152.898438 88.726562 146.527344 L 88.726562 128.734375 C 88.726562 122.363281 91.359375 116.433594 95.53125 112.257812 C 99.703125 108.085938 105.628906 105.449219 112.214844 105.449219 Z M 129.777344 123.023438 L 112.214844 123.023438 C 110.460938 123.023438 109.144531 123.683594 108.046875 124.78125 C 106.949219 125.660156 106.289062 127.195312 106.289062 128.734375 L 106.289062 146.527344 C 106.289062 148.066406 106.949219 149.605469 108.046875 150.703125 C 109.144531 151.582031 110.460938 152.242188 112.214844 152.242188 L 129.777344 152.242188 C 131.316406 152.242188 132.851562 151.582031 133.949219 150.703125 C 135.046875 149.605469 135.707031 148.066406 135.707031 146.527344 L 135.707031 128.734375 C 135.707031 127.195312 135.046875 125.660156 133.949219 124.78125 C 132.851562 123.683594 131.316406 123.023438 129.777344 123.023438 Z M 129.777344 123.023438 " fill-opacity="1" fill-rule="nonzero"/><path fill="#181818" d="M 112.214844 189.367188 L 129.777344 189.367188 C 136.144531 189.367188 142.074219 192.003906 146.242188 196.398438 C 150.632812 200.570312 153.269531 206.503906 153.269531 212.875 L 153.269531 230.449219 C 153.269531 237.039062 150.632812 242.75 146.242188 247.144531 C 142.074219 251.316406 136.144531 253.953125 129.777344 253.953125 L 112.214844 253.953125 C 105.628906 253.953125 99.703125 251.316406 95.53125 247.144531 C 91.359375 242.75 88.726562 237.039062 88.726562 230.449219 L 88.726562 212.875 C 88.726562 206.503906 91.359375 200.570312 95.53125 196.398438 C 99.703125 192.003906 105.628906 189.367188 112.214844 189.367188 Z M 129.777344 206.941406 L 112.214844 206.941406 C 110.460938 206.941406 109.144531 207.601562 108.046875 208.699219 C 106.949219 209.796875 106.289062 211.335938 106.289062 212.875 L 106.289062 230.449219 C 106.289062 232.207031 106.949219 233.523438 108.046875 234.621094 C 109.144531 235.71875 110.460938 236.378906 112.214844 236.378906 L 129.777344 236.378906 C 131.316406 236.378906 132.851562 235.71875 133.949219 234.621094 C 135.046875 233.523438 135.707031 232.207031 135.707031 230.449219 L 135.707031 212.875 C 135.707031 211.335938 135.046875 209.796875 133.949219 208.699219 C 132.851562 207.601562 131.316406 206.941406 129.777344 206.941406 Z M 129.777344 206.941406 " fill-opacity="1" fill-rule="nonzero"/><path fill="#181818" d="M 112.214844 273.507812 L 129.777344 273.507812 C 136.144531 273.507812 142.074219 276.140625 146.242188 280.316406 C 150.632812 284.492188 153.269531 290.421875 153.269531 296.792969 L 153.269531 314.585938 C 153.269531 320.957031 150.632812 326.890625 146.242188 331.0625 C 142.074219 335.457031 136.144531 338.09375 129.777344 338.09375 L 112.214844 338.09375 C 105.628906 338.09375 99.703125 335.457031 95.53125 331.0625 C 91.359375 326.890625 88.726562 320.957031 88.726562 314.585938 L 88.726562 296.792969 C 88.726562 290.421875 91.359375 284.492188 95.53125 280.316406 C 99.703125 276.140625 105.628906 273.507812 112.214844 273.507812 Z M 129.777344 291.082031 L 112.214844 291.082031 C 110.460938 291.082031 109.144531 291.738281 108.046875 292.839844 C 106.949219 293.9375 106.289062 295.253906 106.289062 296.792969 L 106.289062 314.585938 C 106.289062 316.125 106.949219 317.664062 108.046875 318.761719 C 109.144531 319.859375 110.460938 320.519531 112.214844 320.519531 L 129.777344 320.519531 C 131.316406 320.519531 132.851562 319.859375 133.949219 318.761719 C 135.046875 317.664062 135.707031 316.125 135.707031 314.585938 L 135.707031 296.792969 C 135.707031 295.253906 135.046875 293.9375 133.949219 292.839844 C 132.851562 291.738281 131.316406 291.082031 129.777344 291.082031 Z M 129.777344 291.082031 " fill-opacity="1" fill-rule="nonzero"/><path fill="#181818" d="M 180.929688 128.953125 C 176.101562 128.953125 172.148438 132.6875 172.148438 137.742188 C 172.148438 142.574219 176.101562 146.527344 180.929688 146.527344 L 277.304688 146.527344 C 282.355469 146.527344 286.085938 142.574219 286.085938 137.742188 C 286.085938 132.6875 282.355469 128.953125 277.304688 128.953125 Z M 180.929688 128.953125 " fill-opacity="1" fill-rule="nonzero"/><path fill="#181818" d="M 180.929688 212.875 C 176.101562 212.875 172.148438 216.828125 172.148438 221.660156 C 172.148438 226.492188 176.101562 230.449219 180.929688 230.449219 L 277.304688 230.449219 C 282.355469 230.449219 286.085938 226.492188 286.085938 221.660156 C 286.085938 216.828125 282.355469 212.875 277.304688 212.875 Z M 180.929688 212.875 " fill-opacity="1" fill-rule="nonzero"/><path fill="#181818" d="M 180.929688 297.011719 C 176.101562 297.011719 172.148438 300.964844 172.148438 305.800781 C 172.148438 310.632812 176.101562 314.585938 180.929688 314.585938 L 277.304688 314.585938 C 282.355469 314.585938 286.085938 310.632812 286.085938 305.800781 C 286.085938 300.964844 282.355469 297.011719 277.304688 297.011719 Z M 180.929688 297.011719 " fill-opacity="1" fill-rule="nonzero"/><path fill="#ea7e23" d="M 168.855469 29.878906 L 205.957031 29.878906 C 204.859375 27.460938 203.542969 25.484375 201.785156 23.507812 C 198.054688 19.992188 193.003906 17.574219 187.515625 17.574219 C 181.808594 17.574219 176.757812 19.992188 173.246094 23.507812 C 171.488281 25.484375 169.953125 27.460938 168.855469 29.878906 Z M 168.855469 29.878906 " fill-opacity="1" fill-rule="evenodd"/><path fill="#ea7e23" d="M 133.730469 66.5625 Z M 216.496094 47.453125 L 137.902344 47.453125 C 134.609375 47.453125 131.753906 50.085938 131.753906 53.601562 L 131.753906 62.171875 C 131.753906 63.929688 132.632812 65.464844 133.730469 66.5625 C 134.828125 67.664062 136.363281 68.320312 137.902344 68.320312 L 236.910156 68.320312 C 238.667969 68.320312 239.984375 67.664062 241.300781 66.5625 C 242.398438 65.464844 243.058594 63.929688 243.058594 62.171875 L 243.058594 53.601562 C 243.058594 50.085938 240.203125 47.453125 236.910156 47.453125 Z M 216.496094 47.453125 " fill-opacity="1" fill-rule="evenodd"/><path fill="#78c2b0" d="M 133.949219 124.78125 C 132.851562 123.683594 131.316406 123.023438 129.777344 123.023438 L 112.214844 123.023438 C 110.460938 123.023438 109.144531 123.683594 108.046875 124.78125 C 106.949219 125.660156 106.289062 127.195312 106.289062 128.734375 L 106.289062 146.527344 C 106.289062 148.066406 106.949219 149.605469 108.046875 150.703125 C 109.144531 151.582031 110.460938 152.242188 112.214844 152.242188 L 129.777344 152.242188 C 131.316406 152.242188 132.851562 151.582031 133.949219 150.703125 C 135.046875 149.605469 135.707031 148.066406 135.707031 146.527344 L 135.707031 128.734375 C 135.707031 127.195312 135.046875 125.660156 133.949219 124.78125 Z M 133.949219 124.78125 " fill-opacity="1" fill-rule="evenodd"/><path fill="#78c2b0" d="M 129.777344 206.941406 L 112.214844 206.941406 C 110.460938 206.941406 109.144531 207.601562 108.046875 208.699219 C 106.949219 209.796875 106.289062 211.335938 106.289062 212.875 L 106.289062 230.449219 C 106.289062 232.207031 106.949219 233.523438 108.046875 234.621094 C 109.144531 235.71875 110.460938 236.378906 112.214844 236.378906 L 129.777344 236.378906 C 131.316406 236.378906 132.851562 235.71875 133.949219 234.621094 C 135.046875 233.523438 135.707031 232.207031 135.707031 230.449219 L 135.707031 212.875 C 135.707031 211.335938 135.046875 209.796875 133.949219 208.699219 C 132.851562 207.601562 131.316406 206.941406 129.777344 206.941406 Z M 129.777344 206.941406 " fill-opacity="1" fill-rule="evenodd"/><path fill="#78c2b0" d="M 129.777344 291.082031 L 112.214844 291.082031 C 110.460938 291.082031 109.144531 291.738281 108.046875 292.839844 C 106.949219 293.9375 106.289062 295.253906 106.289062 296.792969 L 106.289062 314.585938 C 106.289062 316.125 106.949219 317.664062 108.046875 318.761719 C 109.144531 319.859375 110.460938 320.519531 112.214844 320.519531 L 129.777344 320.519531 C 131.316406 320.519531 132.851562 319.859375 133.949219 318.761719 C 135.046875 317.664062 135.707031 316.125 135.707031 314.585938 L 135.707031 296.792969 C 135.707031 295.253906 135.046875 293.9375 133.949219 292.839844 C 132.851562 291.738281 131.316406 291.082031 129.777344 291.082031 Z M 129.777344 291.082031 " fill-opacity="1" fill-rule="evenodd"/><path fill="#f3c455" d="M 146.242188 280.316406 C 150.632812 284.492188 153.269531 290.421875 153.269531 296.792969 L 153.269531 314.585938 C 153.269531 320.957031 150.632812 326.890625 146.242188 331.0625 C 142.074219 335.457031 136.144531 338.09375 129.777344 338.09375 L 112.214844 338.09375 C 105.628906 338.09375 99.703125 335.457031 95.53125 331.0625 C 91.359375 326.890625 88.726562 320.957031 88.726562 314.585938 L 88.726562 296.792969 C 88.726562 290.421875 91.359375 284.492188 95.53125 280.316406 C 99.703125 276.140625 105.628906 273.507812 112.214844 273.507812 L 129.777344 273.507812 C 136.144531 273.507812 142.074219 276.140625 146.242188 280.316406 Z M 277.304688 230.449219 L 180.929688 230.449219 C 176.101562 230.449219 172.148438 226.492188 172.148438 221.660156 C 172.148438 216.828125 176.101562 212.875 180.929688 212.875 L 277.304688 212.875 C 282.355469 212.875 286.085938 216.828125 286.085938 221.660156 C 286.085938 226.492188 282.355469 230.449219 277.304688 230.449219 Z M 277.304688 146.527344 L 180.929688 146.527344 C 176.101562 146.527344 172.148438 142.574219 172.148438 137.742188 C 172.148438 132.6875 176.101562 128.953125 180.929688 128.953125 L 277.304688 128.953125 C 282.355469 128.953125 286.085938 132.6875 286.085938 137.742188 C 286.085938 142.574219 282.355469 146.527344 277.304688 146.527344 Z M 236.910156 85.894531 L 137.902344 85.894531 C 131.535156 85.894531 125.609375 83.261719 121.21875 79.085938 C 117.265625 74.914062 115.507812 70.957031 114.851562 66.785156 L 81.921875 66.785156 C 75.335938 66.785156 69.628906 72.277344 69.628906 79.085938 L 69.628906 345.121094 C 69.628906 348.417969 70.945312 351.492188 73.359375 353.691406 C 75.554688 356.105469 78.628906 357.425781 81.921875 357.425781 L 292.890625 357.425781 C 296.183594 357.425781 299.476562 356.105469 301.671875 353.691406 L 301.671875 353.910156 C 303.867188 351.492188 305.183594 348.417969 305.183594 345.121094 L 305.183594 79.085938 C 305.183594 72.277344 299.695312 66.785156 292.890625 66.785156 L 260.179688 66.785156 C 259.304688 70.957031 257.765625 74.914062 253.59375 79.085938 C 249.425781 83.261719 243.277344 85.894531 236.910156 85.894531 Z M 153.269531 230.449219 C 153.269531 237.039062 150.632812 242.75 146.242188 247.144531 C 142.074219 251.316406 136.144531 253.953125 129.777344 253.953125 L 112.214844 253.953125 C 105.628906 253.953125 99.703125 251.316406 95.53125 247.144531 C 91.359375 242.75 88.726562 237.039062 88.726562 230.449219 L 88.726562 212.875 C 88.726562 206.503906 91.359375 200.570312 95.53125 196.398438 C 99.703125 192.003906 105.628906 189.367188 112.214844 189.367188 L 129.777344 189.367188 C 136.144531 189.367188 142.074219 192.003906 146.242188 196.398438 C 150.632812 200.570312 153.269531 206.503906 153.269531 212.875 Z M 146.242188 163.003906 C 142.074219 167.179688 136.144531 169.816406 129.777344 169.816406 L 112.214844 169.816406 C 105.628906 169.816406 99.703125 167.179688 95.53125 163.003906 C 91.359375 158.832031 88.726562 152.898438 88.726562 146.527344 L 88.726562 128.734375 C 88.726562 122.363281 91.359375 116.433594 95.53125 112.257812 C 99.703125 108.085938 105.628906 105.449219 112.214844 105.449219 L 129.777344 105.449219 C 136.144531 105.449219 142.074219 108.085938 146.242188 112.257812 C 150.632812 116.433594 153.269531 122.363281 153.269531 128.734375 L 153.269531 146.527344 C 153.269531 152.898438 150.632812 158.832031 146.242188 163.003906 Z M 172.148438 305.800781 C 172.148438 300.964844 176.101562 297.011719 180.929688 297.011719 L 277.304688 297.011719 C 282.355469 297.011719 286.085938 300.964844 286.085938 305.800781 C 286.085938 310.632812 282.355469 314.585938 277.304688 314.585938 L 180.929688 314.585938 C 176.101562 314.585938 172.148438 310.632812 172.148438 305.800781 Z M 172.148438 305.800781 " fill-opacity="1" fill-rule="evenodd"/></svg>