<svg xmlns="http://www.w3.org/2000/svg" xmlns:xlink="http://www.w3.org/1999/xlink" width="500" zoomAndPan="magnify" viewBox="0 0 375 374.999991" height="500" preserveAspectRatio="xMidYMid meet" version="1.0"><defs><g/><clipPath id="89daf36f5d"><path d="M 145.03125 138.613281 L 343.957031 138.613281 L 343.957031 229.953125 L 145.03125 229.953125 Z M 145.03125 138.613281 " clip-rule="nonzero"/></clipPath></defs><g clip-path="url(#89daf36f5d)"><path fill="#181818" d="M 145.03125 138.613281 L 343.957031 138.613281 L 343.957031 229.953125 L 145.03125 229.953125 Z M 145.03125 138.613281 " fill-opacity="1" fill-rule="nonzero"/></g><g fill="#ffffff" fill-opacity="1"><g transform="translate(2.746639, 212.357153)"><g><path d="M 27.453125 0 L 18.671875 0 L -1.46875 -37.546875 L 13.46875 -37.546875 L 22.625 -17.28125 L 31.625 -37.546875 L 40.546875 -37.546875 L 49.5625 -17.28125 L 58.703125 -37.546875 L 73.640625 -37.546875 L 53.515625 0 L 44.734375 0 L 36.09375 -19.40625 Z M 27.453125 0 "/></g></g></g><g fill="#ffffff" fill-opacity="1"><g transform="translate(68.046966, 212.357153)"><g><path d="M 42.390625 -16.984375 L 15.15625 -16.984375 C 15.15625 -14.347656 16.007812 -12.394531 17.71875 -11.125 C 19.425781 -9.851562 21.28125 -9.21875 23.28125 -9.21875 C 25.375 -9.21875 27.03125 -9.5 28.25 -10.0625 C 29.476562 -10.625 30.867188 -11.734375 32.421875 -13.390625 L 41.796875 -8.71875 C 37.890625 -2.175781 31.398438 1.09375 22.328125 1.09375 C 16.660156 1.09375 11.800781 -0.84375 7.75 -4.71875 C 3.707031 -8.601562 1.6875 -13.273438 1.6875 -18.734375 C 1.6875 -24.203125 3.707031 -28.890625 7.75 -32.796875 C 11.800781 -36.703125 16.660156 -38.65625 22.328125 -38.65625 C 28.273438 -38.65625 33.113281 -36.929688 36.84375 -33.484375 C 40.582031 -30.046875 42.453125 -25.128906 42.453125 -18.734375 C 42.453125 -17.859375 42.429688 -17.273438 42.390625 -16.984375 Z M 15.515625 -24.15625 L 29.796875 -24.15625 C 29.503906 -26.101562 28.734375 -27.601562 27.484375 -28.65625 C 26.242188 -29.707031 24.644531 -30.234375 22.6875 -30.234375 C 20.539062 -30.234375 18.832031 -29.671875 17.5625 -28.546875 C 16.300781 -27.421875 15.617188 -25.957031 15.515625 -24.15625 Z M 15.515625 -24.15625 "/></g></g></g><g fill="#ffffff" fill-opacity="1"><g transform="translate(105.309029, 212.357153)"><g><path d="M 4.390625 0 L 4.390625 -62.953125 L 17.34375 -62.953125 L 17.34375 0 Z M 4.390625 0 "/></g></g></g><g fill="#ffffff" fill-opacity="1"><g transform="translate(120.169766, 212.357153)"><g><path d="M 4.390625 0 L 4.390625 -62.953125 L 17.34375 -62.953125 L 17.34375 0 Z M 4.390625 0 "/></g></g></g><g fill="#181818" fill-opacity="1"><g transform="translate(135.039603, 212.357153)"><g/></g></g><g fill="#f3c455" fill-opacity="1"><g transform="translate(148.152879, 212.357153)"><g><path d="M 4.390625 0 L 4.390625 -37.546875 L 17.34375 -37.546875 L 17.34375 -33.59375 L 17.5 -33.59375 C 20.863281 -36.96875 24.445312 -38.65625 28.25 -38.65625 C 30.101562 -38.65625 31.945312 -38.410156 33.78125 -37.921875 C 35.613281 -37.429688 37.367188 -36.671875 39.046875 -35.640625 C 40.734375 -34.617188 42.101562 -33.164062 43.15625 -31.28125 C 44.207031 -29.40625 44.734375 -27.226562 44.734375 -24.75 L 44.734375 0 L 31.765625 0 L 31.765625 -21.234375 C 31.765625 -23.179688 31.140625 -24.882812 29.890625 -26.34375 C 28.648438 -27.8125 27.03125 -28.546875 25.03125 -28.546875 C 23.082031 -28.546875 21.3125 -27.789062 19.71875 -26.28125 C 18.132812 -24.769531 17.34375 -23.085938 17.34375 -21.234375 L 17.34375 0 Z M 4.390625 0 "/></g></g></g><g fill="#f3c455" fill-opacity="1"><g transform="translate(189.660944, 212.357153)"><g><path d="M 7.9375 -4.46875 C 3.769531 -8.175781 1.6875 -12.929688 1.6875 -18.734375 C 1.6875 -24.546875 3.859375 -29.316406 8.203125 -33.046875 C 12.546875 -36.785156 17.910156 -38.65625 24.296875 -38.65625 C 30.597656 -38.65625 35.90625 -36.773438 40.21875 -33.015625 C 44.539062 -29.253906 46.703125 -24.492188 46.703125 -18.734375 C 46.703125 -12.984375 44.59375 -8.238281 40.375 -4.5 C 36.15625 -0.769531 30.796875 1.09375 24.296875 1.09375 C 17.566406 1.09375 12.113281 -0.757812 7.9375 -4.46875 Z M 17.96875 -25.109375 C 16.289062 -23.453125 15.453125 -21.328125 15.453125 -18.734375 C 15.453125 -16.148438 16.253906 -14.039062 17.859375 -12.40625 C 19.472656 -10.769531 21.597656 -9.953125 24.234375 -9.953125 C 26.765625 -9.953125 28.847656 -10.78125 30.484375 -12.4375 C 32.117188 -14.101562 32.9375 -16.203125 32.9375 -18.734375 C 32.9375 -21.328125 32.09375 -23.453125 30.40625 -25.109375 C 28.726562 -26.765625 26.671875 -27.59375 24.234375 -27.59375 C 21.742188 -27.59375 19.65625 -26.765625 17.96875 -25.109375 Z M 17.96875 -25.109375 "/></g></g></g><g fill="#f3c455" fill-opacity="1"><g transform="translate(231.169009, 212.357153)"><g><path d="M 6.59375 -37.546875 L 6.59375 -51.53125 L 19.546875 -51.53125 L 19.546875 -37.546875 L 27.453125 -37.546875 L 27.453125 -27.671875 L 19.546875 -27.671875 L 19.546875 -15.734375 C 19.546875 -12.273438 20.519531 -10.546875 22.46875 -10.546875 C 22.957031 -10.546875 23.46875 -10.640625 24 -10.828125 C 24.539062 -11.023438 24.957031 -11.222656 25.25 -11.421875 L 25.6875 -11.71875 L 28.921875 -1.25 C 26.140625 0.3125 22.96875 1.09375 19.40625 1.09375 C 16.957031 1.09375 14.851562 0.664062 13.09375 -0.1875 C 11.34375 -1.039062 10.015625 -2.1875 9.109375 -3.625 C 8.210938 -5.0625 7.566406 -6.570312 7.171875 -8.15625 C 6.785156 -9.75 6.59375 -11.445312 6.59375 -13.25 L 6.59375 -27.671875 L 1.171875 -27.671875 L 1.171875 -37.546875 Z M 6.59375 -37.546875 "/></g></g></g><g fill="#f3c455" fill-opacity="1"><g transform="translate(253.204029, 212.357153)"><g><path d="M 42.390625 -16.984375 L 15.15625 -16.984375 C 15.15625 -14.347656 16.007812 -12.394531 17.71875 -11.125 C 19.425781 -9.851562 21.28125 -9.21875 23.28125 -9.21875 C 25.375 -9.21875 27.03125 -9.5 28.25 -10.0625 C 29.476562 -10.625 30.867188 -11.734375 32.421875 -13.390625 L 41.796875 -8.71875 C 37.890625 -2.175781 31.398438 1.09375 22.328125 1.09375 C 16.660156 1.09375 11.800781 -0.84375 7.75 -4.71875 C 3.707031 -8.601562 1.6875 -13.273438 1.6875 -18.734375 C 1.6875 -24.203125 3.707031 -28.890625 7.75 -32.796875 C 11.800781 -36.703125 16.660156 -38.65625 22.328125 -38.65625 C 28.273438 -38.65625 33.113281 -36.929688 36.84375 -33.484375 C 40.582031 -30.046875 42.453125 -25.128906 42.453125 -18.734375 C 42.453125 -17.859375 42.429688 -17.273438 42.390625 -16.984375 Z M 15.515625 -24.15625 L 29.796875 -24.15625 C 29.503906 -26.101562 28.734375 -27.601562 27.484375 -28.65625 C 26.242188 -29.707031 24.644531 -30.234375 22.6875 -30.234375 C 20.539062 -30.234375 18.832031 -29.671875 17.5625 -28.546875 C 16.300781 -27.421875 15.617188 -25.957031 15.515625 -24.15625 Z M 15.515625 -24.15625 "/></g></g></g><g fill="#f3c455" fill-opacity="1"><g transform="translate(290.466092, 212.357153)"><g><path d="M 6.953125 -4.640625 C 3.441406 -8.472656 1.6875 -13.171875 1.6875 -18.734375 C 1.6875 -24.296875 3.441406 -29.003906 6.953125 -32.859375 C 10.460938 -36.722656 14.925781 -38.65625 20.34375 -38.65625 C 25.320312 -38.65625 29.425781 -37.09375 32.65625 -33.96875 L 32.65625 -62.953125 L 45.609375 -62.953125 L 45.609375 0 L 32.796875 0 L 32.796875 -4.25 L 32.65625 -4.25 C 29.425781 -0.6875 25.320312 1.09375 20.34375 1.09375 C 14.925781 1.09375 10.460938 -0.816406 6.953125 -4.640625 Z M 17.96875 -25.109375 C 16.289062 -23.453125 15.453125 -21.328125 15.453125 -18.734375 C 15.453125 -16.148438 16.253906 -14.039062 17.859375 -12.40625 C 19.472656 -10.769531 21.597656 -9.953125 24.234375 -9.953125 C 26.765625 -9.953125 28.847656 -10.78125 30.484375 -12.4375 C 32.117188 -14.101562 32.9375 -16.203125 32.9375 -18.734375 C 32.9375 -21.328125 32.09375 -23.453125 30.40625 -25.109375 C 28.726562 -26.765625 26.671875 -27.59375 24.234375 -27.59375 C 21.742188 -27.59375 19.65625 -26.765625 17.96875 -25.109375 Z M 17.96875 -25.109375 "/></g></g></g><g fill="#181818" fill-opacity="1"><g transform="translate(333.590367, 212.357153)"><g/></g></g><g fill="#181818" fill-opacity="1"><g transform="translate(346.694141, 212.357153)"><g><path d="M 12.734375 -15.671875 C 15.078125 -15.671875 17.066406 -14.851562 18.703125 -13.21875 C 20.335938 -11.582031 21.15625 -9.59375 21.15625 -7.25 C 21.15625 -4.957031 20.335938 -2.992188 18.703125 -1.359375 C 17.066406 0.273438 15.078125 1.09375 12.734375 1.09375 C 10.441406 1.09375 8.476562 0.273438 6.84375 -1.359375 C 5.207031 -2.992188 4.390625 -4.957031 4.390625 -7.25 C 4.390625 -9.59375 5.207031 -11.582031 6.84375 -13.21875 C 8.476562 -14.851562 10.441406 -15.671875 12.734375 -15.671875 Z M 12.734375 -15.671875 "/></g></g></g></svg>