<svg xmlns="http://www.w3.org/2000/svg" xmlns:xlink="http://www.w3.org/1999/xlink" width="500" zoomAndPan="magnify" viewBox="0 0 375 374.999991" height="500" preserveAspectRatio="xMidYMid meet" version="1.0"><defs><g/><clipPath id="d71f667e3b"><path d="M 145.03125 141.828125 L 343.957031 141.828125 L 343.957031 233.171875 L 145.03125 233.171875 Z M 145.03125 141.828125 " clip-rule="nonzero"/></clipPath></defs><g clip-path="url(#d71f667e3b)"><path fill="#112d4e" d="M 145.03125 141.828125 L 343.957031 141.828125 L 343.957031 233.171875 L 145.03125 233.171875 Z M 145.03125 141.828125 " fill-opacity="1" fill-rule="nonzero"/></g><g fill="#112d4e" fill-opacity="1"><g transform="translate(2.591391, 216.716998)"><g><path d="M 27.46875 0 L 18.6875 0 L -1.46875 -37.578125 L 13.484375 -37.578125 L 22.640625 -17.296875 L 31.65625 -37.578125 L 40.59375 -37.578125 L 49.59375 -17.296875 L 58.765625 -37.578125 L 73.703125 -37.578125 L 53.5625 0 L 44.765625 0 L 36.125 -19.421875 Z M 27.46875 0 "/></g></g></g><g fill="#112d4e" fill-opacity="1"><g transform="translate(67.943736, 216.716998)"><g><path d="M 42.421875 -17 L 15.171875 -17 C 15.171875 -14.363281 16.023438 -12.410156 17.734375 -11.140625 C 19.441406 -9.867188 21.296875 -9.234375 23.296875 -9.234375 C 25.398438 -9.234375 27.0625 -9.515625 28.28125 -10.078125 C 29.5 -10.640625 30.890625 -11.75 32.453125 -13.40625 L 41.828125 -8.71875 C 37.921875 -2.175781 31.425781 1.09375 22.34375 1.09375 C 16.675781 1.09375 11.816406 -0.84375 7.765625 -4.71875 C 3.710938 -8.601562 1.6875 -13.28125 1.6875 -18.75 C 1.6875 -24.226562 3.710938 -28.921875 7.765625 -32.828125 C 11.816406 -36.734375 16.675781 -38.6875 22.34375 -38.6875 C 28.300781 -38.6875 33.148438 -36.960938 36.890625 -33.515625 C 40.628906 -30.078125 42.5 -25.15625 42.5 -18.75 C 42.5 -17.875 42.472656 -17.289062 42.421875 -17 Z M 15.53125 -24.171875 L 29.8125 -24.171875 C 29.519531 -26.128906 28.75 -27.632812 27.5 -28.6875 C 26.257812 -29.738281 24.664062 -30.265625 22.71875 -30.265625 C 20.5625 -30.265625 18.847656 -29.703125 17.578125 -28.578125 C 16.304688 -27.453125 15.625 -25.984375 15.53125 -24.171875 Z M 15.53125 -24.171875 "/></g></g></g><g fill="#112d4e" fill-opacity="1"><g transform="translate(105.235354, 216.716998)"><g><path d="M 4.390625 0 L 4.390625 -63.015625 L 17.359375 -63.015625 L 17.359375 0 Z M 4.390625 0 "/></g></g></g><g fill="#112d4e" fill-opacity="1"><g transform="translate(120.107694, 216.716998)"><g><path d="M 4.390625 0 L 4.390625 -63.015625 L 17.359375 -63.015625 L 17.359375 0 Z M 4.390625 0 "/></g></g></g><g fill="#252830" fill-opacity="1"><g transform="translate(134.989823, 216.716998)"><g/></g></g><g fill="#f3c455" fill-opacity="1"><g transform="translate(148.114822, 216.716998)"><g><path d="M 4.390625 0 L 4.390625 -37.578125 L 17.359375 -37.578125 L 17.359375 -33.625 L 17.515625 -33.625 C 20.878906 -37 24.46875 -38.6875 28.28125 -38.6875 C 30.132812 -38.6875 31.976562 -38.441406 33.8125 -37.953125 C 35.644531 -37.460938 37.398438 -36.703125 39.078125 -35.671875 C 40.765625 -34.648438 42.132812 -33.195312 43.1875 -31.3125 C 44.238281 -29.4375 44.765625 -27.253906 44.765625 -24.765625 L 44.765625 0 L 31.796875 0 L 31.796875 -21.25 C 31.796875 -23.195312 31.171875 -24.90625 29.921875 -26.375 C 28.679688 -27.84375 27.0625 -28.578125 25.0625 -28.578125 C 23.101562 -28.578125 21.328125 -27.816406 19.734375 -26.296875 C 18.148438 -24.785156 17.359375 -23.101562 17.359375 -21.25 L 17.359375 0 Z M 4.390625 0 "/></g></g></g><g fill="#f3c455" fill-opacity="1"><g transform="translate(189.655849, 216.716998)"><g><path d="M 7.953125 -4.46875 C 3.773438 -8.175781 1.6875 -12.9375 1.6875 -18.75 C 1.6875 -24.5625 3.859375 -29.335938 8.203125 -33.078125 C 12.546875 -36.816406 17.921875 -38.6875 24.328125 -38.6875 C 30.628906 -38.6875 35.941406 -36.804688 40.265625 -33.046875 C 44.585938 -29.285156 46.75 -24.519531 46.75 -18.75 C 46.75 -12.988281 44.632812 -8.238281 40.40625 -4.5 C 36.175781 -0.769531 30.816406 1.09375 24.328125 1.09375 C 17.585938 1.09375 12.128906 -0.757812 7.953125 -4.46875 Z M 17.984375 -25.125 C 16.296875 -23.46875 15.453125 -21.34375 15.453125 -18.75 C 15.453125 -16.164062 16.257812 -14.054688 17.875 -12.421875 C 19.488281 -10.785156 21.613281 -9.96875 24.25 -9.96875 C 26.789062 -9.96875 28.878906 -10.796875 30.515625 -12.453125 C 32.148438 -14.117188 32.96875 -16.21875 32.96875 -18.75 C 32.96875 -21.34375 32.125 -23.46875 30.4375 -25.125 C 28.757812 -26.789062 26.695312 -27.625 24.25 -27.625 C 21.757812 -27.625 19.671875 -26.789062 17.984375 -25.125 Z M 17.984375 -25.125 "/></g></g></g><g fill="#f3c455" fill-opacity="1"><g transform="translate(231.196875, 216.716998)"><g><path d="M 6.59375 -37.578125 L 6.59375 -51.578125 L 19.5625 -51.578125 L 19.5625 -37.578125 L 27.46875 -37.578125 L 27.46875 -27.6875 L 19.5625 -27.6875 L 19.5625 -15.75 C 19.5625 -12.28125 20.539062 -10.546875 22.5 -10.546875 C 22.976562 -10.546875 23.488281 -10.644531 24.03125 -10.84375 C 24.570312 -11.039062 24.988281 -11.234375 25.28125 -11.421875 L 25.71875 -11.71875 L 28.9375 -1.25 C 26.15625 0.3125 22.984375 1.09375 19.421875 1.09375 C 16.972656 1.09375 14.867188 0.664062 13.109375 -0.1875 C 11.359375 -1.039062 10.03125 -2.1875 9.125 -3.625 C 8.21875 -5.0625 7.566406 -6.570312 7.171875 -8.15625 C 6.785156 -9.75 6.59375 -11.453125 6.59375 -13.265625 L 6.59375 -27.6875 L 1.171875 -27.6875 L 1.171875 -37.578125 Z M 6.59375 -37.578125 "/></g></g></g><g fill="#f3c455" fill-opacity="1"><g transform="translate(253.249261, 216.716998)"><g><path d="M 42.421875 -17 L 15.171875 -17 C 15.171875 -14.363281 16.023438 -12.410156 17.734375 -11.140625 C 19.441406 -9.867188 21.296875 -9.234375 23.296875 -9.234375 C 25.398438 -9.234375 27.0625 -9.515625 28.28125 -10.078125 C 29.5 -10.640625 30.890625 -11.75 32.453125 -13.40625 L 41.828125 -8.71875 C 37.921875 -2.175781 31.425781 1.09375 22.34375 1.09375 C 16.675781 1.09375 11.816406 -0.84375 7.765625 -4.71875 C 3.710938 -8.601562 1.6875 -13.28125 1.6875 -18.75 C 1.6875 -24.226562 3.710938 -28.921875 7.765625 -32.828125 C 11.816406 -36.734375 16.675781 -38.6875 22.34375 -38.6875 C 28.300781 -38.6875 33.148438 -36.960938 36.890625 -33.515625 C 40.628906 -30.078125 42.5 -25.15625 42.5 -18.75 C 42.5 -17.875 42.472656 -17.289062 42.421875 -17 Z M 15.53125 -24.171875 L 29.8125 -24.171875 C 29.519531 -26.128906 28.75 -27.632812 27.5 -28.6875 C 26.257812 -29.738281 24.664062 -30.265625 22.71875 -30.265625 C 20.5625 -30.265625 18.847656 -29.703125 17.578125 -28.578125 C 16.304688 -27.453125 15.625 -25.984375 15.53125 -24.171875 Z M 15.53125 -24.171875 "/></g></g></g><g fill="#f3c455" fill-opacity="1"><g transform="translate(290.540885, 216.716998)"><g><path d="M 6.953125 -4.65625 C 3.441406 -8.488281 1.6875 -13.1875 1.6875 -18.75 C 1.6875 -24.320312 3.441406 -29.035156 6.953125 -32.890625 C 10.472656 -36.753906 14.945312 -38.6875 20.375 -38.6875 C 25.351562 -38.6875 29.453125 -37.125 32.671875 -34 L 32.671875 -63.015625 L 45.640625 -63.015625 L 45.640625 0 L 32.828125 0 L 32.828125 -4.25 L 32.671875 -4.25 C 29.453125 -0.6875 25.351562 1.09375 20.375 1.09375 C 14.945312 1.09375 10.472656 -0.820312 6.953125 -4.65625 Z M 17.984375 -25.125 C 16.296875 -23.46875 15.453125 -21.34375 15.453125 -18.75 C 15.453125 -16.164062 16.257812 -14.054688 17.875 -12.421875 C 19.488281 -10.785156 21.613281 -9.96875 24.25 -9.96875 C 26.789062 -9.96875 28.878906 -10.796875 30.515625 -12.453125 C 32.148438 -14.117188 32.96875 -16.21875 32.96875 -18.75 C 32.96875 -21.34375 32.125 -23.46875 30.4375 -25.125 C 28.757812 -26.789062 26.695312 -27.625 24.25 -27.625 C 21.757812 -27.625 19.671875 -26.789062 17.984375 -25.125 Z M 17.984375 -25.125 "/></g></g></g><g fill="#181818" fill-opacity="1"><g transform="translate(333.70465, 216.716998)"><g/></g></g><g fill="#181818" fill-opacity="1"><g transform="translate(346.818623, 216.716998)"><g><path d="M 12.75 -15.671875 C 15.09375 -15.671875 17.082031 -14.851562 18.71875 -13.21875 C 20.351562 -11.582031 21.171875 -9.59375 21.171875 -7.25 C 21.171875 -4.957031 20.351562 -2.992188 18.71875 -1.359375 C 17.082031 0.273438 15.09375 1.09375 12.75 1.09375 C 10.457031 1.09375 8.488281 0.273438 6.84375 -1.359375 C 5.207031 -2.992188 4.390625 -4.957031 4.390625 -7.25 C 4.390625 -9.59375 5.207031 -11.582031 6.84375 -13.21875 C 8.488281 -14.851562 10.457031 -15.671875 12.75 -15.671875 Z M 12.75 -15.671875 "/></g></g></g></svg>